<?xml version="1.0" standalone="no"?>
<!DOCTYPE svg PUBLIC "-//W3C//DTD SVG 1.1//EN" "http://www.w3.org/Graphics/SVG/1.1/DTD/svg11.dtd" >
<svg>
<metadata>
Created by FontForge 20090914 at Sat Mar  4 00:01:46 2017
 By www-data
Copyright (c) 2011 Natanael Gama (exo@ndiscovered.com), with Reserved Font Name "Exo"
</metadata>
<defs>
<font id="Exo-DemiBold" horiz-adv-x="547" >
  <font-face 
    font-family="Exo"
    font-weight="600"
    font-stretch="normal"
    units-per-em="1000"
    panose-1="2 0 7 3 0 0 0 0 0 0"
    ascent="800"
    descent="-200"
    x-height="531"
    cap-height="732"
    bbox="-76 -273.999 1345 1002"
    underline-thickness="50"
    underline-position="-50"
    unicode-range="U+000D-U+FB06"
  />
<missing-glyph horiz-adv-x="727" 
d="M629 506l-252 -240l252 -241v481zM112 13h507l-253 243zM99 22l256 244l-256 241v-485zM620 518h-511l257 -242zM85 0v531h558v-531h-558z" />
    <glyph glyph-name="fi" unicode="fi" horiz-adv-x="620" 
d="M17 436l-0.00195312 77.999l89 17v45c0 60 19 110 57 150c38.667 40 90.334 60 155.001 60c26.667 0 63.834 -3.16699 111.501 -9.5s82.167 -13.166 103.5 -20.499v-71l-180 7c-2.66699 0.666992 -8 1 -16 1s-18.5 -1.5 -31.5 -4.5s-26.167 -8.5 -39.5 -16.5
c-29.333 -18 -44 -51.333 -44 -100v-41l352 -10v-521h-117v436h-235v-436h-116v436h-89z" />
    <glyph glyph-name="fl" unicode="fl" horiz-adv-x="720" 
d="M106 579c0 67.333 15.833 118.669 47.5 154.002s77.5 53 137.5 53l287 -1v-582c0 -38 3.66699 -63.833 11 -77.5s20.333 -23.834 39 -30.501c45.333 -14 70.333 -21 75 -21v-74h-105c-48 0 -82.667 14.167 -104 42.5s-32 77.166 -32 146.499v503h-148
c-31.333 0 -54.5 -8 -69.5 -24s-22.5 -45.667 -22.5 -89v-48h130v-95h-131v-436h-116v436h-88v78l89 17v48z" />
    <glyph glyph-name=".notdef" horiz-adv-x="727" 
d="M629 506l-252 -240l252 -241v481zM112 13h507l-253 243zM99 22l256 244l-256 241v-485zM620 518h-511l257 -242zM85 0v531h558v-531h-558z" />
    <glyph glyph-name=".notdef" horiz-adv-x="727" 
d="M629 506l-252 -240l252 -241v481zM112 13h507l-253 243zM99 22l256 244l-256 241v-485zM620 518h-511l257 -242zM85 0v531h558v-531h-558z" />
    <glyph glyph-name="uni000D" unicode="&#xd;" horiz-adv-x="846" 
 />
    <glyph glyph-name="space" unicode=" " horiz-adv-x="250" 
 />
    <glyph glyph-name="exclam" unicode="!" horiz-adv-x="271" 
d="M72 23l0.000976562 78c0 16.667 8 25 24 25h76c7.33301 0 13 -2.33301 17 -7s6 -10.667 6 -18v-78c0 -15.333 -7.66699 -23 -23 -23h-76c-6.66699 0 -12.334 2.16699 -17.001 6.5s-7 9.83301 -7 16.5zM73.001 731h123l-12 -535h-100z" />
    <glyph glyph-name="quotedbl" unicode="&#x22;" horiz-adv-x="420" 
d="M185 732v-67l-10 -134h-92l-11 134v67h113zM236 732h113v-67l-10 -134h-92l-11 134v67z" />
    <glyph glyph-name="numbersign" unicode="#" horiz-adv-x="708" 
d="M17 218l12 80h155l22 137h-155l13 80h157l37 217h80l-37 -217h138l36 217h80l-36 -217h174l-13 -80h-174l-22 -138h174l-12 -80h-178l-37 -217h-80l37 217l-139 1l-37 -218h-80l37 218h-152zM264 298l140 -1l22 138h-140z" />
    <glyph glyph-name="dollar" unicode="$" horiz-adv-x="571" 
d="M240 824h76.0029v-88c59.333 -4 120.333 -12.333 183 -25v-91c-142 6.66699 -225.333 10 -250 10s-45.167 -5.16699 -61.5 -15.5s-24.5 -33.166 -24.5 -68.499v-47c0 -29.333 7.66699 -50 23 -62s37 -18 65 -18h107c112 0 168 -62 168 -186v-56
c0 -73.333 -22.333 -123.666 -67 -150.999c-36.667 -22.667 -80.334 -34 -131.001 -34h-12v-82h-76v85c-64.667 4.66699 -121.334 13 -170.001 25v89c6 -0.666992 16 -1.33398 30 -2.00098l43.5 -2c15 -0.666992 31.5 -1.33398 49.5 -2.00098c40.667 -1.33301 78 -2 112 -2
c70 0 105 24.333 105 73v50c0 34 -9.66699 56.667 -29 68c-10.667 7.33301 -25.334 11 -44.001 11h-105c-31.333 0 -58.666 4.33301 -81.999 13s-41.333 19.5 -54 32.5s-23 28.167 -31 45.5c-12 28.667 -18 60.334 -18 95.001v64c0.666992 68.667 19.667 117 57 145
c33.333 25.333 78.666 38.666 135.999 39.999v86z" />
    <glyph glyph-name="percent" unicode="%" horiz-adv-x="959" 
d="M36 478l-0.000976562 125.999c0 44 9.83301 76.333 29.5 97s53.834 31 102.501 31h101c48 0 81.833 -10.333 101.5 -31s29.5 -53 29.5 -97v-126c0 -66.667 -23.333 -107 -70 -121c-16.667 -5.33301 -37.667 -8 -63 -8h-101c-47.333 0 -80.833 10.333 -100.5 31
s-29.5 53.334 -29.5 98.001zM121.999 487.999c0 -20 3.66797 -33.833 11.001 -41.5s21.333 -11.5 42 -11.5h83c24 0 39.333 3.83301 46 11.5s10 21.5 10 41.5v105c0 21.333 -3.83301 35.5 -11.5 42.5s-21.834 10.5 -42.501 10.5h-83c-28 0 -45 -7 -51 -21
c-2.66699 -7.33301 -4 -18 -4 -32v-105zM215 -0.000976562l443 732h90l-441 -732h-92zM560 130.999v126.001c0 44 9.83301 76.333 29.5 97s53.834 31 102.501 31h102c62 0 101.333 -19 118 -57c8 -18 12 -41.667 12 -71v-126c0 -44.667 -9.83301 -77.334 -29.5 -98.001
s-53.834 -31 -102.501 -31h-102c-47.333 0 -80.833 10.5 -100.5 31.5s-29.5 53.5 -29.5 97.5zM646 141c0 -20 3.66699 -33.833 11 -41.5s21.333 -11.5 42 -11.5h84c23.333 0 38.333 3.83301 45 11.5s10 21.5 10 41.5v105c0 21.333 -3.83301 35.5 -11.5 42.5
s-21.5 10.5 -41.5 10.5h-84c-28 0 -44.667 -6.66699 -50 -20c-3.33301 -7.33301 -5 -18.333 -5 -33v-105z" />
    <glyph glyph-name="ampersand" unicode="&#x26;" horiz-adv-x="664" 
d="M302 627c-50 0 -75 -12 -75 -36c0 -16.667 10.667 -40 32 -70l193 -263l119 116l39 -47l-56 -107l-39 -44l129 -176h-136l-75 102l-68 -62c-33.333 -30 -75 -45 -125 -45c-26 0 -52 5 -78 15c-38 14 -69.833 39.5 -95.5 76.5s-38.5 75.833 -38.5 116.5
c0 62 27.667 117 83 165l76 65l-56 78c-22 32 -33 62 -33 90c0 35.333 11.5 64.833 34.5 88.5s48.167 37.167 75.5 40.5c30 4 64.667 6 104 6s95.333 -8.66699 168 -26v-83h-178zM185 295c-30.667 -26 -46 -51.501 -46 -76.501s7.16699 -46.667 21.5 -65
s28.666 -31.166 42.999 -38.499s26 -11 35 -11s14.833 0.333008 17.5 1c18.667 1.33301 35.334 9 50.001 23l61 58l-121 161z" />
    <glyph glyph-name="quotesingle" unicode="'" horiz-adv-x="209" 
d="M47 732h117v-67l-10 -134h-96l-11 134v67z" />
    <glyph glyph-name="parenleft" unicode="(" horiz-adv-x="362" 
d="M81.5 138c-12.333 61.333 -18.5039 122.334 -18.5039 183.001s5.83301 119.834 17.5 177.501s25.834 107.167 42.501 148.5c34.667 86 65.334 148.667 92.001 188l18 25h112c-15.333 -23.333 -33.5 -56.833 -54.5 -100.5s-38.833 -85.5 -53.5 -125.5
s-28 -88.333 -40 -145s-18 -108.334 -18 -155.001s3.16699 -91.167 9.5 -133.5s14.333 -80.5 24 -114.5s20.334 -66.833 32.001 -98.5s23.5 -59.5 35.5 -83.5c24.667 -48 43.334 -81.667 56.001 -101l9 -13h-112c-15.333 18 -33.833 46 -55.5 84s-40 76.167 -55 114.5
s-28.667 88.166 -41 149.499z" />
    <glyph glyph-name="parenright" unicode=")" horiz-adv-x="362" 
d="M165 152.5c12 58.333 18 114.832 18 169.499s-5.66699 109.834 -17 165.501s-25.333 104.834 -42 147.501c-33.333 88 -63.333 153.667 -90 197l-17 28h112c16 -21.333 34.833 -52.5 56.5 -93.5s39.834 -81.167 54.501 -120.5s28.167 -88.166 40.5 -146.499
s18.5 -117.833 18.5 -178.5s-5.83301 -121.334 -17.5 -182.001s-25.834 -111 -42.501 -151c-34 -83.333 -64.667 -142 -92 -176l-18 -22h-112c15.333 21.333 33.5 52.833 54.5 94.5s38.833 82.167 53.5 121.5s28 88.166 40 146.499z" />
    <glyph glyph-name="asterisk" unicode="*" horiz-adv-x="432" 
d="M42 566v50l139 26l5 -81zM103 415l25 136l78 -19l-55 -132zM169 719l49 18l70 -121l-75 -32zM197 470l44 68l112 -90l-29 -41zM244 571l119 78l27 -43l-95 -97z" />
    <glyph glyph-name="plus" unicode="+" horiz-adv-x="495" 
d="M40 305v102h156v157h102v-157h158v-102h-158v-157h-102v157h-156z" />
    <glyph glyph-name="comma" unicode="," horiz-adv-x="264" 
d="M193 -11c0 -54 -29.333 -81.001 -88 -81.001c-6 0 -11.333 0.666992 -16 2l-12 2v42c9.33301 0 16.333 1.66699 21 5c6.66699 4.66699 10 12.334 10 23.001v18h-11c-7.33301 0 -13.333 2.16699 -18 6.5s-7 10.5 -7 18.5v75c0 18 8.33301 27 25 27h72c16 0 24 -9 24 -27
v-111z" />
    <glyph glyph-name="hyphen" unicode="-" horiz-adv-x="354" 
d="M20 239v102h314v-102h-314z" />
    <glyph glyph-name="period" unicode="." horiz-adv-x="266" 
d="M72 23l-0.000976562 78c0 16.667 8 25 24 25h74c16.667 0 25 -8.33301 25 -25v-78c0 -15.333 -8.33301 -23 -25 -23h-74c-7.33301 0 -13.166 2.16699 -17.499 6.5s-6.5 9.83301 -6.5 16.5z" />
    <glyph glyph-name="slash" unicode="/" horiz-adv-x="435" 
d="M17 -72l281 842h121l-281 -842h-121z" />
    <glyph glyph-name="zero" unicode="0" horiz-adv-x="635" 
d="M59 172l-0.00195312 384c0 56.667 16.333 100.167 49 130.5s76.334 45.5 131.001 45.5h164c60.667 0 104.667 -16 132 -48s41 -73.333 41 -124v-388c0 -57.333 -15.167 -100.333 -45.5 -129s-72.833 -43 -127.5 -43h-164c-55.333 -0 -99.166 14.333 -131.499 43
s-48.5 71.667 -48.5 129zM174.998 187c0 -28.667 8.16895 -48.833 24.502 -60.5s36.166 -17.5 59.499 -17.5h121c53.333 0 80 25.667 80 77v360c0 51.333 -25.667 77 -77 77h-127c-28.667 0 -49.334 -7.66699 -62.001 -23s-19 -33.333 -19 -54v-359z" />
    <glyph glyph-name="one" unicode="1" horiz-adv-x="367" 
d="M300 732v-732h-116v613l-150 -42v77l151 84h115z" />
    <glyph glyph-name="two" unicode="2" horiz-adv-x="591" 
d="M34 632l-0.00195312 86.001c100.667 16 202 24 304 24c72 0 126 -22.333 162 -67c32.667 -42 49 -93 49 -153c0 -43.333 -12.667 -87.333 -38 -132c-27.333 -47.333 -53.5 -84.333 -78.5 -111s-45.5 -47.667 -61.5 -63s-33 -30.666 -51 -45.999
c-29.333 -24.667 -54.666 -45 -75.999 -61h305v-109h-508v103c40 26.667 82 57.5 126 92.5s79.833 65.667 107.5 92s53.834 53.166 78.501 80.499c53.333 59.333 80 110.666 80 153.999c0 73.333 -41.333 110 -124 110h-275z" />
    <glyph glyph-name="three" unicode="3" horiz-adv-x="587" 
d="M340 -7l-58.002 0.000976562h-19c-4 0 -15 0.166992 -33 0.5s-30.5 0.666016 -37.5 0.999023s-18 1 -33 2s-26.667 2.16699 -35 3.5l-30.5 5c-20 3.33301 -41 8.66602 -63 15.999l1 82h270c36.667 0 63.334 4.66699 80.001 14s25 30.333 25 63v42
c0 21.333 -4.5 38.5 -13.5 51.5s-20.167 21.833 -33.5 26.5s-30.666 7.33398 -51.999 8.00098l-215 8v92l215 10c35.333 2 61 9.33301 77 22s24 32.667 24 60v48c0 51.333 -33.667 77 -101 77h-283v81c54 19.333 126 29 216 29c33.333 0 68.666 -0.333008 105.999 -1
c54.667 -0.666992 97.834 -16.667 129.501 -48s47.5 -72.666 47.5 -123.999v-58c0 -74.667 -24 -121.334 -72 -140.001c48 -23.333 72 -72.333 72 -147v-49c0 -56.667 -15.5 -100 -46.5 -130s-76.833 -45 -137.5 -45z" />
    <glyph glyph-name="four" unicode="4" horiz-adv-x="614" 
d="M402 282v182l33 76h83v-258h79v-90l-79 -22v-168h-116v168h-351l-34 54l282 508h130l-246 -450h219z" />
    <glyph glyph-name="five" unicode="5" horiz-adv-x="599" 
d="M189 430c21.333 19.333 60.668 28.998 118.001 28.998c14.667 0 30.5 -0.333008 47.5 -1s26.833 -1.33398 29.5 -2.00098c38 -0.666992 69.667 -9 95 -25c47.333 -29.333 71 -79.666 71 -150.999v-107c0 -72.667 -27.667 -124 -83 -154
c-28.667 -15.333 -60.334 -23 -95.001 -23c-68 0 -120.5 1.33301 -157.5 4s-87.167 9.33398 -150.5 20.001v90h290c53.333 0 80 26.333 80 79v82c0 20 -1.83301 33.667 -5.5 41s-7.33398 13.333 -11.001 18s-8.16699 8.33398 -13.5 11.001
c-11.333 6.66699 -26.666 10 -45.999 10h-115c-20 0 -36.5 -5.33301 -49.5 -16s-19.5 -27 -19.5 -49h-108l22 446h436v-109h-326z" />
    <glyph glyph-name="six" unicode="6" horiz-adv-x="613" 
d="M64.5 223.5c-6.33301 45.667 -9.49707 99.667 -9.49707 162s4.83301 117 14.5 164s23.167 83.167 40.5 108.5c32 49.333 71 75.333 117 78c21.333 1.33301 43.333 2 66 2c77.333 0 159.666 -7 246.999 -21v-88h-265c-66.667 0 -101.334 -70.333 -104.001 -211
c72.667 13.333 147.667 20 225 20c96 0 150.667 -37 164 -111c2.66699 -15.333 4 -32.333 4 -51v-118c0 -106 -57.333 -159 -172 -159h-145c-24 0 -45.167 3.33301 -63.5 10s-35.833 18.5 -52.5 35.5s-30.334 39.667 -41.001 68s-19.167 65.333 -25.5 111zM171.003 333
c0 -56 2.49902 -94.667 7.49902 -116s10 -38.333 15 -51s11.167 -23 18.5 -31c16 -18 36.333 -27 61 -27h103c24.667 0 42.834 4.5 54.501 13.5s17.5 27.5 17.5 55.5v88c0 26 -5.83301 43.833 -17.5 53.5s-29.167 14.5 -52.5 14.5h-207z" />
    <glyph glyph-name="seven" unicode="7" horiz-adv-x="551" 
d="M25 623v109h467l34 -58l-252 -674h-130l237 623h-356z" />
    <glyph glyph-name="eight" unicode="8" horiz-adv-x="628" 
d="M63 163v82c0 60 27.333 96.667 82 110c-54.667 22 -82 70 -82 144v65c0 66 18 112 54 138c32 23.333 75 35 129 35h150c56.667 0 99 -13.667 127 -41s42 -71.333 42 -132v-58c1.33301 -46 -12.334 -79.667 -41.001 -101c-9.33301 -7.33301 -20.666 -12.333 -33.999 -15
c18 -3.33301 33 -13.666 45 -30.999c20.667 -28.667 30.667 -63.334 30 -104.001v-90c0 -110 -56.667 -165 -170 -165h-149c-102.667 -0 -161.667 36.333 -177 109c-4 16.667 -6 34.667 -6 54zM179 172c0 -22.667 6.5 -39.501 19.5 -50.501s34.167 -16.5 63.5 -16.5h113
c22 0 39.833 5.66699 53.5 17s20.5 28 20.5 50v82c0 22.667 -6.5 39.834 -19.5 51.501s-30.5 17.5 -52.5 17.5h-122c-50.667 0 -76 -23 -76 -69v-82zM179 493.999c0 -26 7.5 -44.167 22.5 -54.5s32.833 -15.5 53.5 -15.5h122c39.333 0 62.333 14.667 69 44
c2 7.33301 3 16 3 26v55c0 40 -11.333 65.333 -34 76c-10 4 -23.333 6 -40 6h-113c-29.333 0 -50.5 -5 -63.5 -15s-19.5 -32.333 -19.5 -67v-55z" />
    <glyph glyph-name="nine" unicode="9" horiz-adv-x="613" 
d="M51 460v116.999c0 106 57 159 171 159h146c24 0 45.167 -3.16699 63.5 -9.5s35.833 -18.166 52.5 -35.499s30.334 -40 41.001 -68c22.667 -61.333 34 -152 34 -272c0 -174.667 -36 -285 -108 -331c-19.333 -12.667 -41.833 -19.667 -67.5 -21s-52.167 -2 -79.5 -2
c-82.667 0 -159 7.33301 -229 22v87h264c67.333 0 102 70.667 104 212c-72.667 -14 -147.334 -21 -224.001 -21c-67.333 0 -113 16 -137 48c-20.667 28.667 -31 67 -31 115zM166 469.999c0 -25.333 6.00098 -43 18.001 -53s29.667 -15 53 -15h206c0 70 -5 120 -15 150
c-12 34 -27.333 56 -46 66c-12 6 -25.667 9 -41 9h-103c-24.667 0 -42.834 -4.5 -54.501 -13.5s-17.5 -27.5 -17.5 -55.5v-88z" />
    <glyph glyph-name="colon" unicode=":" horiz-adv-x="266" 
d="M72 23l-0.000976562 78c0 16.667 8 25 24 25h74c16.667 0 25 -8.33301 25 -25v-78c0 -15.333 -8.33301 -23 -25 -23h-74c-7.33301 0 -13.166 2.16699 -17.499 6.5s-6.5 9.83301 -6.5 16.5zM71.999 429v78c0 16.667 8 25 24 25h74c16.667 0 25 -8.33301 25 -25v-78
c0 -15.333 -8.33301 -23 -25 -23h-74c-10 0 -16.5 2.66699 -19.5 8s-4.5 10.333 -4.5 15z" />
    <glyph glyph-name="semicolon" unicode=";" horiz-adv-x="268" 
d="M193 -11c0 -54 -29.333 -81.001 -88 -81.001c-6 0 -11.333 0.666992 -16 2l-12 2v42c9.33301 0 16.333 1.66699 21 5c6.66699 4.66699 10 12.334 10 23.001v18h-11c-6.66699 0 -12.5 2.5 -17.5 7.5s-7.5 10.833 -7.5 17.5v75c0 8 2.33301 14.5 7 19.5s10.667 7.5 18 7.5
h72c16 0 24 -9 24 -27v-111zM73 428.999l-0.000976562 78c0 16.667 8 25 24 25h74c16.667 0 25 -8.33301 25 -25v-78c0 -15.333 -8.33301 -23 -25 -23h-74c-9.33301 0 -15.666 2.66699 -18.999 8s-5 10.333 -5 15z" />
    <glyph glyph-name="less" unicode="&#x3c;" horiz-adv-x="459" 
d="M42 297v112l375 150v-111l-244 -94l244 -105v-113z" />
    <glyph glyph-name="equal" unicode="=" horiz-adv-x="467" 
d="M20 194v102h427v-102h-427zM20 407v102h427v-102h-427z" />
    <glyph glyph-name="greater" unicode="&#x3e;" horiz-adv-x="459" 
d="M42 136v113l244 105l-244 94v112l375 -151v-112z" />
    <glyph glyph-name="question" unicode="?" horiz-adv-x="542" 
d="M17 629l0.000976562 86.999c95.333 16 173.666 24 234.999 24c15.333 0 31 -0.333008 47 -1c103.333 0 169.333 -40 198 -120c7.33301 -22.667 11 -46.667 11 -72v-83c0 -66.667 -20 -114.667 -60 -144c-32 -22.667 -74 -34 -126 -34c-14.667 0 -30 1 -46 3v-94h-100v183
h125c27.333 1.33301 49.5 8.83301 66.5 22.5s25.5 35.167 25.5 64.5v71c0 32.667 -9.5 56.334 -28.5 71.001s-49.167 22 -90.5 22h-257zM165.001 22.999l-0.000976562 78c0 16.667 8 25 24 25h75c16 0 24 -8.33301 24 -25v-78c0 -15.333 -8 -23 -24 -23h-75
c-7.33301 0 -13.166 2.16699 -17.499 6.5s-6.5 9.83301 -6.5 16.5z" />
    <glyph glyph-name="at" unicode="@" horiz-adv-x="859" 
d="M248 512h200.003c111.333 0 167 -50 167 -150v-362h-78l-17 60l-8.5 -7c-5.66699 -4.66699 -13.667 -10.334 -24 -17.001s-21.833 -13.334 -34.5 -20.001c-30.667 -16.667 -64.334 -25 -101.001 -25s-66.5 12.333 -89.5 37s-34.5 54.667 -34.5 90v46
c0 58.667 21.333 99 64 121c21.333 10.667 46.666 16 75.999 16h150v41v14c0 22.667 -5.5 38 -16.5 46s-28.833 12 -53.5 12h-200c-46.667 0 -75.667 -14.333 -87 -43c-4.66699 -12.667 -7 -28.334 -7 -47.001v-310c0 -56 20.667 -90 62 -102c10 -2.66699 20.667 -4 32 -4
h338c39.333 0 66.333 8.66699 81 26s22 44 22 80v477c0 37.333 -9.33301 66 -28 86s-43.667 30 -75 30h-404v71c32 6.66699 74.833 12.834 128.5 18.501s94.5 8.5 122.5 8.5h48h105c59.333 -0.666992 107.833 -18.5 145.5 -53.5s56.5 -88.5 56.5 -160.5v-477
c0 -137.333 -66 -206 -198 -206h-342c-58 0 -104.667 16.5 -140 49.5s-53 82.833 -53 149.5v320c0 60.667 17 107.334 51 140.001c13.333 12.667 32.166 23.334 56.499 32.001s52.833 13 85.5 13zM381.003 89h2h2c44 0 88.333 15.667 133 47v96l-138 -13
c-34 -3.33301 -50.667 -21.333 -50 -54v-16v-17c0 -11.333 5 -21.333 15 -30s22 -13 36 -13z" />
    <glyph glyph-name="A" unicode="A" horiz-adv-x="684" 
d="M38 0l255 732h128l245 -732h-127l-56 177h-259l-57 -177h-129zM257 283h196l-96 291z" />
    <glyph glyph-name="B" unicode="B" horiz-adv-x="601" 
d="M362 732c100.667 0 164 -40.667 190 -122c7.33301 -22 11 -49.167 11 -81.5s-7.83301 -63.333 -23.5 -93s-40.167 -48.167 -73.5 -55.5c29.333 -6 54.333 -23.833 75 -53.5s31 -68.167 31 -115.5c0 -140.667 -69.333 -211 -208 -211h-296v732h294zM184 106h177
c63.333 0 95 36.667 95 110c0 33.333 -7.83301 61 -23.5 83s-39.5 33 -71.5 33h-177v-226zM184 434h173c30 0 52.667 8.33301 68 25s23 41.667 23 75s-8.83301 57 -26.5 71s-39.167 21 -64.5 21h-173v-192z" />
    <glyph glyph-name="C" unicode="C" horiz-adv-x="574" 
d="M54.5 242c-5 37.333 -7.5 80.001 -7.5 128.001s2.16699 90.333 6.5 127s12 70.834 23 102.501s25.833 57.5 44.5 77.5c38.667 42 99.5 63 182.5 63s163.5 -10 241.5 -30v-91l-8 0.5c-5.33301 0.333008 -12.5 0.833008 -21.5 1.5s-19.5 1.5 -31.5 2.5s-25 1.83301 -39 2.5
s-28.333 1.66699 -43 3c-32 1.33301 -60.5 2 -85.5 2s-45.167 -1.83301 -60.5 -5.5s-29.5 -10.834 -42.5 -21.501s-22.833 -26 -29.5 -46c-14 -41.333 -21 -105.833 -21 -193.5s11 -153.167 33 -196.5s61.667 -65 119 -65c62 0 127.333 2 196 6l34 2v-91
c-65.333 -17.333 -143 -26 -233 -26c-48 0 -86.167 5.83301 -114.5 17.5s-52 28 -71 49s-34.5 47.167 -46.5 78.5s-20.5 65.666 -25.5 102.999z" />
    <glyph glyph-name="D" unicode="D" horiz-adv-x="660" 
d="M68 0v732h297c170.667 0 256 -123 256 -369c0 -103.333 -19.667 -188.333 -59 -255c-20 -34 -46.833 -60.5 -80.5 -79.5s-72.5 -28.5 -116.5 -28.5h-297zM184 107h174c34 0 62 11.333 84 34c42 42 63 116.333 63 223c0 126.667 -22.667 206.667 -68 240
c-20.667 14.667 -47 22 -79 22h-174v-519z" />
    <glyph glyph-name="E" unicode="E" horiz-adv-x="567" 
d="M132 716c13.333 6.66699 26.001 11 38.001 13s21.667 3 29 3s58 -1.66699 152 -5s154.667 -7 182 -11v-95h-299c-24.667 0 -40 -6 -46 -18c-4 -9.33301 -6 -22 -6 -38v-145l307 -10v-95l-307 -10v-145c0.666992 -28 10 -44.333 28 -49c8.66699 -2 20 -3 34 -3h289v-94
c-21.333 -2.66699 -101.666 -7.33398 -240.999 -14.001l-69 -3h-18.5c-7 0 -15.833 0.5 -26.5 1.5s-23.334 4.33301 -38.001 10s-27.334 13.167 -38.001 22.5c-24 22.667 -36 57.667 -36 105v452c0 62.667 22 105.334 66 128.001z" />
    <glyph glyph-name="F" unicode="F" horiz-adv-x="567" 
d="M206 732c2.66699 0 51 -1.66699 145 -5s154.667 -7 182 -11v-95h-299c-24.667 0 -40 -6 -46 -18c-4 -9.33301 -6 -22 -6 -38v-145l307 -10v-95l-307 -10v-305h-116v587c0 51.333 13.833 88.333 41.5 111s60.5 34 98.5 34z" />
    <glyph glyph-name="G" unicode="G" horiz-adv-x="614" 
d="M454 49c-46.667 -36 -106.333 -54.001 -179 -54.001c-78.667 0 -135.667 26.333 -171 79c-31.333 48 -49.666 117.667 -54.999 209c-1.33301 25.333 -2 57.333 -2 96s1.66699 75.167 5 109.5s10.166 68 20.499 101s24.166 59.833 41.499 80.5c38 46.667 94.667 70 170 70
c92.667 0 183 -10.333 271 -31v-90c-0.666992 0 -6.5 0.5 -17.5 1.5l-42.5 4c-17.333 1.66699 -36 3.16699 -56 4.5c-49.333 3.33301 -94 5 -134 5c-57.333 0 -95.333 -19.667 -114 -59s-28 -109.166 -28 -209.499s9.33301 -168.5 28 -204.5c19.333 -37.333 57 -56 113 -56
c20.667 0 43.334 3.66699 68.001 11s44 15 58 23l22 12v156h-126v74c44.667 16.667 102.667 25 174 25c21.333 0 44 -1 68 -3v-403h-84z" />
    <glyph glyph-name="H" unicode="H" horiz-adv-x="637" 
d="M68 0v732h116v-324h287v324h116v-732h-116v300h-287v-300h-116z" />
    <glyph glyph-name="I" unicode="I" horiz-adv-x="234" 
d="M68 0v732h116v-732h-116z" />
    <glyph glyph-name="J" unicode="J" horiz-adv-x="357" 
d="M254 18c-24.667 -15.333 -61.168 -22.998 -109.501 -22.998s-86.5 9 -114.5 27l2 89c1.33301 0 6.16602 -0.5 14.499 -1.5s15.833 -2 22.5 -3s15.834 -1.83301 27.501 -2.5s20.5 -0.333984 26.5 0.999023l22 5c8.66699 2 15.167 5.66699 19.5 11s8.83301 11.333 13.5 18
c8.66699 13.333 13 35 13 65v528h116v-567c0 -20.667 -0.833008 -38.334 -2.5 -53.001s-6.66699 -31.5 -15 -50.5s-20.166 -33.5 -35.499 -43.5z" />
    <glyph glyph-name="K" unicode="K" horiz-adv-x="615" 
d="M68 0v732h112v-314h68l201 314h137l-234 -366l234 -366h-137l-201 312h-67v-312h-113z" />
    <glyph glyph-name="L" unicode="L" horiz-adv-x="546" 
d="M68 136l0.000976562 595.998h116v-571c0 -25.333 7 -40.666 21 -45.999c10 -4 23.667 -6 41 -6h271v-109h-303c-70.667 0 -115.334 22.667 -134.001 68c-8 18.667 -12 41.334 -12 68.001z" />
    <glyph glyph-name="M" unicode="M" horiz-adv-x="830" 
d="M47 0l58 732h161l148 -540l146 540h160l64 -732h-114l-47 528l-144 -528h-127l-148 528l-42 -528h-115z" />
    <glyph glyph-name="N" unicode="N" horiz-adv-x="678" 
d="M68 0v732h118l326 -517v517h116v-732h-116l-327 514v-514h-117z" />
    <glyph glyph-name="O" unicode="O" horiz-adv-x="672" 
d="M60 249.5c-3.33301 33 -5.00293 71.833 -5.00293 116.5s2.5 85.834 7.5 123.501s11.833 69.667 20.5 96s20 48.833 34 67.5s28.5 33.334 43.5 44.001s33.167 19 54.5 25c34.667 10 72 15 112 15s69.833 -1 89.5 -3s40.334 -6 62.001 -12s39.834 -14.333 54.501 -25
s28.834 -25.334 42.501 -44.001s24.5 -41 32.5 -67c18 -58 27 -133 27 -225c0 -134 -19 -227 -57 -279c-26 -35.333 -58 -58.666 -96 -69.999c-52 -15.333 -119 -20 -201 -14c-46.667 3.33301 -79.5 10.333 -98.5 21s-35.333 22.167 -49 34.5s-25 27.666 -34 45.999
s-17 39.666 -24 63.999s-12.167 53 -15.5 86zM173.497 438c-1.66699 -22.667 -2.5 -49.165 -2.5 -79.498s0.833008 -57.333 2.5 -81s4.33398 -44.834 8.00098 -63.501s8.83398 -34.167 15.501 -46.5s14.167 -22.666 22.5 -30.999s18.833 -14.833 31.5 -19.5
c24 -8 54.5 -12 91.5 -12s65.833 3.16699 86.5 9.5s38.167 18.833 52.5 37.5s24.166 44.5 29.499 77.5s8 71.167 8 114.5s-0.666992 77.166 -2 101.499s-4 45.666 -8 63.999s-8.16699 34.166 -12.5 47.499s-10.666 24.333 -18.999 33s-16.333 15.5 -24 20.5
s-17.834 8.83301 -30.501 11.5c-19.333 4 -40.833 6 -64.5 6s-40.167 -0.166992 -49.5 -0.5s-20 -1.5 -32 -3.5s-21.5 -4.66699 -28.5 -8s-14.833 -8.16602 -23.5 -14.499s-15.334 -14.166 -20.001 -23.499s-9.5 -20.5 -14.5 -33.5s-8.66699 -28.333 -11 -46
s-4.33301 -37.834 -6 -60.501z" />
    <glyph glyph-name="P" unicode="P" horiz-adv-x="594" 
d="M54 0l0.000976562 732h310c68.667 0 119 -20.333 151 -61c28 -35.333 42 -88.666 42 -159.999c0 -41.333 -4.33301 -77.166 -13 -107.499s-19.167 -53.333 -31.5 -69s-27.833 -27.834 -46.5 -36.501s-34.5 -13.834 -47.5 -15.501s-24.167 -2.5 -33.5 -2.5
s-18.333 0.166992 -27 0.5s-28.334 1.83301 -59.001 4.5c-81.333 8 -124.333 13 -129 15v-300h-116zM357.001 625h-187v-239h187c26.667 0 47.167 8.66699 61.5 26s21.5 50 21.5 98c-0.666992 54 -13.667 88.667 -39 104c-12 7.33301 -26.667 11 -44 11z" />
    <glyph glyph-name="Q" unicode="Q" horiz-adv-x="672" 
d="M60 249.5c-3.33301 33 -5.00098 71.833 -5.00098 116.5s2.5 85.834 7.5 123.501s11.667 69.667 20 96s19.5 48.833 33.5 67.5s28.333 33.334 43 44.001s32.667 19 54 25c34.667 10 72.167 15 112.5 15s70.333 -1 90 -3s40.334 -6 62.001 -12s39.834 -14.333 54.501 -25
s29 -25.334 43 -44.001s25 -41 33 -67c18 -58 27 -133 27 -225c0 -134 -19.333 -227 -58 -279c-26 -35.333 -58 -58.666 -96 -69.999c-52.667 -15.333 -119.667 -20 -201 -14c-46.667 3.33301 -79.5 10.333 -98.5 21s-35.333 22.167 -49 34.5s-24.834 27.666 -33.501 45.999
s-16.5 39.666 -23.5 63.999s-12.167 53 -15.5 86zM173.499 446c-1.66699 -24.667 -2.50488 -56.3291 -2.50488 -94.9961s1.83301 -72.5 5.5 -101.5s9 -53.5 16 -73.5s17.833 -35 32.5 -45c25.333 -17.333 60.333 -26 105 -26s77.334 3.16699 98.001 9.5
s38.334 18.833 53.001 37.5s24.667 44.5 30 77.5s8 70.167 8 111.5s-0.666992 73.333 -2 96s-3.16602 42.667 -5.49902 60s-6 32.666 -11 45.999s-9.83301 24.666 -14.5 33.999s-11.167 17.166 -19.5 23.499s-16.166 11.333 -23.499 15s-16.666 6.5 -27.999 8.5
c-18.667 2.66699 -39.334 4 -62.001 4s-39.167 -0.333008 -49.5 -1s-22 -2.16699 -35 -4.5s-23.167 -6 -30.5 -11s-15.166 -11.833 -23.499 -20.5s-14.833 -19.5 -19.5 -32.5s-9 -28.833 -13 -47.5s-6.83301 -40.334 -8.5 -65.001zM539.994 -158.995
c-18.667 -5.33301 -38.166 -8 -58.499 -8s-40.333 2.66699 -60 8s-37.834 13.333 -54.501 24c-36.667 22.667 -57 56.667 -61 102h70c21.333 -25.333 51 -38 89 -38c22.667 0 47.667 4.33301 75 13v-101z" />
    <glyph glyph-name="R" unicode="R" horiz-adv-x="602" 
d="M372 732c125.333 0 187.999 -75.001 187.999 -225.001c0 -94.667 -21 -157 -63 -187c-14 -10 -24.167 -16.167 -30.5 -18.5s-15.166 -5.16602 -26.499 -8.49902l144 -293h-130l-133 285l-151 14v-299h-116v732h318zM170.999 392.999h192c14 0 25 1.16699 33 3.5
s16 6.83301 24 13.5c15.333 14 23 45.167 23 93.5s-7 80.833 -21 97.5s-33.667 25 -59 25h-192v-233z" />
    <glyph glyph-name="S" unicode="S" horiz-adv-x="588" 
d="M175 729c22.667 6 42.3379 9.00098 59.0049 9.00098h57c21.333 0 58.666 -2.83301 111.999 -8.5s93.666 -11.834 120.999 -18.501v-92c-28 2 -72.333 4.33301 -133 7c-62.667 2 -107 3 -133 3s-47 -4.66699 -63 -14s-24 -32.333 -24 -69v-47
c0 -32.667 6.66699 -54.167 20 -64.5s35.666 -15.5 66.999 -15.5h126c85.333 0 138 -38 158 -114c6 -22 9 -46 9 -72v-56c0 -84.667 -29.667 -139.667 -89 -165c-30.667 -13.333 -68.667 -20 -114 -20c-109.333 0 -199.333 9.33301 -270 28v92
c73.333 -7.33301 137 -11 191 -11s86 0.666992 96 2s21 4.33301 33 9c24.667 9.33301 37 30 37 62v50c0 25.333 -5.33301 44.833 -16 58.5s-29.334 20.5 -56.001 20.5h-123c-32.667 0 -60.834 4.33301 -84.501 13s-41.834 19.167 -54.501 31.5s-22.667 27.5 -30 45.5
c-10.667 27.333 -16 59.333 -16 96v64c0 70 19.333 119 58 147c18.667 13.333 39.334 23 62.001 29z" />
    <glyph glyph-name="T" unicode="T" horiz-adv-x="588" 
d="M36 623v109h529v-109h-209v-623h-116v623h-204z" />
    <glyph glyph-name="U" unicode="U" horiz-adv-x="669" 
d="M346 -5h-14.002c-79.333 0 -132 8.33301 -158 25c-12 8 -25.833 19.833 -41.5 35.5s-27.5 34.834 -35.5 57.501c-19.333 56 -29 125 -29 207v412h116v-412c0 -68 6 -116.333 18 -145c6.66699 -16 13.834 -28.667 21.501 -38s18.5 -16.333 32.5 -21
c21.333 -8 47 -12 77 -12s52 1.33301 66 4s28.167 8.16699 42.5 16.5s25.5 20.166 33.5 35.499c18 34.667 27 88 27 160v412h117v-412c0 -82.667 -8.66699 -145 -26 -187c-9.33301 -22 -18.666 -41.167 -27.999 -57.5s-21.833 -29.333 -37.5 -39s-29.5 -17.5 -41.5 -23.5
s-27.667 -10.333 -47 -13c-28.667 -3.33301 -59.667 -5 -93 -5z" />
    <glyph glyph-name="V" unicode="V" horiz-adv-x="680" 
d="M38 732h124l182 -572l191 572h124l-251 -732h-130z" />
    <glyph glyph-name="W" unicode="W" horiz-adv-x="981" 
d="M38 732h124l181 -565l149 565h126l-57 -205l122 -364l154 569h124l-212 -732h-130l-112 327l-99 -327h-130z" />
    <glyph glyph-name="X" unicode="X" horiz-adv-x="625" 
d="M38 732h128l154 -271l156 271h128l-219 -364l214 -368h-128l-151 269l-151 -269h-128l213 368z" />
    <glyph glyph-name="Y" unicode="Y" horiz-adv-x="647" 
d="M381 0h-116v239l-227 493h126l160 -363l176 363h126l-245 -493v-239z" />
    <glyph glyph-name="Z" unicode="Z" horiz-adv-x="559" 
d="M30 0v109l357 514h-357v109h500v-109l-347 -514h347v-109h-500z" />
    <glyph glyph-name="bracketleft" unicode="[" horiz-adv-x="329" 
d="M72 -20v680.001c0 47.333 10 88 30 122c24 40 66.333 60 127 60h84v-102h-63c-19.333 0 -34.5 -7.83301 -45.5 -23.5s-16.5 -38.167 -16.5 -67.5v-666c0 -29.333 5.5 -51.833 16.5 -67.5s26.167 -23.5 45.5 -23.5h63v-102h-84c-44.667 0 -78.667 11 -102 33
s-38.333 47 -45 75c-6.66699 27.333 -10 54.666 -10 81.999z" />
    <glyph glyph-name="backslash" unicode="\" horiz-adv-x="435" 
d="M17 770h121l281 -842h-121z" />
    <glyph glyph-name="bracketright" unicode="]" horiz-adv-x="329" 
d="M17 -108h62.0029c19.333 0 34.5 7.83301 45.5 23.5s16.5 38.167 16.5 67.5v666c0 29.333 -5.5 51.833 -16.5 67.5s-26.167 23.5 -45.5 23.5h-62v102h83c61.333 0 103.666 -20 126.999 -60c20 -34 30 -74.667 30 -122v-680c0 -63.333 -14 -111.666 -42 -144.999
c-10.667 -12.667 -25.834 -23.334 -45.501 -32.001s-42.834 -13 -69.501 -13h-83v102z" />
    <glyph glyph-name="asciicircum" unicode="^" horiz-adv-x="387" 
d="M42 531l111 133h92l100 -133h-85l-63 64l-69 -64h-86z" />
    <glyph glyph-name="underscore" unicode="_" horiz-adv-x="674" 
d="M20 -1v102h634v-102h-634z" />
    <glyph glyph-name="grave" unicode="`" horiz-adv-x="242" 
d="M17 668h112l97 -137h-83z" />
    <glyph glyph-name="a" unicode="a" horiz-adv-x="519" 
d="M51 508c64 22 147.665 33 250.998 33c116.667 0 175 -54.667 175 -164v-377h-90l-26 61c-2 -4 -11.833 -11 -29.5 -21s-41.167 -20.167 -70.5 -30.5s-56.333 -15.5 -81 -15.5c-45.333 0 -81 13.333 -107 40s-39 59.334 -39 98.001v54c0 41.333 12.333 75.166 37 101.499
s64.167 39.5 118.5 39.5h126.5h45c0.666992 15.333 1 26.833 1 34.5s-0.333008 11.5 -1 11.5c0 27.333 -6.16699 46 -18.5 56s-31.166 15 -56.499 15c-49.333 0 -127.666 -3.66699 -234.999 -11v75zM149.998 146c0 -20.667 4.66699 -34.667 14 -42s23 -11 41 -11
s40.167 3.66699 66.5 11s47.833 14.666 64.5 21.999l25 11v114l-162 -12c-32.667 -3.33301 -49 -22.666 -49 -57.999v-35z" />
    <glyph glyph-name="b" unicode="b" horiz-adv-x="555" 
d="M166 785l-0.00195312 -283.001c34.667 15.333 68.5 25.333 101.5 30s59.333 7 79 7s38.834 -3.16699 57.501 -9.5s34.334 -15.666 47.001 -27.999s23.167 -26.333 31.5 -42s14.833 -34.5 19.5 -56.5c8 -39.333 12 -86 12 -140c0 -179.333 -58 -269 -174 -269
c-29.333 0 -61 6.66699 -95 20s-60 27.333 -78 42l-24 -56h-92v785h115zM316.998 96.999c26.667 0 46.833 13.334 60.5 40.001s20.5 66.667 20.5 120s-3.33301 93.166 -10 119.499s-15.5 43.833 -26.5 52.5s-25.833 13 -44.5 13c-54.667 0 -104.667 -7.33301 -150 -22v-285
c47.333 -25.333 97.333 -38 150 -38z" />
    <glyph glyph-name="c" unicode="c" horiz-adv-x="496" 
d="M51 151.5c-6 32.333 -9 72.998 -9 121.998s4.16699 91.833 12.5 128.5s20.833 64.5 37.5 83.5s34.834 32.167 54.501 39.5s43.167 11 70.5 11c89.333 0 169 -10 239 -30v-74c-74.667 4 -129.334 6 -164.001 6s-55.167 -0.333008 -61.5 -1s-13.5 -2.16699 -21.5 -4.5
s-14.167 -5.83301 -18.5 -10.5s-8.83301 -11.167 -13.5 -19.5s-8.33398 -18.833 -11.001 -31.5c-5.33301 -28.667 -8 -65.667 -8 -111s3.33301 -80.166 10 -104.499s16.5 -40.666 29.5 -48.999s32.833 -12.5 59.5 -12.5c53.333 0 111.333 2.33301 174 7l32 2v-76
c-34.667 -14.667 -70.667 -23.667 -108 -27c-12 -0.666992 -21 -1.33398 -27 -2.00098s-15.5 -1.16699 -28.5 -1.5s-21.833 -0.666016 -26.5 -0.999023s-14.167 -0.5 -28.5 -0.5h-40.5c-12.667 0 -27.167 2.16699 -43.5 6.5s-32.166 12.5 -47.499 24.5s-28 27.833 -38 47.5
s-18 45.667 -24 78z" />
    <glyph glyph-name="d" unicode="d" horiz-adv-x="555" 
d="M42 263c0 110 16.333 185 49 225c27.333 34 69 51 125 51c24 0 52.5 -3.33301 85.5 -10s62.5 -15.667 88.5 -27v283h115v-785h-92l-24 56c-18 -14.667 -43.833 -28.667 -77.5 -42s-65.5 -20 -95.5 -20c-116 0 -174 89.667 -174 269zM158 257
c0 -106.667 27 -160.001 81 -160.001c52.667 0 102.667 12.667 150 38v285c-45.333 14.667 -95.333 22 -150 22c-18 0 -32.667 -4.33301 -44 -13c-24.667 -19.333 -37 -76.666 -37 -171.999z" />
    <glyph glyph-name="e" unicode="e" horiz-adv-x="525" 
d="M81 470c20 26.667 44.998 44.334 74.998 53.001c30 8 63.833 12 101.5 12s65.334 -0.666992 83.001 -2s35.5 -4.16602 53.5 -8.49902s32.333 -10.833 43 -19.5s20.334 -20 29.001 -34c16.667 -25.333 25 -67.666 25 -126.999c0 -86 -48 -129 -144 -129h-189
c0 -52 8.66699 -85.667 26 -101c9.33301 -8.66699 20.166 -14.334 32.499 -17.001s47.833 -4 106.5 -4s111.334 3.66699 158.001 11v-81c-54.667 -18.667 -142.667 -28 -264 -28c-66.667 0 -112.5 20.167 -137.5 60.5s-37.5 110.666 -37.5 210.999s13 168.166 39 203.499z
M374.998 348c0 40 -5.49902 65.332 -16.499 75.999s-37.167 16 -78.5 16c-52.667 0 -84.334 -6 -95.001 -18c-14 -15.333 -22 -33.166 -24 -53.499s-3 -41.5 -3 -63.5h166c34 0 51 14.333 51 43z" />
    <glyph glyph-name="f" unicode="f" horiz-adv-x="402" 
d="M17 436v77.999l88 17v99c0 104 48 156 144 156c47.333 0 93 -8 137 -24v-71l-106 1c-20.667 0.666992 -36 -3.66602 -46 -12.999c-7.33301 -6 -11.333 -15.833 -12 -29.5s-1 -27.167 -1 -40.5v-78h131v-95h-131v-436h-116v436h-88z" />
    <glyph glyph-name="g" unicode="g" horiz-adv-x="558" 
d="M52.5 50.5c-8.33301 17 -12.498 35.8311 -12.498 56.498s5.16699 39.5 15.5 56.5s25.5 28.167 45.5 33.5c-20.667 13.333 -35.667 33.5 -45 60.5s-14 55.833 -14 86.5c0 62.667 15.5 109.834 46.5 141.501s75.5 47.5 133.5 47.5h319v-73l-67 -18l5.5 -11
c3 -6 5 -10.167 6 -12.5s2.5 -6.83301 4.5 -13.5s3.66699 -13 5 -19c2 -16.667 3 -33.5 3 -50.5s-1.33301 -33.167 -4 -48.5s-7.83398 -31.666 -15.501 -48.999s-17.834 -32.333 -30.501 -45c-28.667 -29.333 -70.334 -44 -125.001 -44h-135c-27.333 0 -41 -8.66699 -41 -26
c0 -19.333 13.667 -29 41 -29h181c46 0 82 -13 108 -39s39 -63 39 -111v-60c0 -76 -31.333 -124.333 -94 -145c-19.333 -6 -41.666 -9 -66.999 -9h-150c-48.667 0 -88 13 -118 39s-45 64.333 -45 115v74l44 54c-14 8.66699 -25.167 21.5 -33.5 38.5zM201.002 -5.00195
c-14 0 -28.334 1.66602 -43.001 4.99902v-105c0 -27.333 6.5 -45.166 19.5 -53.499s30.167 -12.5 51.5 -12.5h108c24.667 0 41.334 5.5 50.001 16.5s13 26.833 13 47.5v46c0 24.667 -7.33301 41 -22 49c-8.66699 4.66699 -20.667 7 -36 7h-141zM158.001 343.997
c0 -64 25 -96 75 -96h71c29.333 0 49.666 8.83301 60.999 26.5s17 41.334 17 71.001s-5.83301 52 -17.5 67s-32.167 22.5 -61.5 22.5h-67c-31.333 0 -52.666 -9.66699 -63.999 -29c-9.33301 -16.667 -14 -37.334 -14 -62.001z" />
    <glyph glyph-name="h" unicode="h" 
d="M167 783l0.00488281 -310.998c1.33301 1.33301 8.16602 6.16602 20.499 14.499s24.666 15.833 36.999 22.5s29.666 13.5 51.999 20.5s45.166 10.5 68.499 10.5c55.333 0 96 -16.833 122 -50.5s39 -76.834 39 -129.501v-360h-116v361c0 54 -23.333 81 -70 81
c-30.667 0 -56.334 -3.83301 -77.001 -11.5s-46 -20.5 -76 -38.5v-392h-116v783h116z" />
    <glyph glyph-name="i" unicode="i" horiz-adv-x="216" 
d="M151 714c15.333 0 23.001 -8.66699 23.001 -26v-76c0 -15.333 -7.66699 -23 -23 -23h-85c-6.66699 0 -12.334 2.16699 -17.001 6.5s-7 9.83301 -7 16.5v76c0 17.333 8 26 24 26h85zM49.001 0v531h116v-531h-116z" />
    <glyph glyph-name="j" unicode="j" horiz-adv-x="233" 
d="M51 612l-0.000976562 76c0 17.333 8 26 24 26h85c7.33301 0 13 -2.5 17 -7.5s6 -11.167 6 -18.5v-76c0 -15.333 -7.66699 -23 -23 -23h-85c-7.33301 0 -13.166 2.16699 -17.499 6.5s-6.5 9.83301 -6.5 16.5zM58.999 -270v801h116v-535v-20
c0 -109.333 -11 -191.333 -33 -246h-83z" />
    <glyph glyph-name="k" unicode="k" horiz-adv-x="536" 
d="M51 0v782h116v-433h33l170 182h150l-213 -229l213 -302h-139l-181 254h-33v-254h-116z" />
    <glyph glyph-name="l" unicode="l" horiz-adv-x="308" 
d="M51 189v594.001h116v-580c0 -37.333 4 -63.333 12 -78s20.667 -24.667 38 -30c45.333 -14 70.333 -21 75 -21v-74h-106c-44 0 -77.5 14.667 -100.5 44s-34.5 77.666 -34.5 144.999z" />
    <glyph glyph-name="m" unicode="m" horiz-adv-x="883" 
d="M502 393v-34.999v-358h-116v358c0 26 -6.5 46.167 -19.5 60.5s-32.167 21.5 -57.5 21.5s-47.833 -3.66699 -67.5 -11s-44.5 -20.333 -74.5 -39v-390h-116v531h90l26 -60c1.33301 1.33301 6.83301 5.16602 16.5 11.499l17.5 11.5c2 1.33301 7.33301 4.5 16 9.5
s14.667 8.33301 18 10s9 4.33398 17 8.00098s14.667 6 20 7s12 2.5 20 4.5c12.667 3.33301 32.334 5 59.001 5s52.334 -6.33301 77.001 -19s42.667 -30.334 54 -53.001c62.667 48 129 72 199 72c52.667 0 92.667 -16.5 120 -49.5s41 -76.833 41 -131.5v-357h-116v358
c0 26 -6.33301 46.167 -19 60.5s-29.834 21.5 -51.501 21.5s-40.834 -1.66699 -57.501 -5c-34 -5.33301 -66 -19.333 -96 -42z" />
    <glyph glyph-name="n" unicode="n" 
d="M390 361c0 54 -23.3311 81.001 -69.998 81.001c-30.667 0 -56.334 -3.83301 -77.001 -11.5s-46 -20.5 -76 -38.5v-392h-116v531h90l26 -59l21.5 14.5c12.333 8.33301 24.666 16 36.999 23s29.5 13.833 51.5 20.5s44.667 10 68 10c55.333 0 96 -16.833 122 -50.5
s39 -76.834 39 -129.501v-360h-116v361z" />
    <glyph glyph-name="o" unicode="o" horiz-adv-x="563" 
d="M54 136.5c-8 32.333 -12.001 78.833 -12.001 139.5s7.83301 111 23.5 151s40.334 68.167 74.001 84.5s81.167 24.5 142.5 24.5c90.667 0 153.167 -20 187.5 -60s51.5 -111.167 51.5 -213.5s-17.167 -172.5 -51.5 -210.5s-96.833 -57 -187.5 -57
c-46 0 -84.167 4.66699 -114.5 14s-54.833 24.833 -73.5 46.5s-32 48.667 -40 81zM160.499 328.5c-1.66699 -19 -2.49902 -41.835 -2.49902 -68.502s1 -49 3 -67s5.5 -33 10.5 -45s10.5 -21.667 16.5 -29s14 -13 24 -17c16.667 -5.33301 37.5 -8 62.5 -8
s43.167 0.833008 54.5 2.5s22.666 5.33398 33.999 11.001s19.666 14.5 24.999 26.5c11.333 26.667 17 61 17 103s-0.833008 72.5 -2.5 91.5s-4.66699 35.333 -9 49s-9.16602 24.334 -14.499 32.001s-13 13.5 -23 17.5c-16 6.66699 -36.667 10.167 -62 10.5
s-43.333 -0.166992 -54 -1.5s-21.167 -4.16602 -31.5 -8.49902s-18.333 -10.333 -24 -18s-10.667 -18.334 -15 -32.001s-7.33301 -30 -9 -49z" />
    <glyph glyph-name="p" unicode="p" horiz-adv-x="555" 
d="M340 537c116 0 174 -89.668 174 -269.001c0 -106 -16.333 -180 -49 -222c-28 -36 -69.667 -54 -125 -54c-24 0 -52.667 3.33301 -86 10s-62.666 15.334 -87.999 26.001v-298h-115v801h92l23 -55c18 14 44.167 27.667 78.5 41s66.166 20 95.499 20zM317 88.999
c18.667 0 33.334 4.33301 44.001 13c24.667 19.333 37 73.333 37 162c0 60 -6.83301 103.333 -20.5 130s-33.834 40 -60.501 40c-52.667 0 -103 -12.667 -151 -38v-285c46 -14.667 96.333 -22 151 -22z" />
    <glyph glyph-name="q" unicode="q" horiz-adv-x="555" 
d="M42 268c0 179.333 63.667 269 191 269c92.667 0 183 -9.33301 271 -28v-779h-116v299c-47.333 -26 -99 -39 -155 -39c-74.667 0 -125.667 25.333 -153 76c-25.333 46 -38 113.333 -38 202zM159 305c-0.666992 -9.33301 -1.00098 -21.168 -1.00098 -35.501v-31
c0 -6.33301 0.333008 -16.166 1 -29.499s1.5 -23 2.5 -29s2.5 -14.333 4.5 -25s4.5 -18.5 7.5 -23.5s6.83301 -11 11.5 -18s10 -11.833 16 -14.5c15.333 -8 34 -12 56 -12c40.667 0 84.334 7.66699 131.001 23v332h-138c-29.333 0 -50.333 -10.333 -63 -31
c-14 -22 -22 -42.833 -24 -62.5s-3.33301 -34.167 -4 -43.5z" />
    <glyph glyph-name="r" unicode="r" horiz-adv-x="420" 
d="M269 525c22 8 46.666 12 73.999 12s46.333 -2.33301 57 -7v-113c-17.333 2.66699 -42.666 4 -75.999 4s-61.666 -4.16699 -84.999 -12.5s-47.333 -23.833 -72 -46.5v-362h-116v531h94l22 -67c19.333 15.333 35.666 27.333 48.999 36s31 17 53 25z" />
    <glyph glyph-name="s" unicode="s" horiz-adv-x="507" 
d="M172 536c51.333 0 105 -1.99805 161 -5.99805s94 -9.66699 114 -17v-77h-248c-21.333 0 -34.833 -3.33301 -40.5 -10s-8.5 -18.334 -8.5 -35.001v-32c0 -18.667 3.83301 -30.334 11.5 -35.001s20.167 -7 37.5 -7h138c46 0 80.333 -12.333 103 -37s34 -57 34 -97v-53
c0 -90 -43.333 -135 -130 -135c-50.667 0 -107.167 2.33301 -169.5 7s-101.833 10.667 -118.5 18v76h259c28.667 0 43 13.667 43 41v34c0 14 -3.16699 24.5 -9.5 31.5s-17.5 10.5 -33.5 10.5h-136c-49.333 0 -85.833 10.5 -109.5 31.5s-35.5 56.5 -35.5 106.5v46
c0 92.667 46 139 138 139z" />
    <glyph glyph-name="t" unicode="t" horiz-adv-x="380" 
d="M223 680v-148h132v-95h-132v-233c0 -37.333 4.16699 -63.5 12.5 -78.5s20.833 -25.167 37.5 -30.5c45.333 -14 70.333 -21 75 -21v-74h-110c-87.333 -0 -131 63.333 -131 190v247h-90v70l90 25l22 148h94z" />
    <glyph glyph-name="u" unicode="u" 
d="M42 172v359h116v-361c0 -27.333 6.33301 -47.5 19 -60.5s32 -19.5 58 -19.5s49.333 3.66699 70 11s46 20.333 76 39v391h116v-531h-90l-26 58c-5.33301 -2.66699 -14 -7.83398 -26 -15.501s-21 -13.167 -27 -16.5s-14.667 -7.66602 -26 -12.999s-21.333 -9.33301 -30 -12
c-22.667 -6.66699 -45.667 -10 -69 -10c-55.333 0 -96 16.833 -122 50.5s-39 77.167 -39 130.5z" />
    <glyph glyph-name="v" unicode="v" horiz-adv-x="554" 
d="M17 531h125l134 -387l137 387h124l-200 -531h-126z" />
    <glyph glyph-name="w" unicode="w" horiz-adv-x="817" 
d="M17 531h125l124 -387l111 387h118l-43 -153l98 -234l126 387h125l-183 -531h-127l-93 217l-70 -217h-131z" />
    <glyph glyph-name="x" unicode="x" horiz-adv-x="554" 
d="M20 0l187 266l-186 265h141l114 -175l117 175h141l-188 -268l180 -263h-133l-116 174l-115 -174h-142z" />
    <glyph glyph-name="y" unicode="y" horiz-adv-x="569" 
d="M18 531l123 0.000976562l105 -387c4 -14.667 9.33301 -24.334 16 -29.001s12.167 -7.66699 16.5 -9s8 -2 11 -2s6.16699 0.166992 9.5 0.5l5 0.5l123 426h123l-202 -699l-74 -102h-80l82 270c-72.667 0 -121 42 -145 126z" />
    <glyph glyph-name="z" unicode="z" horiz-adv-x="467" 
d="M25 429v102h417v-102l-248 -326h248v-102h-402v101l257 327h-272z" />
    <glyph glyph-name="braceleft" unicode="{" horiz-adv-x="320" 
d="M211 -14c0 -65.333 28.668 -98 86.001 -98h7v-98c-74 0 -127.333 15.667 -160 47s-49 73 -49 125v273c0 18.667 -7 32.167 -21 40.5s-26.167 12.5 -36.5 12.5h-20.5v91c31.333 3.33301 50.666 7.33301 57.999 12c14 11.333 21 25 21 41v224
c0 55.333 17.5 100.166 52.5 134.499s86.833 51.5 155.5 51.5v-102c-30.667 0 -53.667 -8 -69 -24s-23 -45.333 -23 -88v-201c0 -27.333 -8.16699 -48.666 -24.5 -63.999s-38.833 -25 -67.5 -29c27.333 -4.66699 49.333 -15 66 -31s25 -35.667 25 -59v-258z" />
    <glyph glyph-name="bar" unicode="|" horiz-adv-x="246" 
d="M73 -72v842h102v-842h-102z" />
    <glyph glyph-name="braceright" unicode="}" horiz-adv-x="320" 
d="M23 -112c57.333 0 85.999 33 85.999 99v257c0 23.333 8.33301 43 25 59s38.667 26.333 66 31c-28 4 -50.333 13.667 -67 29s-25 36.666 -25 63.999v201c0 42.667 -7.5 72 -22.5 88s-37.833 24 -68.5 24v102c68.667 0 120.334 -17.167 155.001 -51.5
s52 -79.166 52 -134.499v-224c0 -28.667 19.333 -45.667 58 -51c5.33301 0 12.666 -0.666992 21.999 -2v-91h-20.5c-10.333 0 -22.666 -4.16699 -36.999 -12.5s-21.5 -21.833 -21.5 -40.5v-273c0 -52 -16.167 -93.667 -48.5 -125s-85.5 -47 -159.5 -47v98h6z" />
    <glyph glyph-name="asciitilde" unicode="~" horiz-adv-x="426" 
d="M142 649c6.66699 1.33301 15.332 2 25.999 2s26.667 -5.83301 48 -17.5s38.333 -17.5 51 -17.5h10c6 0 15.333 2.33301 28 7c15.333 6 33.666 17 54.999 33l24 -53c-1.33301 -1.33301 -5.5 -5.83301 -12.5 -13.5s-14.333 -15.167 -22 -22.5s-19 -15.166 -34 -23.499
s-30.167 -12.5 -45.5 -12.5s-34.666 5.83301 -57.999 17.5s-40.333 17.5 -51 17.5s-20.5 -1.16699 -29.5 -3.5s-16 -4.66602 -21 -6.99902s-12.5 -6.33301 -22.5 -12s-17.667 -9.83398 -23 -12.501l-23 50l13 13c6.66699 6.66699 11.167 11 13.5 13l12.5 11
c6 5.33301 10.667 9 14 11l14 8.5c6 3.66699 11.333 6.16699 16 7.5s10.334 2.66602 17.001 3.99902z" />
    <glyph glyph-name="exclamdown" unicode="&#xa1;" horiz-adv-x="273" 
d="M75 363l0.000976562 75c0 14 8 21.667 24 23h71c9.33301 -0.666992 15.666 -4 18.999 -10s5 -11.333 5 -16v-71c-0.666992 -18 -8 -27 -22 -27h-73c-16 0 -24 8.66699 -24 26zM74.001 -270l11 532h100l12 -532h-123z" />
    <glyph glyph-name="cent" unicode="&#xa2;" horiz-adv-x="488" 
d="M43 150c-6 32.667 -9.00098 74 -9.00098 124s4.33301 93.667 13 131c14.667 65.333 46.667 106.333 96 123c18.667 6 35.334 9 50.001 9h26v97h77v-101c57.333 -6 108 -15 152 -27v-74c-74.667 4.66699 -130.5 7 -167.5 7s-59.667 -0.666992 -68 -2
s-17.166 -5.16602 -26.499 -11.499s-16.333 -15.833 -21 -28.5c-10 -28.667 -15 -70 -15 -124s3.16699 -93.333 9.5 -118s16.166 -41.334 29.499 -50.001s33 -13 59 -13c54 0 112.333 2.66699 175 8l31 2v-76c-43.333 -18 -96.333 -28.333 -159 -31v-91h-77v90h-18.5
c-11.667 0 -26 2 -43 6s-33.5 11.833 -49.5 23.5s-29.167 27.5 -39.5 47.5s-18.5 46.333 -24.5 79z" />
    <glyph glyph-name="sterling" unicode="&#xa3;" horiz-adv-x="587" 
d="M42 0l0.000976562 91l69 18v211h-69v62l69 21v88c0 90 16.667 152.333 50 187c30 30.667 75 48 135 52c16.667 1.33301 35 2 55 2c37.333 0 90.666 -4 159.999 -12l34 -4v-92h-190c-56.667 0 -90.667 -5.66699 -102 -17c-13.333 -14 -21 -30.5 -23 -49.5
s-3 -38.5 -3 -58.5v-97l239 -16v-66h-239v-211h317v-109h-502z" />
    <glyph glyph-name="currency" unicode="&#xa4;" horiz-adv-x="451" 
d="M132 442c27.333 19.333 57.833 28.998 91.5 28.998s64.5 -10 92.5 -30l47 47l44 -44l-48 -49c15.333 -25.333 23 -54.166 23 -86.499s-9.66699 -62.166 -29 -89.499l50 -50l-45 -45l-52 50c-25.333 -17.333 -53.333 -26 -84 -26s-59 9.33301 -85 28l-47 -48l-45 47l47 46
c-18 28 -27 58 -27 90s8 60.667 24 86l-46 45l46 44zM135 312.998c0 -10.667 1.33398 -20.668 4.00098 -30.001s6.66699 -17.833 12 -25.5s11.666 -14.5 18.999 -20.5c15.333 -12 32 -18 50 -18s34 4.33301 48 13c29.333 18 44 44.667 44 80
c0 24.667 -8.66699 45.5 -26 62.5s-38.333 25.5 -63 25.5s-45.5 -8.66699 -62.5 -26s-25.5 -37.666 -25.5 -60.999z" />
    <glyph glyph-name="yen" unicode="&#xa5;" horiz-adv-x="621" 
d="M519 332v-74h-159v-41h159v-73h-159v-144h-116v144h-152v73h152v41h-152v74h130l-205 400h126l160 -333l173 333h129l-222 -400h136z" />
    <glyph glyph-name="brokenbar" unicode="&#xa6;" horiz-adv-x="247" 
d="M73 -72v328h102v-328h-102zM73 429v341h102v-341h-102z" />
    <glyph glyph-name="section" unicode="&#xa7;" horiz-adv-x="545" 
d="M47 590l0.000976562 55.999c0 46.667 12.333 81.334 37 104.001s56 34 94 34s88.833 -2.16699 152.5 -6.5s107.167 -8.5 130.5 -12.5v-83h-253c-15.333 0 -26.666 -3 -33.999 -9s-11 -16.667 -11 -32v-48c0 -26 15.333 -39 46 -39h143c54 0 92.167 -10.5 114.5 -31.5
s33.166 -52.5 32.499 -94.5v-45c0 -58.667 -17.333 -92.334 -52 -101.001c34 -5.33301 51 -36 51 -92v-62c0 -56 -15 -93.333 -45 -112c-26 -16 -57.167 -24 -93.5 -24s-86 2.16699 -149 6.5s-105.167 8.5 -126.5 12.5v83h247c17.333 0 30.166 2.33301 38.499 7
s12.5 14.334 12.5 29.001v52c0 19.333 -6.66699 31 -20 35c-6 2 -15 3 -27 3h-144c-48 0 -83.833 8.66699 -107.5 26s-35.5 49.333 -35.5 96v45c0 44.667 8 74.667 24 90c8 7.33301 18 13 30 17c-36.667 14.667 -55 46.667 -55 96zM163.001 360.999
c0 -18 3.66602 -29.667 10.999 -35s20 -8 38 -8h119c22.667 0 36.834 3.33301 42.501 10s8.5 18 8.5 34v47c0 16 -1.66699 27 -5 33c-6.66699 9.33301 -22 14 -46 14h-119c-20 0 -33.167 -3.33301 -39.5 -10s-9.5 -19.667 -9.5 -39v-46z" />
    <glyph glyph-name="dieresis" unicode="&#xa8;" horiz-adv-x="451" 
d="M42 582c0 15.333 5.5 28.333 16.5 39s24.333 16 40 16s28.834 -5.33301 39.501 -16s16 -23.667 16 -39s-5.33301 -28.5 -16 -39.5s-23.834 -16.5 -39.501 -16.5s-29 5.5 -40 16.5s-16.5 24.167 -16.5 39.5zM297 582c0 15.333 5.5 28.333 16.5 39s24.333 16 40 16
s28.834 -5.33301 39.501 -16s16 -23.667 16 -39s-5.33301 -28.5 -16 -39.5s-23.834 -16.5 -39.501 -16.5s-29 5.5 -40 16.5s-16.5 24.167 -16.5 39.5z" />
    <glyph glyph-name="copyright" unicode="&#xa9;" horiz-adv-x="804" 
d="M47 368c0 242.667 81.333 363.999 244 363.999h246c135.333 0 208.333 -98 219 -294c1.33301 -21.333 2 -44.666 2 -69.999c0 -152.667 -32.333 -259.334 -97 -320.001c-34 -32 -75.333 -48 -124 -48h-246c-60.667 0 -109.667 19.667 -147 59
c-49.333 52.667 -80 127.334 -92 224.001c-3.33301 28 -5 56.333 -5 85zM131.5 446.999c-2.33301 -24 -3.5 -56.1689 -3.5 -96.502s5.5 -81.666 16.5 -123.999s29.167 -77.666 54.5 -105.999s56 -42.5 92 -42.5h242c59.333 0.666992 100.666 42.334 123.999 125.001
c13.333 44 20 99 20 165c0 88.667 -7 151.667 -21 189c-16.667 43.333 -38 71.666 -64 84.999c-16 8 -34.333 12 -55 12h-246c-38 0 -68.333 -9.66699 -91 -29c-19.333 -16.667 -32.833 -35.167 -40.5 -55.5s-13.667 -39.833 -18 -58.5s-7.66602 -40 -9.99902 -64z
M226 364.997c0 145.333 48 218.001 144 218.001c22 0 51 -2.33301 87 -7s67.667 -10.334 95 -17.001v-66c-56 8 -112 12 -168 12c-26.667 0 -46 -11.167 -58 -33.5s-18 -57.5 -18 -105.5s5.66699 -83.5 17 -106.5s32 -34.5 62 -34.5c48.667 0 105.667 5.33301 171 16v-66
c-52 -18.667 -113.667 -28 -185 -28s-116.333 36.667 -135 110c-8 29.333 -12 65.333 -12 108z" />
    <glyph glyph-name="ordfeminine" unicode="&#xaa;" horiz-adv-x="365" 
d="M25 264v66h315v-66h-315zM37 713c64.667 17.333 121.667 26.0039 171 26.0039c87.333 0 131 -36.667 131 -110v-251h-67l-24 46c-1.33301 -2.66699 -7.5 -7.83398 -18.5 -15.501s-26 -15.334 -45 -23.001s-32.833 -11.5 -41.5 -11.5c-51.333 0 -86.333 15 -105 45
c-8.66699 14 -13 29.333 -13 46v39c0 27.333 9 49.666 27 66.999s45.5 26 82.5 26h84.5h29c0.666992 14 0.666992 21.333 0 22c0 17.333 -4.5 29 -13.5 35s-22.833 9 -41.5 9s-37.167 -0.333008 -55.5 -1s-36.833 -1.83398 -55.5 -3.50098s-33.667 -2.5 -45 -2.5v57z
M113 482.004c0 -22.667 14.332 -34 42.999 -34s59.334 9.33301 92.001 28v68l-100 -7c-23.333 -2.66699 -35 -14.667 -35 -36v-19z" />
    <glyph glyph-name="guillemotleft" unicode="&#xab;" horiz-adv-x="569" 
d="M42 354l206 203l68 -67l-139 -136l143 -140l-67 -68zM250 354l206 203l67 -67l-139 -136l143 -140l-66 -68z" />
    <glyph glyph-name="logicalnot" unicode="&#xac;" horiz-adv-x="506" 
d="M40 246v98h426v-185h-98v87h-328z" />
    <glyph glyph-name="uni00AD" unicode="&#xad;" horiz-adv-x="354" 
d="M20 239v102h314v-102h-314z" />
    <glyph glyph-name="registered" unicode="&#xae;" horiz-adv-x="804" 
d="M47 368c0 242.667 81.333 363.999 244 363.999h246c135.333 0 208.333 -98 219 -294c1.33301 -21.333 2 -44.666 2 -69.999c0 -152.667 -32.333 -259.334 -97 -320.001c-34 -32 -75.333 -48 -124 -48h-246c-60.667 0 -109.667 19.667 -147 59
c-49.333 52.667 -80 127.334 -92 224.001c-3.33301 28 -5 56.333 -5 85zM131.5 446.999c-2.33301 -24 -3.5 -56.1689 -3.5 -96.502s5.5 -81.666 16.5 -123.999s29.167 -77.666 54.5 -105.999s56 -42.5 92 -42.5h242c59.333 0.666992 100.666 42.334 123.999 125.001
c13.333 44 20 99 20 165c0 88.667 -7 151.667 -21 189c-16.667 43.333 -38 71.666 -64 84.999c-16 8 -34.333 12 -55 12h-246c-38 0 -68.333 -9.66699 -91 -29c-19.333 -16.667 -32.833 -35.167 -40.5 -55.5s-13.667 -39.833 -18 -58.5s-7.66602 -40 -9.99902 -64z
M253 152.997l0.000976562 427h180c89.333 0 134 -44 134 -132c0 -48.667 -9.66699 -82 -29 -100c-14.667 -14.667 -33.334 -24.667 -56.001 -30l89 -165h-89l-86 163l-62 12v-175h-81zM334.001 385.997h91c26 0 42.667 3.66699 50 11s11 23.5 11 48.5s-5 40.667 -15 47
s-25.333 9.5 -46 9.5h-91v-116z" />
    <glyph glyph-name="macron" unicode="&#xaf;" horiz-adv-x="376" 
d="M42 531v73h292v-73h-292z" />
    <glyph glyph-name="degree" unicode="&#xb0;" horiz-adv-x="287" 
d="M42 632c0 18.667 4.66699 35.834 14 51.501s21.833 28.167 37.5 37.5s32.667 14 51 14s35.166 -4.66699 50.499 -14s27.5 -21.833 36.5 -37.5s13.5 -32.834 13.5 -51.501s-4.5 -35.834 -13.5 -51.501s-21.167 -28 -36.5 -37s-32.166 -13.5 -50.499 -13.5
s-35.333 4.5 -51 13.5s-28.167 21.333 -37.5 37s-14 32.834 -14 51.501zM96 632c0 -13.333 4.66699 -24.5 14 -33.5s20.666 -13.5 33.999 -13.5s24.666 4.5 33.999 13.5s14 20.167 14 33.5s-4.66699 24.666 -14 33.999s-20.666 14 -33.999 14s-24.666 -4.66699 -33.999 -14
s-14 -20.666 -14 -33.999z" />
    <glyph glyph-name="plusminus" unicode="&#xb1;" horiz-adv-x="510" 
d="M48 76v102h416v-102h-416zM48 384v102h156v156h102v-156h158v-102h-158v-158h-102v158h-156z" />
    <glyph glyph-name="twosuperior" unicode="&#xb2;" horiz-adv-x="395" 
d="M27 788c-0.666992 0 -0.999023 6.66699 -0.999023 20v32l1 17c74.667 11.333 137.667 17 189 17s88.166 -12.667 110.499 -38s33.5 -60 33.5 -104c0 -73.333 -60.333 -159.333 -181 -258h180v-86h-329v82l24.5 18l31 23l33 25.5c15 11.667 27.167 21.667 36.5 30l33.5 30
c13 11.667 23.5 22.5 31.5 32.5s16 20.667 24 32c15.333 22 23 44 23 66s-5.66699 37.667 -17 47s-31.333 14 -60 14h-163z" />
    <glyph glyph-name="threesuperior" unicode="&#xb3;" horiz-adv-x="407" 
d="M25 850c36.667 13.333 89.666 20.002 158.999 20.002c14 0 30 -0.333008 48 -1c40.667 0 71.667 -11.167 93 -33.5s32 -50.833 32 -85.5v-32c0 -48 -18 -78.333 -54 -91c36 -16.667 54 -49 54 -97v-25c0 -80.667 -43.333 -121 -130 -121h-38
c-71.333 0 -124.666 6.33301 -159.999 19l1 66l166 1c26.667 0 45 3.33301 55 10s15 19 15 37v17c0 34 -22 51.667 -66 53l-130 5v72l130 7c23.333 0.666992 38.5 3.66699 45.5 9s11.833 9.66602 14.5 12.999c4.66699 7.33301 7 16.666 7 27.999v15c0 32 -22.333 48 -67 48
h-175v66z" />
    <glyph glyph-name="acute" unicode="&#xb4;" horiz-adv-x="242" 
d="M17 531l96 137h113l-126 -137h-83z" />
    <glyph glyph-name="uni00B5" unicode="&#xb5;" horiz-adv-x="590" 
d="M192 531l0.00292969 -361.001c0 -27.333 6.33301 -47.5 19 -60.5s29.667 -19.5 51 -19.5s40.666 2 57.999 6c26 6 57.667 20.667 95 44v391h116v-531h-90l-26 58c-3.33301 -1.33301 -10 -5.16602 -20 -11.499s-17 -10.5 -21 -12.5s-10.333 -5.5 -19 -10.5
s-15.834 -8.5 -21.501 -10.5s-12.834 -4.33301 -21.501 -7c-18.667 -6.66699 -38.667 -10 -60 -10s-41.333 4 -60 12v-278h-116v442v359h116z" />
    <glyph glyph-name="paragraph" unicode="&#xb6;" horiz-adv-x="578" 
d="M34 499l-0.00195312 93.001c0 45.333 14.833 80 44.5 104s66.834 36 111.501 36h372v-94h-59v-638h-91v640h-77v-910h-91v642c-0.666992 0 -3.66699 -1.66699 -9 -5c-13.333 -8.66699 -28.333 -12.667 -45 -12c-51.333 0 -90.166 13.667 -116.499 41
s-39.5 61.666 -39.5 102.999zM124.998 507.001c0 -40.667 22.667 -61 68 -61h51v194h-51c-17.333 0 -31.333 -3 -42 -9s-17.667 -13.167 -21 -21.5s-5 -18.5 -5 -30.5v-72z" />
    <glyph glyph-name="periodcentered" unicode="&#xb7;" horiz-adv-x="266" 
d="M72 345v78c0 16.667 8 25 24 25h74c16.667 0 25 -8.33301 25 -25v-78c0 -15.333 -8.33301 -23 -25 -23h-74c-10 0 -16.5 2.66699 -19.5 8s-4.5 10.333 -4.5 15z" />
    <glyph glyph-name="cedilla" unicode="&#xb8;" horiz-adv-x="247" 
d="M120 -37h84.998c0 -52 -7.66699 -88.167 -23 -108.5s-43.666 -30.5 -84.999 -30.5h-55v51l48 15c16.667 7.33301 26.334 20.333 29.001 39c0.666992 8 1 19.333 1 34z" />
    <glyph glyph-name="onesuperior" unicode="&#xb9;" horiz-adv-x="270" 
d="M216 868v-480h-92v392l-110 -27v60l111 55h91z" />
    <glyph glyph-name="ordmasculine" unicode="&#xba;" horiz-adv-x="392" 
d="M62.5 413.5c-25 26.333 -37.499 73.501 -37.499 141.501s12.333 115.167 37 141.5s69.667 39.5 135 39.5s110.166 -13.333 134.499 -40s36.5 -75.334 36.5 -146.001c0 -44 -5.16699 -78.5 -15.5 -103.5s-27.833 -43.333 -52.5 -55s-59 -17.5 -103 -17.5
c-64.667 0 -109.5 13.167 -134.5 39.5zM38.001 266.001v65h317v-65h-317zM120.501 610.501c-2.33301 -14.333 -3.50195 -33.6689 -3.50195 -58.002s1.5 -43.333 4.5 -57s8.5 -23.667 16.5 -30s16 -10.166 24 -11.499s20 -2 36 -2s27.833 0.666992 35.5 2s15.334 5 23.001 11
s12.834 15.667 15.501 29c2.66699 15.333 4 35.333 4 60s-1.16699 43.834 -3.5 57.501s-7.33301 24 -15 31s-15.5 11.333 -23.5 13s-20.333 2.5 -37 2.5s-29.167 -0.833008 -37.5 -2.5s-16.333 -6 -24 -13s-12.667 -17.667 -15 -32z" />
    <glyph glyph-name="guillemotright" unicode="&#xbb;" horiz-adv-x="569" 
d="M42 214l143 140l-139 136l68 67l206 -203l-211 -208zM250 214l142 140l-139 136l68 67l206 -203l-211 -208z" />
    <glyph glyph-name="onequarter" unicode="&#xbc;" horiz-adv-x="920" 
d="M216 736v-480h-92v392l-110 -27v59l111 56h91zM192 0l389 745h88l-389 -745h-88zM760 195v109l25 49h66v-159h52v-72l-52 -17v-105h-91v105h-236l-22 39l185 335h98l-154 -284h129z" />
    <glyph glyph-name="onehalf" unicode="&#xbd;" horiz-adv-x="984" 
d="M216 736v-480h-92v392l-110 -27v59l111 56h91zM185 0l389 745h88l-389 -745h-88zM615 400c-0.666992 0 -1 6.66309 -1 19.9961s0.333008 24 1 32v17c75.333 11.333 138.833 17 190.5 17s88.667 -12.667 111 -38s33.5 -60 33.5 -104c0 -36.667 -12.667 -73 -38 -109
c-27.333 -38.667 -51.666 -67.667 -72.999 -87c-28 -25.333 -51.667 -46 -71 -62h182v-86h-332v82c3.33301 2.66699 10.666 8.16699 21.999 16.5l27.5 20.5l30 22.5c13 9.66699 23.833 18.334 32.5 26.001l31 27.5c12 10.667 22.167 20.334 30.5 29.001s17 18.5 26 29.5
s16.167 21.167 21.5 30.5c12 20.667 18 38.834 18 54.501s-2.33301 27.834 -7 36.501c-10 16.667 -33.333 25 -70 25h-165z" />
    <glyph glyph-name="threequarters" unicode="&#xbe;" horiz-adv-x="1035" 
d="M25 718c36 12.667 87.334 18.9971 154.001 18.9971h60.5c23 0 44.167 -5.33301 63.5 -16c37.333 -21.333 56 -56 56 -104v-31c0 -48 -18 -78.667 -54 -92c36 -16 54 -48.333 54 -97v-25c0 -80.667 -43.333 -121 -130 -121h-25h-25c-2.66699 0 -10 0.166992 -22 0.5
s-20 0.666016 -24 0.999023s-10.833 0.833008 -20.5 1.5s-17.167 1.5 -22.5 2.5s-12 1.83301 -20 2.5c-12.667 2.66699 -26.334 6.33398 -41.001 11.001l1 67h168c26.667 0 45 3.5 55 10.5s15 19.5 15 37.5v16c0 34.667 -22 52.334 -66 53.001l-132 5v72l132 8
c23.333 0.666992 40.333 4.83398 51 12.501s16 19.834 16 36.501v16c0 32 -22.333 48 -67 48h-177v66zM293.001 -0.00292969l389 745h88l-389 -745h-88zM851.001 192.997v111l23 49h65v-160h53v-71l-53 -16v-105h-88v105h-239l-22 39l185 334h95l-154 -286h135z" />
    <glyph glyph-name="questiondown" unicode="&#xbf;" horiz-adv-x="543" 
d="M526 -158c-0.666992 0 -0.668945 -11.334 -0.00195312 -34.001c0 -27.333 -0.333008 -44.666 -1 -51.999c-95.333 -16.667 -173.666 -25 -234.999 -25c-15.333 0 -27.166 0.166992 -35.499 0.5l-12.5 0.5c-38.667 0 -72.167 5.83301 -100.5 17.5
s-49.833 27.167 -64.5 46.5c-28.667 38 -43 81.333 -43 130v84c-0.666992 62 19.333 108.333 60 139c32.667 24 75.334 36 128.001 36c13.333 0 27.666 -1 42.999 -3v94h101v-183c-27.333 0.666992 -51.5 1 -72.5 1s-41 -0.333008 -60 -1s-36 -9 -51 -25
s-23.167 -37.333 -24.5 -64c-0.666992 -38 -1 -61.333 -1 -70c0 -26.667 9 -48.667 27 -66s44.333 -26 79 -26h5h258zM350.998 470.999c16 -0.666992 23.999 -8.33301 23.999 -23v-76c-0.666992 -16 -8 -24.333 -22 -25h-76c-14 2.66699 -21.333 11 -22 25v74
c0 7.33301 2.33301 13.333 7 18s10.334 7 17.001 7h72z" />
    <glyph glyph-name="Agrave" unicode="&#xc0;" horiz-adv-x="684" 
d="M38 0l255 732h128l245 -732h-127l-56 177h-259l-57 -177h-129zM257 283h196l-96 291zM190 934h112l97 -137h-83z" />
    <glyph glyph-name="Aacute" unicode="&#xc1;" horiz-adv-x="684" 
d="M38 0l255 732h128l245 -732h-127l-56 177h-259l-57 -177h-129zM257 283h196l-96 291zM316 797l96 137h113l-126 -137h-83z" />
    <glyph glyph-name="Acircumflex" unicode="&#xc2;" horiz-adv-x="684" 
d="M38 0l255 732h128l245 -732h-127l-56 177h-259l-57 -177h-129zM257 283h196l-96 291zM206 797l111 133h92l99 -133h-85l-63 64l-68 -64h-86z" />
    <glyph glyph-name="Atilde" unicode="&#xc3;" horiz-adv-x="684" 
d="M38 0l255 732h128l245 -732h-127l-56 177h-259l-57 -177h-129zM257 283h196l-96 291zM415 880c22.667 0 52.3311 12.3359 88.998 37.0029l24 -53c-14.667 -14.667 -26 -25.334 -34 -32.001s-19.667 -14 -35 -22s-26.666 -12 -33.999 -12c-24 0 -47.167 5.66699 -69.5 17
s-39.5 17 -51.5 17c-18 0 -32 -2.33301 -42 -7s-19.833 -9.83398 -29.5 -15.501s-17.5 -9.83398 -23.5 -12.501l-23 50c46 45.333 86 68 120 68c17.333 -0.666992 37.333 -6.66699 60 -18s36.334 -17 41.001 -17h8z" />
    <glyph glyph-name="Adieresis" unicode="&#xc4;" horiz-adv-x="684" 
d="M38 0l255 732h128l245 -732h-127l-56 177h-259l-57 -177h-129zM257 283h196l-96 291zM174 853c0 15.333 5.5 28.333 16.5 39s24.167 16 39.5 16s28.333 -5.33301 39 -16s16 -23.667 16 -39s-5.33301 -28.5 -16 -39.5s-23.667 -16.5 -39 -16.5s-28.5 5.5 -39.5 16.5
s-16.5 24.167 -16.5 39.5zM429 853c0 15.333 5.5 28.333 16.5 39s24.167 16 39.5 16s28.333 -5.33301 39 -16s16 -23.667 16 -39s-5.33301 -28.5 -16 -39.5s-23.667 -16.5 -39 -16.5s-28.5 5.5 -39.5 16.5s-16.5 24.167 -16.5 39.5z" />
    <glyph glyph-name="Aring" unicode="&#xc5;" horiz-adv-x="684" 
d="M38 0l255 732h128l245 -732h-127l-56 177h-259l-57 -177h-129zM257 283h196l-96 291zM269.5 780.5c9 -15.667 21.333 -28 37 -37s32.667 -13.5 51 -13.5s35.333 4.5 51 13.5s28 21.333 37 37s13.5 35.334 13.5 59.001s-9.83301 45.5 -29.5 65.5s-43.5 30 -71.5 30
s-52 -10 -72 -30s-30 -41.833 -30 -65.5s4.5 -43.334 13.5 -59.001zM310 832.5c0 13 4.66699 24.1689 14 33.502s20.5 14 33.5 14s24.167 -4.66699 33.5 -14c4 -4.66699 7.16699 -9.83398 9.5 -15.501s3.5 -13.334 3.5 -23.001s-4.5 -19 -13.5 -28s-20 -13.5 -33 -13.5
s-24.167 4.5 -33.5 13.5s-14 20 -14 33z" />
    <glyph glyph-name="AE" unicode="&#xc6;" horiz-adv-x="942" 
d="M524 732l44 -0.00292969c6.66699 0 57.5 -1.66699 152.5 -5s156.167 -7 183.5 -11v-95h-294c-24 0 -38.667 -6 -44 -18c-4 -8.66699 -6.33301 -20.667 -7 -36v-150l302 -11v-94l-302 -10v-144c0 -16.667 2 -27 6 -31s6.5 -6.83301 7.5 -8.5s3.33301 -3.16699 7 -4.5
s6 -2.16602 7 -2.49902s3.83301 -0.666016 8.5 -0.999023s7.33398 -0.5 8.00098 -0.5h9h9l282 -1v-96c-22.667 -3.33301 -114.334 -8.66602 -275.001 -15.999l-28 -1c-6.66699 -0.666992 -13.5 -1 -20.5 -1s-15.833 0.5 -26.5 1.5s-23.167 4 -37.5 9
s-26.833 12.167 -37.5 21.5c-23.333 20.667 -35 52 -35 94v85h-188l-102 -206h-128l289 586c28.667 58 62 97 100 117c35.333 19.333 72 29 110 29zM443 311.997v281l-137 -281h137z" />
    <glyph glyph-name="Ccedilla" unicode="&#xc7;" horiz-adv-x="574" 
d="M59.5 214c-8.33301 44 -12.499 90.8311 -12.499 140.498s1.5 90.5 4.5 122.5s8 62.333 15 91s16.667 53.334 29 74.001s27.5 38.334 45.5 53.001c36 30 87 45 153 45c89.333 0 173 -10 251 -30v-91l-8 0.5c-5.33301 0.333008 -12.5 0.833008 -21.5 1.5
s-19.5 1.5 -31.5 2.5s-25 1.83301 -39 2.5s-28.333 1.66699 -43 3c-32 1.33301 -60.5 2 -85.5 2s-45.167 -1.83301 -60.5 -5.5s-29.5 -10.834 -42.5 -21.501s-22.833 -26 -29.5 -46c-14 -41.333 -21 -105.833 -21 -193.5s11 -153.167 33 -196.5s61.667 -65 119 -65
c62 0 127.333 2 196 6l34 2v-91c-65.333 -17.333 -143 -26 -233 -26c-56.667 0 -101.334 8.83301 -134.001 26.5s-58.5 43.334 -77.5 77.001s-32.667 72.5 -41 116.5zM230.001 -36.002h83.998c0 -52 -7.66699 -88.333 -23 -109s-43.666 -31 -84.999 -31h-54v52l47 15
c16.667 7.33301 26.334 20.333 29.001 39c1.33301 8 2 19.333 2 34z" />
    <glyph glyph-name="Egrave" unicode="&#xc8;" horiz-adv-x="567" 
d="M66 136l-0.000976562 452c0 36.667 7.83301 66.334 23.5 89.001s33.334 37.5 53.001 44.5s35.834 10.5 48.501 10.5s66 -1.66699 160 -5s154.667 -7 182 -11v-95h-299c-24.667 0 -40 -6 -46 -18c-4 -9.33301 -6 -22 -6 -38v-145l307 -10v-95l-307 -10v-145
c0.666992 -28 10 -44.333 28 -49c8.66699 -2 20 -3 34 -3h289v-94c-21.333 -2.66699 -101.666 -7.33398 -240.999 -14.001l-69 -3h-18.5c-7 0 -15.833 0.5 -26.5 1.5s-23.334 4.33301 -38.001 10s-27.334 13.167 -38.001 22.5c-24 22.667 -36 57.667 -36 105zM168.999 931
h112l97 -137h-83z" />
    <glyph glyph-name="Eacute" unicode="&#xc9;" horiz-adv-x="567" 
d="M66 136l-0.000976562 452c0 36.667 7.83301 66.334 23.5 89.001s33.334 37.5 53.001 44.5s35.834 10.5 48.501 10.5s66 -1.66699 160 -5s154.667 -7 182 -11v-95h-299c-24.667 0 -40 -6 -46 -18c-4 -9.33301 -6 -22 -6 -38v-145l307 -10v-95l-307 -10v-145
c0.666992 -28 10 -44.333 28 -49c8.66699 -2 20 -3 34 -3h289v-94c-21.333 -2.66699 -101.666 -7.33398 -240.999 -14.001l-69 -3h-18.5c-7 0 -15.833 0.5 -26.5 1.5s-23.334 4.33301 -38.001 10s-27.334 13.167 -38.001 22.5c-24 22.667 -36 57.667 -36 105zM279.999 794
l96 136h113l-126 -136h-83z" />
    <glyph glyph-name="Ecircumflex" unicode="&#xca;" horiz-adv-x="567" 
d="M66 136l-0.000976562 452c0 36.667 7.83301 66.334 23.5 89.001s33.334 37.5 53.001 44.5s35.834 10.5 48.501 10.5s66 -1.66699 160 -5s154.667 -7 182 -11v-95h-299c-24.667 0 -40 -6 -46 -18c-4 -9.33301 -6 -22 -6 -38v-145l307 -10v-95l-307 -10v-145
c0.666992 -28 10 -44.333 28 -49c8.66699 -2 20 -3 34 -3h289v-94c-21.333 -2.66699 -101.666 -7.33398 -240.999 -14.001l-69 -3h-18.5c-7 0 -15.833 0.5 -26.5 1.5s-23.334 4.33301 -38.001 10s-27.334 13.167 -38.001 22.5c-24 22.667 -36 57.667 -36 105zM165.999 797
l111 133h92l99 -133h-85l-63 64l-68 -64h-86z" />
    <glyph glyph-name="Edieresis" unicode="&#xcb;" horiz-adv-x="567" 
d="M66 136l-0.000976562 452c0 36.667 7.83301 66.334 23.5 89.001s33.334 37.5 53.001 44.5s35.834 10.5 48.501 10.5s66 -1.66699 160 -5s154.667 -7 182 -11v-95h-299c-24.667 0 -40 -6 -46 -18c-4 -9.33301 -6 -22 -6 -38v-145l307 -10v-95l-307 -10v-145
c0.666992 -28 10 -44.333 28 -49c8.66699 -2 20 -3 34 -3h289v-94c-21.333 -2.66699 -101.666 -7.33398 -240.999 -14.001l-69 -3h-18.5c-7 0 -15.833 0.5 -26.5 1.5s-23.334 4.33301 -38.001 10s-27.334 13.167 -38.001 22.5c-24 22.667 -36 57.667 -36 105zM130.999 850
c0 15.333 5.5 28.333 16.5 39s24.167 16 39.5 16s28.333 -5.33301 39 -16s16 -23.667 16 -39s-5.33301 -28.5 -16 -39.5s-23.667 -16.5 -39 -16.5s-28.5 5.5 -39.5 16.5s-16.5 24.167 -16.5 39.5zM385.999 850c0 15.333 5.5 28.333 16.5 39s24.167 16 39.5 16
s28.333 -5.33301 39 -16s16 -23.667 16 -39s-5.33301 -28.5 -16 -39.5s-23.667 -16.5 -39 -16.5s-28.5 5.5 -39.5 16.5s-16.5 24.167 -16.5 39.5z" />
    <glyph glyph-name="Igrave" unicode="&#xcc;" horiz-adv-x="234" 
d="M68 0v732h116v-732h-116zM-42 934h113l96 -137h-83z" />
    <glyph glyph-name="Iacute" unicode="&#xcd;" horiz-adv-x="234" 
d="M68 0v732h116v-732h-116zM84 797l97 137h112l-126 -137h-83z" />
    <glyph glyph-name="Icircumflex" unicode="&#xce;" horiz-adv-x="234" 
d="M68 0v732h116v-732h-116zM-26 797l112 133h92l99 -133h-85l-63 64l-69 -64h-86z" />
    <glyph glyph-name="Idieresis" unicode="&#xcf;" horiz-adv-x="234" 
d="M68 0v732h116v-732h-116zM-58 853c0 15.333 5.66699 28.333 17 39s24.666 16 39.999 16s28.333 -5.33301 39 -16s16 -23.667 16 -39s-5.33301 -28.5 -16 -39.5s-23.667 -16.5 -39 -16.5s-28.666 5.5 -39.999 16.5s-17 24.167 -17 39.5zM198 853
c0 15.333 5.5 28.333 16.5 39s24.167 16 39.5 16s28.333 -5.33301 39 -16s16 -23.667 16 -39s-5.33301 -28.5 -16 -39.5s-23.667 -16.5 -39 -16.5s-28.5 5.5 -39.5 16.5s-16.5 24.167 -16.5 39.5z" />
    <glyph glyph-name="Eth" unicode="&#xd0;" horiz-adv-x="660" 
d="M3 342l0.000976562 62h65v327c0 0.666992 99 1 297 1c170.667 0 256 -123 256 -369c0 -103.333 -19.667 -188.333 -59 -255c-19.333 -34 -45.833 -60.5 -79.5 -79.5s-72.834 -28.5 -117.501 -28.5h-297v342h-65zM184.001 107l174 0.000976562
c96.667 0 145 85.667 145 257c0 97.333 -13.333 165.666 -40 204.999c-24.667 36 -59.667 54 -105 54h-174v-219h121v-62h-121v-235z" />
    <glyph glyph-name="Ntilde" unicode="&#xd1;" horiz-adv-x="678" 
d="M68 0v732h118l326 -517v517h116v-732h-116l-327 514v-514h-117zM406 880c22.667 0 52.332 12.335 88.999 37.002l24 -53c-15.333 -14.667 -26.833 -25.334 -34.5 -32.001s-19.167 -14 -34.5 -22s-26.666 -12 -33.999 -12c-24 0 -47.167 5.66699 -69.5 17
s-39.5 17 -51.5 17c-18 0 -32 -2.33301 -42 -7s-19.833 -9.83398 -29.5 -15.501s-17.5 -9.83398 -23.5 -12.501l-23 50c22 21.333 42.333 38 61 50s37.5 17.833 56.5 17.5s39.5 -6.16602 61.5 -17.499s35.667 -17 41 -17h9z" />
    <glyph glyph-name="Ograve" unicode="&#xd2;" horiz-adv-x="672" 
d="M58 269.5c-2 27.667 -3.00293 61.8311 -3.00293 102.498s2.5 79.834 7.5 117.501s11.833 69.667 20.5 96s20 48.833 34 67.5s28.5 33.334 43.5 44.001s33.167 19 54.5 25c34.667 10 72 15 112 15s69.833 -1 89.5 -3s40.334 -6 62.001 -12s39.834 -14.333 54.501 -25
s28.834 -25.334 42.501 -44.001s24.5 -41 32.5 -67c18 -58 27 -133 27 -225c0 -134 -19 -227 -57 -279c-26 -35.333 -58 -58.666 -96 -69.999c-47.333 -14 -110 -19 -188 -15c-38.667 2 -66.5 6 -83.5 12s-31.833 12.5 -44.5 19.5s-23.667 15.5 -33 25.5
s-18.333 21.667 -27 35s-16 28.833 -22 46.5s-11.333 37.5 -16 59.5s-8 46.833 -10 74.5zM173.497 446.497c-1.66699 -25 -2.50195 -54.8359 -2.50195 -89.5029s1.16699 -65.167 3.5 -91.5s6.33301 -49.333 12 -69s12.5 -35.167 20.5 -46.5s19 -20.666 33 -27.999
c23.333 -11.333 55.5 -17 96.5 -17s71.833 3.16699 92.5 9.5s38.167 18.833 52.5 37.5s24.166 44.5 29.499 77.5s8 69.5 8 109.5s-0.5 70.333 -1.5 91s-2.66699 39.334 -5 56.001s-5 31.5 -8 44.5s-7 24.333 -12 34s-9.83301 18 -14.5 25s-11 12.833 -19 17.5
s-15.5 8.33398 -22.5 11.001s-15.833 5 -26.5 7c-17.333 2 -36.666 3 -57.999 3s-37.166 -0.333008 -47.499 -1s-22 -2.16699 -35 -4.5s-23.167 -6 -30.5 -11s-15.333 -11.833 -24 -20.5s-15.167 -19.5 -19.5 -32.5s-8.66602 -28.667 -12.999 -47s-7.33301 -40 -9 -65z
M177.995 933.994h113l96 -137h-83z" />
    <glyph glyph-name="Oacute" unicode="&#xd3;" horiz-adv-x="672" 
d="M58 269.5c-2 27.667 -3.00293 61.8311 -3.00293 102.498s2.5 79.834 7.5 117.501s11.833 69.667 20.5 96s20 48.833 34 67.5s28.5 33.334 43.5 44.001s33.167 19 54.5 25c34.667 10 72 15 112 15s69.833 -1 89.5 -3s40.334 -6 62.001 -12s39.834 -14.333 54.501 -25
s28.834 -25.334 42.501 -44.001s24.5 -41 32.5 -67c18 -58 27 -133 27 -225c0 -134 -19 -227 -57 -279c-26 -35.333 -58 -58.666 -96 -69.999c-47.333 -14 -110 -19 -188 -15c-38.667 2 -66.5 6 -83.5 12s-31.833 12.5 -44.5 19.5s-23.667 15.5 -33 25.5
s-18.333 21.667 -27 35s-16 28.833 -22 46.5s-11.333 37.5 -16 59.5s-8 46.833 -10 74.5zM173.497 446.497c-1.66699 -25 -2.50195 -54.8359 -2.50195 -89.5029s1.16699 -65.167 3.5 -91.5s6.33301 -49.333 12 -69s12.5 -35.167 20.5 -46.5s19 -20.666 33 -27.999
c23.333 -11.333 55.5 -17 96.5 -17s71.833 3.16699 92.5 9.5s38.167 18.833 52.5 37.5s24.166 44.5 29.499 77.5s8 69.5 8 109.5s-0.5 70.333 -1.5 91s-2.66699 39.334 -5 56.001s-5 31.5 -8 44.5s-7 24.333 -12 34s-9.83301 18 -14.5 25s-11 12.833 -19 17.5
s-15.5 8.33398 -22.5 11.001s-15.833 5 -26.5 7c-17.333 2 -36.666 3 -57.999 3s-37.166 -0.333008 -47.499 -1s-22 -2.16699 -35 -4.5s-23.167 -6 -30.5 -11s-15.333 -11.833 -24 -20.5s-15.167 -19.5 -19.5 -32.5s-8.66602 -28.667 -12.999 -47s-7.33301 -40 -9 -65z
M303.995 796.994l97 137h112l-126 -137h-83z" />
    <glyph glyph-name="Ocircumflex" unicode="&#xd4;" horiz-adv-x="672" 
d="M58 269.5c-2 27.667 -3.00293 61.8311 -3.00293 102.498s2.5 79.834 7.5 117.501s11.833 69.667 20.5 96s20 48.833 34 67.5s28.5 33.334 43.5 44.001s33.167 19 54.5 25c34.667 10 72 15 112 15s69.833 -1 89.5 -3s40.334 -6 62.001 -12s39.834 -14.333 54.501 -25
s28.834 -25.334 42.501 -44.001s24.5 -41 32.5 -67c18 -58 27 -133 27 -225c0 -134 -19 -227 -57 -279c-26 -35.333 -58 -58.666 -96 -69.999c-47.333 -14 -110 -19 -188 -15c-38.667 2 -66.5 6 -83.5 12s-31.833 12.5 -44.5 19.5s-23.667 15.5 -33 25.5
s-18.333 21.667 -27 35s-16 28.833 -22 46.5s-11.333 37.5 -16 59.5s-8 46.833 -10 74.5zM173.497 446.497c-1.66699 -25 -2.50195 -54.8359 -2.50195 -89.5029s1.16699 -65.167 3.5 -91.5s6.33301 -49.333 12 -69s12.5 -35.167 20.5 -46.5s19 -20.666 33 -27.999
c23.333 -11.333 55.5 -17 96.5 -17s71.833 3.16699 92.5 9.5s38.167 18.833 52.5 37.5s24.166 44.5 29.499 77.5s8 69.5 8 109.5s-0.5 70.333 -1.5 91s-2.66699 39.334 -5 56.001s-5 31.5 -8 44.5s-7 24.333 -12 34s-9.83301 18 -14.5 25s-11 12.833 -19 17.5
s-15.5 8.33398 -22.5 11.001s-15.833 5 -26.5 7c-17.333 2 -36.666 3 -57.999 3s-37.166 -0.333008 -47.499 -1s-22 -2.16699 -35 -4.5s-23.167 -6 -30.5 -11s-15.333 -11.833 -24 -20.5s-15.167 -19.5 -19.5 -32.5s-8.66602 -28.667 -12.999 -47s-7.33301 -40 -9 -65z
M194.995 796.994l111 133h92l99 -133h-85l-63 64l-68 -64h-86z" />
    <glyph glyph-name="Otilde" unicode="&#xd5;" horiz-adv-x="672" 
d="M58 269.5c-2 27.667 -3.00293 61.8311 -3.00293 102.498s2.5 79.834 7.5 117.501s11.833 69.667 20.5 96s20 48.833 34 67.5s28.5 33.334 43.5 44.001s33.167 19 54.5 25c34.667 10 72 15 112 15s69.833 -1 89.5 -3s40.334 -6 62.001 -12s39.834 -14.333 54.501 -25
s28.834 -25.334 42.501 -44.001s24.5 -41 32.5 -67c18 -58 27 -133 27 -225c0 -134 -19 -227 -57 -279c-26 -35.333 -58 -58.666 -96 -69.999c-47.333 -14 -110 -19 -188 -15c-38.667 2 -66.5 6 -83.5 12s-31.833 12.5 -44.5 19.5s-23.667 15.5 -33 25.5
s-18.333 21.667 -27 35s-16 28.833 -22 46.5s-11.333 37.5 -16 59.5s-8 46.833 -10 74.5zM173.497 446.497c-1.66699 -25 -2.50195 -54.8359 -2.50195 -89.5029s1.16699 -65.167 3.5 -91.5s6.33301 -49.333 12 -69s12.5 -35.167 20.5 -46.5s19 -20.666 33 -27.999
c23.333 -11.333 55.5 -17 96.5 -17s71.833 3.16699 92.5 9.5s38.167 18.833 52.5 37.5s24.166 44.5 29.499 77.5s8 69.5 8 109.5s-0.5 70.333 -1.5 91s-2.66699 39.334 -5 56.001s-5 31.5 -8 44.5s-7 24.333 -12 34s-9.83301 18 -14.5 25s-11 12.833 -19 17.5
s-15.5 8.33398 -22.5 11.001s-15.833 5 -26.5 7c-17.333 2 -36.666 3 -57.999 3s-37.166 -0.333008 -47.499 -1s-22 -2.16699 -35 -4.5s-23.167 -6 -30.5 -11s-15.333 -11.833 -24 -20.5s-15.167 -19.5 -19.5 -32.5s-8.66602 -28.667 -12.999 -47s-7.33301 -40 -9 -65z
M403.995 879.994c22 0 51.666 12.335 88.999 37.002l24 -53c-15.333 -14.667 -26.833 -25.334 -34.5 -32.001s-19.167 -14 -34.5 -22s-26.666 -12 -33.999 -12c-24 0 -47.333 5.66699 -70 17s-39.667 17 -51 17c-18 0 -32 -2.33301 -42 -7s-20 -9.83398 -30 -15.501
s-17.667 -9.83398 -23 -12.501l-23 50c22 21.333 42.333 38 61 50s37.5 17.833 56.5 17.5s39.5 -6.16602 61.5 -17.499s35.667 -17 41 -17h9z" />
    <glyph glyph-name="Odieresis" unicode="&#xd6;" horiz-adv-x="672" 
d="M58 269.5c-2 27.667 -3.00293 61.8311 -3.00293 102.498s2.5 79.834 7.5 117.501s11.833 69.667 20.5 96s20 48.833 34 67.5s28.5 33.334 43.5 44.001s33.167 19 54.5 25c34.667 10 72 15 112 15s69.833 -1 89.5 -3s40.334 -6 62.001 -12s39.834 -14.333 54.501 -25
s28.834 -25.334 42.501 -44.001s24.5 -41 32.5 -67c18 -58 27 -133 27 -225c0 -134 -19 -227 -57 -279c-26 -35.333 -58 -58.666 -96 -69.999c-47.333 -14 -110 -19 -188 -15c-38.667 2 -66.5 6 -83.5 12s-31.833 12.5 -44.5 19.5s-23.667 15.5 -33 25.5
s-18.333 21.667 -27 35s-16 28.833 -22 46.5s-11.333 37.5 -16 59.5s-8 46.833 -10 74.5zM173.497 446.497c-1.66699 -25 -2.50195 -54.8359 -2.50195 -89.5029s1.16699 -65.167 3.5 -91.5s6.33301 -49.333 12 -69s12.5 -35.167 20.5 -46.5s19 -20.666 33 -27.999
c23.333 -11.333 55.5 -17 96.5 -17s71.833 3.16699 92.5 9.5s38.167 18.833 52.5 37.5s24.166 44.5 29.499 77.5s8 69.5 8 109.5s-0.5 70.333 -1.5 91s-2.66699 39.334 -5 56.001s-5 31.5 -8 44.5s-7 24.333 -12 34s-9.83301 18 -14.5 25s-11 12.833 -19 17.5
s-15.5 8.33398 -22.5 11.001s-15.833 5 -26.5 7c-17.333 2 -36.666 3 -57.999 3s-37.166 -0.333008 -47.499 -1s-22 -2.16699 -35 -4.5s-23.167 -6 -30.5 -11s-15.333 -11.833 -24 -20.5s-15.167 -19.5 -19.5 -32.5s-8.66602 -28.667 -12.999 -47s-7.33301 -40 -9 -65z
M162.995 852.994c0 15.333 5.5 28.333 16.5 39s24.167 16 39.5 16s28.333 -5.33301 39 -16s16 -23.667 16 -39s-5.33301 -28.5 -16 -39.5s-23.667 -16.5 -39 -16.5s-28.5 5.5 -39.5 16.5s-16.5 24.167 -16.5 39.5zM417.995 852.994c0 15.333 5.5 28.333 16.5 39
s24.167 16 39.5 16s28.333 -5.33301 39 -16s16 -23.667 16 -39s-5.33301 -28.5 -16 -39.5s-23.667 -16.5 -39 -16.5s-28.5 5.5 -39.5 16.5s-16.5 24.167 -16.5 39.5z" />
    <glyph glyph-name="multiply" unicode="&#xd7;" horiz-adv-x="460" 
d="M48 245l110 110l-110 111l71 73l111 -111l112 111l72 -72l-112 -112l112 -110l-72 -73l-112 111l-110 -110z" />
    <glyph glyph-name="Oslash" unicode="&#xd8;" horiz-adv-x="678" 
d="M119 653c14 18.667 28.335 33.333 43.002 44s33 19 55 25c34.667 10 75.5 15 122.5 15s85 -2.5 114 -7.5s54.5 -14.833 76.5 -29.5l21 32h70l-48 -72c43.333 -56.667 65 -156.334 65 -299.001c0 -134 -19 -227 -57 -279c-26 -35.333 -58.333 -58.666 -97 -69.999
c-35.333 -10.667 -77.833 -16 -127.5 -16s-89.834 2.66699 -120.501 8s-57.334 16 -80.001 32l-24 -36h-70l53 79c-38 54 -57 149.667 -57 287s20.333 233 61 287zM195.002 194.999l270.003 410.001c-12.667 10 -27.834 16.333 -45.501 19s-37.334 4 -59.001 4
s-36.834 -0.166992 -45.501 -0.5s-18.5 -1.16602 -29.5 -2.49902s-19.833 -3.33301 -26.5 -6s-14.167 -6.33398 -22.5 -11.001s-14.833 -10.334 -19.5 -17.001s-9.66699 -15 -15 -25s-9.5 -21.333 -12.5 -34s-5.83301 -27.667 -8.5 -45c-4.66699 -30 -7 -78 -7 -144
s7 -115.333 21 -148zM348.005 105c35.333 0 63.168 3.16797 83.501 9.50098s37.833 18.833 52.5 37.5s24.667 44.5 30 77.5s8 85.667 8 158s-7.66699 127.166 -23 164.499l-275 -416c23.333 -20.667 64.666 -31 123.999 -31z" />
    <glyph glyph-name="Ugrave" unicode="&#xd9;" horiz-adv-x="669" 
d="M346 -5h-14.002c-79.333 0 -132 8.33301 -158 25c-12 8 -25.833 19.833 -41.5 35.5s-27.5 34.834 -35.5 57.501c-19.333 56 -29 125 -29 207v412h116v-412c0 -68 6 -116.333 18 -145c6.66699 -16 13.834 -28.667 21.501 -38s18.5 -16.333 32.5 -21
c21.333 -8 47 -12 77 -12s52 1.33301 66 4s28.167 8.16699 42.5 16.5s25.5 20.166 33.5 35.499c18 34.667 27 88 27 160v412h117v-412c0 -82.667 -8.66699 -145 -26 -187c-9.33301 -22 -18.666 -41.167 -27.999 -57.5s-21.833 -29.333 -37.5 -39s-29.5 -17.5 -41.5 -23.5
s-27.667 -10.333 -47 -13c-28.667 -3.33301 -59.667 -5 -93 -5zM175.998 934h112l97 -137h-83z" />
    <glyph glyph-name="Uacute" unicode="&#xda;" horiz-adv-x="669" 
d="M346 -5h-14.002c-79.333 0 -132 8.33301 -158 25c-12 8 -25.833 19.833 -41.5 35.5s-27.5 34.834 -35.5 57.501c-19.333 56 -29 125 -29 207v412h116v-412c0 -68 6 -116.333 18 -145c6.66699 -16 13.834 -28.667 21.501 -38s18.5 -16.333 32.5 -21
c21.333 -8 47 -12 77 -12s52 1.33301 66 4s28.167 8.16699 42.5 16.5s25.5 20.166 33.5 35.499c18 34.667 27 88 27 160v412h117v-412c0 -82.667 -8.66699 -145 -26 -187c-9.33301 -22 -18.666 -41.167 -27.999 -57.5s-21.833 -29.333 -37.5 -39s-29.5 -17.5 -41.5 -23.5
s-27.667 -10.333 -47 -13c-28.667 -3.33301 -59.667 -5 -93 -5zM301.998 797l96 137h113l-126 -137h-83z" />
    <glyph glyph-name="Ucircumflex" unicode="&#xdb;" horiz-adv-x="669" 
d="M346 -5h-14.002c-79.333 0 -132 8.33301 -158 25c-12 8 -25.833 19.833 -41.5 35.5s-27.5 34.834 -35.5 57.501c-19.333 56 -29 125 -29 207v412h116v-412c0 -68 6 -116.333 18 -145c6.66699 -16 13.834 -28.667 21.501 -38s18.5 -16.333 32.5 -21
c21.333 -8 47 -12 77 -12s52 1.33301 66 4s28.167 8.16699 42.5 16.5s25.5 20.166 33.5 35.499c18 34.667 27 88 27 160v412h117v-412c0 -82.667 -8.66699 -145 -26 -187c-9.33301 -22 -18.666 -41.167 -27.999 -57.5s-21.833 -29.333 -37.5 -39s-29.5 -17.5 -41.5 -23.5
s-27.667 -10.333 -47 -13c-28.667 -3.33301 -59.667 -5 -93 -5zM191.998 797l111 133h92l99 -133h-84l-64 64l-68 -64h-86z" />
    <glyph glyph-name="Udieresis" unicode="&#xdc;" horiz-adv-x="669" 
d="M346 -5h-14.002c-79.333 0 -132 8.33301 -158 25c-12 8 -25.833 19.833 -41.5 35.5s-27.5 34.834 -35.5 57.501c-19.333 56 -29 125 -29 207v412h116v-412c0 -68 6 -116.333 18 -145c6.66699 -16 13.834 -28.667 21.501 -38s18.5 -16.333 32.5 -21
c21.333 -8 47 -12 77 -12s52 1.33301 66 4s28.167 8.16699 42.5 16.5s25.5 20.166 33.5 35.499c18 34.667 27 88 27 160v412h117v-412c0 -82.667 -8.66699 -145 -26 -187c-9.33301 -22 -18.666 -41.167 -27.999 -57.5s-21.833 -29.333 -37.5 -39s-29.5 -17.5 -41.5 -23.5
s-27.667 -10.333 -47 -13c-28.667 -3.33301 -59.667 -5 -93 -5zM159.998 853c0 15.333 5.5 28.333 16.5 39s24.167 16 39.5 16s28.5 -5.33301 39.5 -16s16.5 -23.667 16.5 -39s-5.5 -28.5 -16.5 -39.5s-24.167 -16.5 -39.5 -16.5s-28.5 5.5 -39.5 16.5
s-16.5 24.167 -16.5 39.5zM414.998 853c0 15.333 5.5 28.333 16.5 39s24.167 16 39.5 16s28.333 -5.33301 39 -16s16 -23.667 16 -39s-5.33301 -28.5 -16 -39.5s-23.667 -16.5 -39 -16.5s-28.5 5.5 -39.5 16.5s-16.5 24.167 -16.5 39.5z" />
    <glyph glyph-name="Yacute" unicode="&#xdd;" horiz-adv-x="647" 
d="M381 0h-116v239l-227 493h126l160 -363l176 363h126l-245 -493v-239zM290 797l97 137h113l-126 -137h-84z" />
    <glyph glyph-name="Thorn" unicode="&#xde;" horiz-adv-x="550" 
d="M51 0v729.001h116v-141h165c117.333 -0.666992 176 -71.667 176 -213c0 -106.667 -27.333 -175 -82 -205c-26 -13.333 -57.333 -20.333 -94 -21c-2.66699 0 -8.16699 -0.166992 -16.5 -0.5s-13.833 -0.5 -16.5 -0.5s-7.66699 0.166992 -15 0.5s-13 0.666016 -17 0.999023
s-9.83301 1 -17.5 2s-15.167 2.16699 -22.5 3.5c-22.667 4.66699 -42.667 9 -60 13v-168h-116zM167 254.001h137.001h12.5c7 0 15.167 1.5 24.5 4.5s18 8.5 26 16.5c16 16 24 49.333 24 100c-0.666992 49.333 -11 80.333 -31 93c-14.667 9.33301 -33.334 14 -56.001 14h-137
v-228z" />
    <glyph glyph-name="germandbls" unicode="&#xdf;" horiz-adv-x="571" 
d="M233 96l135.999 -6.00098c18.667 0 34.834 5.33301 48.501 16s20.834 25.334 21.501 44.001v33c0 21.333 -20.667 38.666 -62 51.999c-16.667 5.33301 -33.5 11.666 -50.5 18.999s-31.5 19 -43.5 35s-18 34 -18 54s1.5 35.833 4.5 47.5s8.83301 23.5 17.5 35.5
c13.333 18.667 39.333 43 78 73c30 24.667 45 54.667 45 90c0 55.333 -40.5 83 -121.5 83s-121.5 -46 -121.5 -138v-534h-116v566c0 60.667 20.5 111.334 61.5 152.001s98.167 61 171.5 61c46.667 0 87 -5.83301 121 -17.5s59.667 -27.167 77 -46.5
c28.667 -32.667 43 -70 43 -112c0 -31.333 -7 -61 -21 -89s-27.167 -47.833 -39.5 -59.5l-38.5 -35.5c-13.333 -12 -22.333 -20.333 -27 -25c-14.667 -14.667 -22 -28.667 -22 -42s6.16699 -23.666 18.5 -30.999s27.166 -14.166 44.499 -20.499
s34.666 -13.666 51.999 -21.999s32.166 -21.333 44.499 -39s18.5 -38.834 18.5 -63.501v-37c0.666992 -74.667 -35 -121.334 -107 -140.001c-18.667 -4.66699 -36.167 -7 -52.5 -7s-30.833 0.333008 -43.5 1s-25.167 2 -37.5 4s-22.166 3.5 -29.499 4.5
s-17.166 2.66699 -29.499 5s-19.833 3.83301 -22.5 4.5v85z" />
    <glyph glyph-name="agrave" unicode="&#xe0;" horiz-adv-x="519" 
d="M51 508c64 22 147.665 33 250.998 33c116.667 0 175 -55 175 -165v-376h-90l-26 60c-2 -3.33301 -11.833 -10 -29.5 -20s-41.167 -20.167 -70.5 -30.5s-56.333 -15.5 -81 -15.5c-45.333 0 -81 13.333 -107 40s-39 59.334 -39 98.001v54
c0 41.333 12.333 75.166 37 101.499s64.167 39.5 118.5 39.5h126.5h45c0.666992 15.333 1 26.833 1 34.5s-0.333008 11.5 -1 11.5c0 27.333 -6.16699 46 -18.5 56s-31.166 15 -56.499 15c-49.333 0 -127.666 -3.66699 -234.999 -11v75zM149.998 146
c0 -20.667 4.66699 -34.834 14 -42.501s23 -11.5 41 -11.5s40.167 3.83301 66.5 11.5s47.833 15.167 64.5 22.5l25 11v114l-162 -12c-32.667 -3.33301 -49 -22.666 -49 -57.999v-35zM99.998 738h112l97 -137h-83z" />
    <glyph glyph-name="aacute" unicode="&#xe1;" horiz-adv-x="519" 
d="M51 508c64 22 147.665 33 250.998 33c116.667 0 175 -55 175 -165v-376h-90l-26 60c-2 -3.33301 -11.833 -10 -29.5 -20s-41.167 -20.167 -70.5 -30.5s-56.333 -15.5 -81 -15.5c-45.333 0 -81 13.333 -107 40s-39 59.334 -39 98.001v54
c0 41.333 12.333 75.166 37 101.499s64.167 39.5 118.5 39.5h126.5h45c0.666992 15.333 1 26.833 1 34.5s-0.333008 11.5 -1 11.5c0 27.333 -6.16699 46 -18.5 56s-31.166 15 -56.499 15c-49.333 0 -127.666 -3.66699 -234.999 -11v75zM149.998 146
c0 -20.667 4.66699 -34.834 14 -42.501s23 -11.5 41 -11.5s40.167 3.83301 66.5 11.5s47.833 15.167 64.5 22.5l25 11v114l-162 -12c-32.667 -3.33301 -49 -22.666 -49 -57.999v-35zM221.998 601l97 137h112l-126 -137h-83z" />
    <glyph glyph-name="acircumflex" unicode="&#xe2;" horiz-adv-x="519" 
d="M51 508c64 22 147.665 33 250.998 33c116.667 0 175 -55 175 -165v-376h-90l-26 60c-2 -3.33301 -11.833 -10 -29.5 -20s-41.167 -20.167 -70.5 -30.5s-56.333 -15.5 -81 -15.5c-45.333 0 -81 13.333 -107 40s-39 59.334 -39 98.001v54
c0 41.333 12.333 75.166 37 101.499s64.167 39.5 118.5 39.5h126.5h45c0.666992 15.333 1 26.833 1 34.5s-0.333008 11.5 -1 11.5c0 27.333 -6.16699 46 -18.5 56s-31.166 15 -56.499 15c-49.333 0 -127.666 -3.66699 -234.999 -11v75zM149.998 146
c0 -20.667 4.66699 -34.834 14 -42.501s23 -11.5 41 -11.5s40.167 3.83301 66.5 11.5s47.833 15.167 64.5 22.5l25 11v114l-162 -12c-32.667 -3.33301 -49 -22.666 -49 -57.999v-35zM113.998 601l111 133h92l99 -133h-85l-63 64l-68 -64h-86z" />
    <glyph glyph-name="atilde" unicode="&#xe3;" horiz-adv-x="519" 
d="M51 508c64 22 147.665 33 250.998 33c116.667 0 175 -55 175 -165v-376h-90l-26 60c-2 -3.33301 -11.833 -10 -29.5 -20s-41.167 -20.167 -70.5 -30.5s-56.333 -15.5 -81 -15.5c-45.333 0 -81 13.333 -107 40s-39 59.334 -39 98.001v54
c0 41.333 12.333 75.166 37 101.499s64.167 39.5 118.5 39.5h126.5h45c0.666992 15.333 1 26.833 1 34.5s-0.333008 11.5 -1 11.5c0 27.333 -6.16699 46 -18.5 56s-31.166 15 -56.499 15c-49.333 0 -127.666 -3.66699 -234.999 -11v75zM149.998 146
c0 -20.667 4.66699 -34.834 14 -42.501s23 -11.5 41 -11.5s40.167 3.83301 66.5 11.5s47.833 15.167 64.5 22.5l25 11v114l-162 -12c-32.667 -3.33301 -49 -22.666 -49 -57.999v-35zM319.998 684c22 0 51.6689 12.335 89.002 37.002l23 -53
c-14.667 -14.667 -25.834 -25.334 -33.501 -32.001s-19.334 -14 -35.001 -22s-26.834 -12 -33.501 -12c-24.667 0 -48.167 5.66699 -70.5 17s-39.166 17 -50.499 17c-18.667 0 -33 -2.33301 -43 -7s-19.833 -9.83398 -29.5 -15.501s-17.167 -9.83398 -22.5 -12.501l-23 50
c21.333 21.333 41.333 38 60 50s37.5 17.833 56.5 17.5s39.667 -6.16602 62 -17.499s36 -17 41 -17h9.5z" />
    <glyph glyph-name="adieresis" unicode="&#xe4;" horiz-adv-x="519" 
d="M51 508c64 22 147.665 33 250.998 33c116.667 0 175 -55 175 -165v-376h-90l-26 60c-2 -3.33301 -11.833 -10 -29.5 -20s-41.167 -20.167 -70.5 -30.5s-56.333 -15.5 -81 -15.5c-45.333 0 -81 13.333 -107 40s-39 59.334 -39 98.001v54
c0 41.333 12.333 75.166 37 101.499s64.167 39.5 118.5 39.5h126.5h45c0.666992 15.333 1 26.833 1 34.5s-0.333008 11.5 -1 11.5c0 27.333 -6.16699 46 -18.5 56s-31.166 15 -56.499 15c-49.333 0 -127.666 -3.66699 -234.999 -11v75zM149.998 146
c0 -20.667 4.66699 -34.834 14 -42.501s23 -11.5 41 -11.5s40.167 3.83301 66.5 11.5s47.833 15.167 64.5 22.5l25 11v114l-162 -12c-32.667 -3.33301 -49 -22.666 -49 -57.999v-35zM79.998 657c0 15.333 5.49805 28.5 16.498 39.5s24.333 16.5 40 16.5
s28.834 -5.5 39.501 -16.5s16 -24.167 16 -39.5s-5.33301 -28.5 -16 -39.5s-23.667 -16.5 -39 -16.5s-28.666 5.5 -39.999 16.5s-17 24.167 -17 39.5zM334.996 657c0 15.333 5.49805 28.501 16.498 39.501s24.333 16.5 40 16.5s28.834 -5.5 39.501 -16.5
s16 -22.833 16 -35.5s-2.33301 -23.334 -7 -32.001c-10.667 -18.667 -25.167 -28 -43.5 -28s-33.166 5.5 -44.499 16.5s-17 24.167 -17 39.5z" />
    <glyph glyph-name="aring" unicode="&#xe5;" horiz-adv-x="519" 
d="M51 508c64 22 147.665 33 250.998 33c116.667 0 175 -55 175 -165v-376h-90l-26 60c-2 -3.33301 -11.833 -10 -29.5 -20s-41.167 -20.167 -70.5 -30.5s-56.333 -15.5 -81 -15.5c-45.333 0 -81 13.333 -107 40s-39 59.334 -39 98.001v54
c0 41.333 12.333 75.166 37 101.499s64.167 39.5 118.5 39.5h126.5h45c0.666992 15.333 1 26.833 1 34.5s-0.333008 11.5 -1 11.5c0 27.333 -6.16699 46 -18.5 56s-31.166 15 -56.499 15c-49.333 0 -127.666 -3.66699 -234.999 -11v75zM149.998 146
c0 -20.667 4.66699 -34.834 14 -42.501s23 -11.5 41 -11.5s40.167 3.83301 66.5 11.5s47.833 15.167 64.5 22.5l25 11v114l-162 -12c-32.667 -3.33301 -49 -22.666 -49 -57.999v-35zM163.998 687c0 16.667 4.5 32.834 13.5 48.501s21.333 28 37 37s32.667 13.5 51 13.5
s35.333 -4.5 51 -13.5s28 -21.333 37 -37s13.5 -35.334 13.5 -59.001s-9.83301 -45.334 -29.5 -65.001s-43.667 -29.5 -72 -29.5s-52.333 9.83301 -72 29.5s-29.5 44.834 -29.5 75.501zM217.998 683.5c0 -13 4.66699 -24 14 -33s20.5 -13.5 33.5 -13.5s24 4.5 33 13.5
s13.5 20 13.5 33s-4.5 24.167 -13.5 33.5s-20 14 -33 14s-24.167 -4.66699 -33.5 -14s-14 -20.5 -14 -33.5z" />
    <glyph glyph-name="ae" unicode="&#xe6;" horiz-adv-x="853" 
d="M316 313c30 0 44.998 0.333984 44.998 1.00098c0.666992 20.667 1 36.167 1 46.5s-0.333008 15.833 -1 16.5c0 27.333 -6.16699 46 -18.5 56s-35.5 15 -69.5 15s-108 -4 -222 -12v75c56 22 138.667 33.333 248 34c62.667 0 107.667 -16 135 -48
c18.667 16.667 41 27.834 67 33.501s55 8.5 87 8.5s55.833 -0.5 71.5 -1.5s31.667 -3 48 -6s29.833 -7.33301 40.5 -13s20.834 -13 30.501 -22s17.5 -20.167 23.5 -33.5c11.333 -28.667 17 -65.334 17 -110.001s-11.833 -77 -35.5 -97s-59.834 -30 -108.501 -30h-189
c0 -66 15.333 -105.667 46 -119c14.667 -6.66699 35.334 -10 62.001 -10c96.667 0 168.334 3.33301 215.001 10v-80c-54.667 -18.667 -142.667 -28 -264 -28c-37.333 0 -66.833 5.66699 -88.5 17s-41.5 28.666 -59.5 51.999c-4.66699 -8.66699 -33 -22.5 -85 -41.5
s-96.333 -28.5 -133 -28.5c-44.667 0 -80 13.333 -106 40s-39 59.334 -39 98.001v37c0 41.333 12.333 75.166 37 101.499s64.167 39.333 118.5 39s96.5 -0.5 126.5 -0.5zM149.998 149.001c0 -21.333 4.50098 -35.501 13.501 -42.501s22.667 -10.5 41 -10.5
s40.666 3.83301 66.999 11.5s47.833 15.167 64.5 22.5l25 11v101l-162 -12c-32.667 -3.33301 -49 -22.666 -49 -57.999v-23zM702.999 356c0 40 -5.33496 64.666 -16.002 73.999s-37 14 -79 14h-3c-42 0 -66.167 -1.66699 -72.5 -5s-12.666 -7.16602 -18.999 -11.499
s-10.666 -9.5 -12.999 -15.5s-4.83301 -13.667 -7.5 -23c-4.66699 -14.667 -7 -40 -7 -76h166c34 0 51 14.333 51 43z" />
    <glyph glyph-name="ccedilla" unicode="&#xe7;" horiz-adv-x="496" 
d="M51 151.5c-6 32.333 -9 72.999 -9 121.999s4.16699 91.833 12.5 128.5s20.833 64.667 37.5 84s34.834 32.666 54.501 39.999s41.167 11 64.5 11s47.666 -0.666992 72.999 -2c64.667 -5.33301 122 -15 172 -29v-74c-74.667 4.66699 -130.5 7 -167.5 7
s-59.667 -0.666992 -68 -2s-17 -5.16602 -26 -11.499s-15.833 -15.833 -20.5 -28.5c-10.667 -28.667 -16 -67.167 -16 -115.5s1.66699 -83.5 5 -105.5s9 -39.333 17 -52s17.833 -21.167 29.5 -25.5s29.167 -6.5 52.5 -6.5c50 0 106.333 2.66699 169 8l32 2v-76
c-34.667 -14.667 -70.667 -23.667 -108 -27c-12 -1.33301 -21 -2.16602 -27 -2.49902s-15.5 -0.833008 -28.5 -1.5s-21.833 -1 -26.5 -1h-28.5h-40c-12.333 0 -26.833 2.16699 -43.5 6.5s-32.667 12.5 -48 24.5s-28 28 -38 48s-18 46.167 -24 78.5zM242 -37.001h84.998
c0 -52 -7.66699 -88.333 -23 -109s-43.666 -31 -84.999 -31h-55v52l48 15c12.667 5.33301 20.834 13.333 24.501 24s5.5 27 5.5 49z" />
    <glyph glyph-name="egrave" unicode="&#xe8;" horiz-adv-x="525" 
d="M66 440c8 20 17.666 36.1641 28.999 48.4971s26.333 21.833 45 28.5c32 12 69 18 111 18s71.833 -0.666992 89.5 -2s35.5 -4.16602 53.5 -8.49902s32.333 -10.833 43 -19.5s20.334 -20 29.001 -34c16.667 -25.333 25 -67.666 25 -126.999c0 -86.667 -48 -130 -144 -130
h-189c0 -51.333 8.66699 -84.666 26 -99.999c9.33301 -8.66699 20.166 -14.334 32.499 -17.001s47.833 -4 106.5 -4s111.334 3.66699 158.001 11v-81c-54.667 -18.667 -142.667 -28 -264 -28c-66.667 0 -112.5 20.167 -137.5 60.5s-37.5 105.333 -37.5 195
s8 152.834 24 189.501zM323.999 304.997c34 0 51.001 14.332 51.001 42.999c0 40 -5.5 65.333 -16.5 76s-37.167 16 -78.5 16c-52.667 0 -84.334 -6 -95.001 -18c-14 -15.333 -22 -33.166 -24 -53.499s-3 -41.5 -3 -63.5h166zM109 731.996h113l96 -136h-83z" />
    <glyph glyph-name="eacute" unicode="&#xe9;" horiz-adv-x="525" 
d="M66 440c8 20 17.666 36.1641 28.999 48.4971s26.333 21.833 45 28.5c32 12 69 18 111 18s71.833 -0.666992 89.5 -2s35.5 -4.16602 53.5 -8.49902s32.333 -10.833 43 -19.5s20.334 -20 29.001 -34c16.667 -25.333 25 -67.666 25 -126.999c0 -86.667 -48 -130 -144 -130
h-189c0 -51.333 8.66699 -84.666 26 -99.999c9.33301 -8.66699 20.166 -14.334 32.499 -17.001s47.833 -4 106.5 -4s111.334 3.66699 158.001 11v-81c-54.667 -18.667 -142.667 -28 -264 -28c-66.667 0 -112.5 20.167 -137.5 60.5s-37.5 105.333 -37.5 195
s8 152.834 24 189.501zM323.999 304.997c34 0 51.001 14.332 51.001 42.999c0 40 -5.5 65.333 -16.5 76s-37.167 16 -78.5 16c-52.667 0 -84.334 -6 -95.001 -18c-14 -15.333 -22 -33.166 -24 -53.499s-3 -41.5 -3 -63.5h166zM229 595.996l96 136h113l-126 -136h-83z" />
    <glyph glyph-name="ecircumflex" unicode="&#xea;" horiz-adv-x="525" 
d="M66 440c8 20 17.666 36.1641 28.999 48.4971s26.333 21.833 45 28.5c32 12 69 18 111 18s71.833 -0.666992 89.5 -2s35.5 -4.16602 53.5 -8.49902s32.333 -10.833 43 -19.5s20.334 -20 29.001 -34c16.667 -25.333 25 -67.666 25 -126.999c0 -86.667 -48 -130 -144 -130
h-189c0 -51.333 8.66699 -84.666 26 -99.999c9.33301 -8.66699 20.166 -14.334 32.499 -17.001s47.833 -4 106.5 -4s111.334 3.66699 158.001 11v-81c-54.667 -18.667 -142.667 -28 -264 -28c-66.667 0 -112.5 20.167 -137.5 60.5s-37.5 105.333 -37.5 195
s8 152.834 24 189.501zM323.999 304.997c34 0 51.001 14.332 51.001 42.999c0 40 -5.5 65.333 -16.5 76s-37.167 16 -78.5 16c-52.667 0 -84.334 -6 -95.001 -18c-14 -15.333 -22 -33.166 -24 -53.499s-3 -41.5 -3 -63.5h166zM118 595.996l111 134h92l99 -134h-85l-63 64
l-68 -64h-86z" />
    <glyph glyph-name="edieresis" unicode="&#xeb;" horiz-adv-x="525" 
d="M66 440c8 20 17.666 36.1641 28.999 48.4971s26.333 21.833 45 28.5c32 12 69 18 111 18s71.833 -0.666992 89.5 -2s35.5 -4.16602 53.5 -8.49902s32.333 -10.833 43 -19.5s20.334 -20 29.001 -34c16.667 -25.333 25 -67.666 25 -126.999c0 -86.667 -48 -130 -144 -130
h-189c0 -51.333 8.66699 -84.666 26 -99.999c9.33301 -8.66699 20.166 -14.334 32.499 -17.001s47.833 -4 106.5 -4s111.334 3.66699 158.001 11v-81c-54.667 -18.667 -142.667 -28 -264 -28c-66.667 0 -112.5 20.167 -137.5 60.5s-37.5 105.333 -37.5 195
s8 152.834 24 189.501zM323.999 304.997c34 0 51.001 14.332 51.001 42.999c0 40 -5.5 65.333 -16.5 76s-37.167 16 -78.5 16c-52.667 0 -84.334 -6 -95.001 -18c-14 -15.333 -22 -33.166 -24 -53.499s-3 -41.5 -3 -63.5h166zM84 651.996c0 15.333 5.5 28.5 16.5 39.5
s24.167 16.5 39.5 16.5s28.333 -5.5 39 -16.5s16 -24.167 16 -39.5s-5.33301 -28.5 -16 -39.5s-23.667 -16.5 -39 -16.5s-28.5 5.5 -39.5 16.5s-16.5 24.167 -16.5 39.5zM339 651.996c0 15.333 5.5 28.5 16.5 39.5s24.167 16.5 39.5 16.5s28.333 -5.5 39 -16.5
s16 -24.167 16 -39.5s-5.33301 -28.5 -16 -39.5s-23.667 -16.5 -39 -16.5s-28.5 5.5 -39.5 16.5s-16.5 24.167 -16.5 39.5z" />
    <glyph glyph-name="igrave" unicode="&#xec;" horiz-adv-x="217" 
d="M51 0v531h116v-531h-116zM-59 732h113l96 -136h-83z" />
    <glyph glyph-name="iacute" unicode="&#xed;" horiz-adv-x="217" 
d="M51 0v531h116v-531h-116zM67 596l97 136h112l-126 -136h-83z" />
    <glyph glyph-name="icircumflex" unicode="&#xee;" horiz-adv-x="217" 
d="M51 0v531h116v-531h-116zM-42 596l111 134h92l99 -134h-85l-63 64l-68 -64h-86z" />
    <glyph glyph-name="idieresis" unicode="&#xef;" horiz-adv-x="217" 
d="M51 0v531h116v-531h-116zM-74 652c0 15.333 5.5 28.5 16.5 39.5s24.167 16.5 39.5 16.5s28.333 -5.5 39 -16.5s16 -24.167 16 -39.5s-5.33301 -28.5 -16 -39.5s-23.667 -16.5 -39 -16.5s-28.5 5.5 -39.5 16.5s-16.5 24.167 -16.5 39.5zM181 652
c0 15.333 5.5 28.5 16.5 39.5s24.167 16.5 39.5 16.5s28.333 -5.5 39 -16.5s16 -24.167 16 -39.5s-5.33301 -28.5 -16 -39.5s-23.667 -16.5 -39 -16.5s-28.5 5.5 -39.5 16.5s-16.5 24.167 -16.5 39.5z" />
    <glyph glyph-name="eth" unicode="&#xf0;" horiz-adv-x="539" 
d="M75.5 63c-27.667 42 -41.5 108.168 -41.5 198.501s14.167 157.833 42.5 202.5s75.166 67 140.499 67h72c38.667 0 63.334 -3.66699 74.001 -11c-14 45.333 -35.333 81.666 -64 108.999l-125 -55l-27 58l86 38c-27.333 11.333 -62.666 17 -105.999 17
c-6.66699 0 -13.667 -0.333008 -21 -1v97c102 0 181.667 -20 239 -60l101 45l28 -59l-76 -33c72 -84 108 -221.333 108 -412c0 -176 -61.667 -264 -185 -264h-104c-66.667 0 -113.834 21 -141.501 63zM159.5 364.501c-6.33301 -23.667 -9.49902 -55 -9.49902 -94
s1.66699 -69 5 -90s9 -36.5 17 -46.5s16.167 -16.333 24.5 -19s20.166 -4 35.499 -4h75c32.667 0 54.667 11.667 66 35s17 65 17 125s-5.33301 100.167 -16 120.5s-33 30.5 -67 30.5h-75c-20 0 -35.5 -3.66699 -46.5 -11s-19.667 -22.833 -26 -46.5z" />
    <glyph glyph-name="ntilde" unicode="&#xf1;" 
d="M390 361c0 54 -23.3311 81.001 -69.998 81.001c-30.667 0 -56.334 -3.83301 -77.001 -11.5s-46 -20.5 -76 -38.5v-392h-116v531h90l26 -59l21.5 14.5c12.333 8.33301 24.666 16 36.999 23s29.5 13.833 51.5 20.5s44.667 10 68 10c55.333 0 96 -16.833 122 -50.5
s39 -76.834 39 -129.501v-360h-116v361zM337.002 683.001c22 0 51.666 12.334 88.999 37.001l23 -53c-36 -34.667 -63.333 -55 -82 -61c-10 -3.33301 -17.667 -5 -23 -5c-22.667 0 -45.167 5.66699 -67.5 17s-39.166 17 -50.499 17c-18.667 0 -33 -2.33301 -43 -7
s-19.833 -9.83398 -29.5 -15.501s-17.167 -9.83398 -22.5 -12.501l-23 50c21.333 21.333 41.333 38 60 50s37.5 17.833 56.5 17.5s39.667 -6.16602 62 -17.499s36 -17 41 -17h9.5z" />
    <glyph glyph-name="ograve" unicode="&#xf2;" horiz-adv-x="563" 
d="M54 136.5c-8 32.333 -12.001 78.833 -12.001 139.5s7.83301 111 23.5 151s40.334 68.167 74.001 84.5s81.167 24.5 142.5 24.5c90.667 0 153.167 -20 187.5 -60s51.5 -111.167 51.5 -213.5s-17.167 -172.5 -51.5 -210.5s-96.833 -57 -187.5 -57
c-46 0 -84.167 4.66699 -114.5 14s-54.833 24.833 -73.5 46.5s-32 48.667 -40 81zM160.499 328.5c-1.66699 -19 -2.49902 -41.835 -2.49902 -68.502s1 -49 3 -67s5.5 -33 10.5 -45s10.5 -21.667 16.5 -29s14 -13 24 -17c16.667 -5.33301 37.5 -8 62.5 -8
s43.167 0.833008 54.5 2.5s22.666 5.33398 33.999 11.001s19.666 14.5 24.999 26.5c11.333 26.667 17 61 17 103s-0.833008 72.5 -2.5 91.5s-4.66699 35.333 -9 49s-9.16602 24.334 -14.499 32.001s-13 13.5 -23 17.5c-16 6.66699 -36.667 10.167 -62 10.5
s-43.333 -0.166992 -54 -1.5s-21.167 -4.16602 -31.5 -8.49902s-18.333 -10.333 -24 -18s-10.667 -18.334 -15 -32.001s-7.33301 -30 -9 -49zM121 731.998h112l97 -136h-83z" />
    <glyph glyph-name="oacute" unicode="&#xf3;" horiz-adv-x="563" 
d="M54 136.5c-8 32.333 -12.001 78.833 -12.001 139.5s7.83301 111 23.5 151s40.334 68.167 74.001 84.5s81.167 24.5 142.5 24.5c90.667 0 153.167 -20 187.5 -60s51.5 -111.167 51.5 -213.5s-17.167 -172.5 -51.5 -210.5s-96.833 -57 -187.5 -57
c-46 0 -84.167 4.66699 -114.5 14s-54.833 24.833 -73.5 46.5s-32 48.667 -40 81zM160.499 328.5c-1.66699 -19 -2.49902 -41.835 -2.49902 -68.502s1 -49 3 -67s5.5 -33 10.5 -45s10.5 -21.667 16.5 -29s14 -13 24 -17c16.667 -5.33301 37.5 -8 62.5 -8
s43.167 0.833008 54.5 2.5s22.666 5.33398 33.999 11.001s19.666 14.5 24.999 26.5c11.333 26.667 17 61 17 103s-0.833008 72.5 -2.5 91.5s-4.66699 35.333 -9 49s-9.16602 24.334 -14.499 32.001s-13 13.5 -23 17.5c-16 6.66699 -36.667 10.167 -62 10.5
s-43.333 -0.166992 -54 -1.5s-21.167 -4.16602 -31.5 -8.49902s-18.333 -10.333 -24 -18s-10.667 -18.334 -15 -32.001s-7.33301 -30 -9 -49zM240 595.998l97 136h112l-126 -136h-83z" />
    <glyph glyph-name="ocircumflex" unicode="&#xf4;" horiz-adv-x="563" 
d="M54 136.5c-8 32.333 -12.001 78.833 -12.001 139.5s7.83301 111 23.5 151s40.334 68.167 74.001 84.5s81.167 24.5 142.5 24.5c90.667 0 153.167 -20 187.5 -60s51.5 -111.167 51.5 -213.5s-17.167 -172.5 -51.5 -210.5s-96.833 -57 -187.5 -57
c-46 0 -84.167 4.66699 -114.5 14s-54.833 24.833 -73.5 46.5s-32 48.667 -40 81zM160.499 328.5c-1.66699 -19 -2.49902 -41.835 -2.49902 -68.502s1 -49 3 -67s5.5 -33 10.5 -45s10.5 -21.667 16.5 -29s14 -13 24 -17c16.667 -5.33301 37.5 -8 62.5 -8
s43.167 0.833008 54.5 2.5s22.666 5.33398 33.999 11.001s19.666 14.5 24.999 26.5c11.333 26.667 17 61 17 103s-0.833008 72.5 -2.5 91.5s-4.66699 35.333 -9 49s-9.16602 24.334 -14.499 32.001s-13 13.5 -23 17.5c-16 6.66699 -36.667 10.167 -62 10.5
s-43.333 -0.166992 -54 -1.5s-21.167 -4.16602 -31.5 -8.49902s-18.333 -10.333 -24 -18s-10.667 -18.334 -15 -32.001s-7.33301 -30 -9 -49zM134 595.998l111 134h92l99 -134h-85l-63 64l-68 -64h-86z" />
    <glyph glyph-name="otilde" unicode="&#xf5;" horiz-adv-x="563" 
d="M54 136.5c-8 32.333 -12.001 78.833 -12.001 139.5s7.83301 111 23.5 151s40.334 68.167 74.001 84.5s81.167 24.5 142.5 24.5c90.667 0 153.167 -20 187.5 -60s51.5 -111.167 51.5 -213.5s-17.167 -172.5 -51.5 -210.5s-96.833 -57 -187.5 -57
c-46 0 -84.167 4.66699 -114.5 14s-54.833 24.833 -73.5 46.5s-32 48.667 -40 81zM160.499 328.5c-1.66699 -19 -2.49902 -41.835 -2.49902 -68.502s1 -49 3 -67s5.5 -33 10.5 -45s10.5 -21.667 16.5 -29s14 -13 24 -17c16.667 -5.33301 37.5 -8 62.5 -8
s43.167 0.833008 54.5 2.5s22.666 5.33398 33.999 11.001s19.666 14.5 24.999 26.5c11.333 26.667 17 61 17 103s-0.833008 72.5 -2.5 91.5s-4.66699 35.333 -9 49s-9.16602 24.334 -14.499 32.001s-13 13.5 -23 17.5c-16 6.66699 -36.667 10.167 -62 10.5
s-43.333 -0.166992 -54 -1.5s-21.167 -4.16602 -31.5 -8.49902s-18.333 -10.333 -24 -18s-10.667 -18.334 -15 -32.001s-7.33301 -30 -9 -49zM346 678.998c22 0 51.666 12.334 88.999 37.001l23 -53c-36 -34.667 -63.333 -55 -82 -61c-10 -3.33301 -17.667 -5 -23 -5
c-22.667 0 -45.167 5.66699 -67.5 17s-39.166 17 -50.499 17c-18.667 0 -33 -2.33301 -43 -7s-19.833 -9.83398 -29.5 -15.501s-17.167 -9.83398 -22.5 -12.501l-23 50c21.333 21.333 41.333 38 60 50s37.5 17.833 56.5 17.5s39.667 -6.16602 62 -17.499s36 -17 41 -17h9.5z
" />
    <glyph glyph-name="odieresis" unicode="&#xf6;" horiz-adv-x="563" 
d="M54 136.5c-8 32.333 -12.001 78.833 -12.001 139.5s7.83301 111 23.5 151s40.334 68.167 74.001 84.5s81.167 24.5 142.5 24.5c90.667 0 153.167 -20 187.5 -60s51.5 -111.167 51.5 -213.5s-17.167 -172.5 -51.5 -210.5s-96.833 -57 -187.5 -57
c-46 0 -84.167 4.66699 -114.5 14s-54.833 24.833 -73.5 46.5s-32 48.667 -40 81zM160.499 328.5c-1.66699 -19 -2.49902 -41.835 -2.49902 -68.502s1 -49 3 -67s5.5 -33 10.5 -45s10.5 -21.667 16.5 -29s14 -13 24 -17c16.667 -5.33301 37.5 -8 62.5 -8
s43.167 0.833008 54.5 2.5s22.666 5.33398 33.999 11.001s19.666 14.5 24.999 26.5c11.333 26.667 17 61 17 103s-0.833008 72.5 -2.5 91.5s-4.66699 35.333 -9 49s-9.16602 24.334 -14.499 32.001s-13 13.5 -23 17.5c-16 6.66699 -36.667 10.167 -62 10.5
s-43.333 -0.166992 -54 -1.5s-21.167 -4.16602 -31.5 -8.49902s-18.333 -10.333 -24 -18s-10.667 -18.334 -15 -32.001s-7.33301 -30 -9 -49zM99 651.998c0 15.333 5.5 28.5 16.5 39.5s24.167 16.5 39.5 16.5s28.333 -5.5 39 -16.5s16 -24.167 16 -39.5
s-5.33301 -28.5 -16 -39.5s-23.667 -16.5 -39 -16.5s-28.5 5.5 -39.5 16.5s-16.5 24.167 -16.5 39.5zM354 651.998c0 15.333 5.5 28.5 16.5 39.5s24.167 16.5 39.5 16.5s28.333 -5.5 39 -16.5s16 -24.167 16 -39.5s-5.33301 -28.5 -16 -39.5s-23.667 -16.5 -39 -16.5
s-28.5 5.5 -39.5 16.5s-16.5 24.167 -16.5 39.5z" />
    <glyph glyph-name="divide" unicode="&#xf7;" horiz-adv-x="504" 
d="M42 302v102h420v-102h-420zM196 161l-0.000976562 63c0 16 8 24 24 24h65c15.333 0 23 -8 23 -24v-63c0 -15.333 -7.66699 -23 -23 -23h-65c-7.33301 0 -13.166 2.16699 -17.499 6.5s-6.5 9.83301 -6.5 16.5zM195.999 476v61.999c0 16.667 8 25 24 25h65
c15.333 0 23 -8.33301 23 -25v-62c0 -15.333 -7.66699 -23 -23 -23h-65c-12 0 -19.667 5 -23 15c-0.666992 2.66699 -1 5.33398 -1 8.00098z" />
    <glyph glyph-name="oslash" unicode="&#xf8;" horiz-adv-x="576" 
d="M93 65c-29.333 38.667 -44.002 98.667 -44.002 180s7.83301 142 23.5 182s40.334 68.167 74.001 84.5s81.834 24.5 144.501 24.5s111 -9 145 -27l17 22h73l-46 -59c32 -40 48 -110.5 48 -211.5s-17.167 -170.5 -51.5 -208.5s-96.833 -57 -187.5 -57
c-68 0 -119.667 10.667 -155 32l-21 -27h-70zM167.498 328.5c-1.66699 -19 -2.49805 -45.168 -2.49805 -78.501s4.33301 -59.666 13 -78.999l190 252c-14.667 10 -35.834 15 -63.501 15s-46.834 -0.666992 -57.501 -2s-21.167 -4.16602 -31.5 -8.49902
s-18.333 -10.333 -24 -18s-10.667 -18.334 -15 -32.001s-7.33301 -30 -9 -49zM365.5 104.999c14.333 7.33301 24.166 17 29.499 29c11.333 26.667 17 67.167 17 121.5s-5.33301 91.833 -16 112.5l-193 -255c14.667 -12.667 41.834 -19 81.501 -19s66.667 3.66699 81 11z" />
    <glyph glyph-name="ugrave" unicode="&#xf9;" 
d="M42 172v359h116v-361c0 -27.333 6.33301 -47.5 19 -60.5s32 -19.5 58 -19.5s49.333 3.66699 70 11s46 20.333 76 39v391h116v-531h-90l-26 58c-5.33301 -2.66699 -14 -7.83398 -26 -15.501s-21 -13.167 -27 -16.5s-14.667 -7.66602 -26 -12.999s-21.333 -9.33301 -30 -12
c-22.667 -6.66699 -45.667 -10 -69 -10c-55.333 0 -96 16.833 -122 50.5s-39 77.167 -39 130.5zM109 732h112l97 -136h-83z" />
    <glyph glyph-name="uacute" unicode="&#xfa;" 
d="M42 172v359h116v-361c0 -27.333 6.33301 -47.5 19 -60.5s32 -19.5 58 -19.5s49.333 3.66699 70 11s46 20.333 76 39v391h116v-531h-90l-26 58c-5.33301 -2.66699 -14 -7.83398 -26 -15.501s-21 -13.167 -27 -16.5s-14.667 -7.66602 -26 -12.999s-21.333 -9.33301 -30 -12
c-22.667 -6.66699 -45.667 -10 -69 -10c-55.333 0 -96 16.833 -122 50.5s-39 77.167 -39 130.5zM228 596l97 136h112l-126 -136h-83z" />
    <glyph glyph-name="ucircumflex" unicode="&#xfb;" 
d="M42 172v359h116v-361c0 -27.333 6.33301 -47.5 19 -60.5s32 -19.5 58 -19.5s49.333 3.66699 70 11s46 20.333 76 39v391h116v-531h-90l-26 58c-5.33301 -2.66699 -14 -7.83398 -26 -15.501s-21 -13.167 -27 -16.5s-14.667 -7.66602 -26 -12.999s-21.333 -9.33301 -30 -12
c-22.667 -6.66699 -45.667 -10 -69 -10c-55.333 0 -96 16.833 -122 50.5s-39 77.167 -39 130.5zM119 596l111 134h92l99 -134h-85l-63 64l-68 -64h-86z" />
    <glyph glyph-name="udieresis" unicode="&#xfc;" 
d="M42 172v359h116v-361c0 -27.333 6.33301 -47.5 19 -60.5s32 -19.5 58 -19.5s49.333 3.66699 70 11s46 20.333 76 39v391h116v-531h-90l-26 58c-5.33301 -2.66699 -14 -7.83398 -26 -15.501s-21 -13.167 -27 -16.5s-14.667 -7.66602 -26 -12.999s-21.333 -9.33301 -30 -12
c-22.667 -6.66699 -45.667 -10 -69 -10c-55.333 0 -96 16.833 -122 50.5s-39 77.167 -39 130.5zM87 652c0 15.333 5.5 28.5 16.5 39.5s24.167 16.5 39.5 16.5s28.333 -5.5 39 -16.5s16 -24.167 16 -39.5s-5.33301 -28.5 -16 -39.5s-23.667 -16.5 -39 -16.5
s-28.5 5.5 -39.5 16.5s-16.5 24.167 -16.5 39.5zM342 652c0 15.333 5.5 28.5 16.5 39.5s24.167 16.5 39.5 16.5s28.333 -5.5 39 -16.5s16 -24.167 16 -39.5s-5.33301 -28.5 -16 -39.5s-23.667 -16.5 -39 -16.5s-28.5 5.5 -39.5 16.5s-16.5 24.167 -16.5 39.5z" />
    <glyph glyph-name="yacute" unicode="&#xfd;" horiz-adv-x="569" 
d="M18 531l123 0.000976562l105 -387c4 -14.667 9.33301 -24.334 16 -29.001s12.167 -7.66699 16.5 -9s8 -2 11 -2s6.16699 0.166992 9.5 0.5l5 0.5l123 426h123l-202 -699l-74 -102h-80l82 270c-72.667 0 -121 42 -145 126zM242 596.001l97 136h112l-126 -136h-83z" />
    <glyph glyph-name="thorn" unicode="&#xfe;" horiz-adv-x="555" 
d="M59 -270l0.00292969 1052h116v-310c19.333 15.333 45.666 30 78.999 44s64.666 21 93.999 21c116 0 174 -90.667 174 -272c0 -106.667 -16 -180.667 -48 -222c-28 -36.667 -70 -55 -126 -55c-24.667 0 -53.334 3.33301 -86.001 10s-61.667 16 -87 28v-296h-116z
M406.003 263c0 113.333 -27 169.997 -81 169.997c-50.667 -2 -100.667 -15.333 -150 -40v-287c14 -4 25.333 -7 34 -9s15.334 -3.33301 20.001 -4l18 -2.5c7.33301 -1 12.666 -1.66699 15.999 -2s9 -0.666016 17 -0.999023s12.833 -0.666016 14.5 -0.999023
s7 -0.666016 16 -0.999023s17 -0.5 24 -0.5s15 2.5 24 7.5s17.167 13.833 24.5 26.5c15.333 24.667 23 72.667 23 144z" />
    <glyph glyph-name="ydieresis" unicode="&#xff;" horiz-adv-x="569" 
d="M18 531l123 0.000976562l105 -387c4 -14.667 9.33301 -24.334 16 -29.001s12.167 -7.66699 16.5 -9s8 -2 11 -2s6.16699 0.166992 9.5 0.5l5 0.5l123 426h123l-202 -699l-74 -102h-80l82 270c-72.667 0 -121 42 -145 126zM101 652.001c0 15.333 5.5 28.5 16.5 39.5
s24.167 16.5 39.5 16.5s28.333 -5.5 39 -16.5s16 -24.167 16 -39.5s-5.33301 -28.5 -16 -39.5s-23.667 -16.5 -39 -16.5s-28.5 5.5 -39.5 16.5s-16.5 24.167 -16.5 39.5zM356 652.001c0 15.333 5.5 28.5 16.5 39.5s24.167 16.5 39.5 16.5s28.333 -5.5 39 -16.5
s16 -24.167 16 -39.5s-5.33301 -28.5 -16 -39.5s-23.667 -16.5 -39 -16.5s-28.5 5.5 -39.5 16.5s-16.5 24.167 -16.5 39.5z" />
    <glyph glyph-name="Amacron" unicode="&#x100;" horiz-adv-x="684" 
d="M38 0l255 732h128l245 -732h-127l-56 177h-259l-57 -177h-129zM257 283h196l-96 291zM211 797v73h292v-73h-292z" />
    <glyph glyph-name="amacron" unicode="&#x101;" horiz-adv-x="519" 
d="M51 508c64 22 147.665 33 250.998 33c116.667 0 175 -55 175 -165v-376h-90l-26 60c-2 -3.33301 -11.833 -10 -29.5 -20s-41.167 -20.167 -70.5 -30.5s-56.333 -15.5 -81 -15.5c-45.333 0 -81 13.333 -107 40s-39 59.334 -39 98.001v54
c0 41.333 12.333 75.166 37 101.499s64.167 39.5 118.5 39.5h126.5h45c0.666992 15.333 1 26.833 1 34.5s-0.333008 11.5 -1 11.5c0 27.333 -6.16699 46 -18.5 56s-31.166 15 -56.499 15c-49.333 0 -127.666 -3.66699 -234.999 -11v75zM149.998 146
c0 -20.667 4.66699 -34.834 14 -42.501s23 -11.5 41 -11.5s40.167 3.83301 66.5 11.5s47.833 15.167 64.5 22.5l25 11v114l-162 -12c-32.667 -3.33301 -49 -22.666 -49 -57.999v-35zM124.998 601v73h292v-73h-292z" />
    <glyph glyph-name="Abreve" unicode="&#x102;" horiz-adv-x="684" 
d="M38 0l255 732h128l245 -732h-127l-56 177h-259l-57 -177h-129zM257 283h196l-96 291zM242 911h54c0 -24 10 -41.667 30 -53c9.33301 -4.66699 21.5 -7 36.5 -7s28 5.33301 39 16s16.5 25.334 16.5 44.001h54c0 -23.333 -5.33301 -44 -16 -62
c-22 -34.667 -55.333 -52 -100 -52c-43.333 0 -76 17.667 -98 53c-10.667 17.333 -16 37.666 -16 60.999z" />
    <glyph glyph-name="abreve" unicode="&#x103;" horiz-adv-x="519" 
d="M51 508c64 22 147.665 33 250.998 33c116.667 0 175 -55 175 -165v-376h-90l-26 60c-2 -3.33301 -11.833 -10 -29.5 -20s-41.167 -20.167 -70.5 -30.5s-56.333 -15.5 -81 -15.5c-45.333 0 -81 13.333 -107 40s-39 59.334 -39 98.001v54
c0 41.333 12.333 75.166 37 101.499s64.167 39.5 118.5 39.5h126.5h45c0.666992 15.333 1 26.833 1 34.5s-0.333008 11.5 -1 11.5c0 27.333 -6.16699 46 -18.5 56s-31.166 15 -56.499 15c-49.333 0 -127.666 -3.66699 -234.999 -11v75zM149.998 146
c0 -20.667 4.66699 -34.834 14 -42.501s23 -11.5 41 -11.5s40.167 3.83301 66.5 11.5s47.833 15.167 64.5 22.5l25 11v114l-162 -12c-32.667 -3.33301 -49 -22.666 -49 -57.999v-35zM155.998 715l53.999 -0.00195312c0 -17.333 5.83301 -31.666 17.5 -42.999
s26.5 -17 44.5 -17s32.5 5.33301 43.5 16s16.5 25.334 16.5 44.001h54c0 -23.333 -5.33301 -44 -16 -62c-22 -34.667 -55.333 -52 -100 -52c-31.333 0 -58.166 10.5 -80.499 31.5s-33.5 48.5 -33.5 82.5z" />
    <glyph glyph-name="Aogonek" unicode="&#x104;" horiz-adv-x="684" 
d="M38 0l255 732h128l245 -732h-127l-56 177h-259l-57 -177h-129zM257 283h196l-96 291zM631 1c-34.667 -27.333 -52.002 -52.667 -52.002 -76c0 -9.33301 4.16699 -18 12.5 -26s22.833 -12 43.5 -12h2v-71c-8 -1.33301 -17.167 -2 -27.5 -2s-23.666 2.66699 -39.999 8
s-30.166 15.333 -41.499 30c-14.667 19.333 -22 37.333 -22 54c0 39.333 25 71 75 95h50z" />
    <glyph glyph-name="aogonek" unicode="&#x105;" horiz-adv-x="519" 
d="M51 508c64 22 147.665 33 250.998 33c116.667 0 175 -55 175 -165v-376h-90l-26 60c-2 -3.33301 -11.833 -10 -29.5 -20s-41.167 -20.167 -70.5 -30.5s-56.333 -15.5 -81 -15.5c-45.333 0 -81 13.333 -107 40s-39 59.334 -39 98.001v54
c0 41.333 12.333 75.166 37 101.499s64.167 39.5 118.5 39.5h126.5h45c0.666992 15.333 1 26.833 1 34.5s-0.333008 11.5 -1 11.5c0 27.333 -6.16699 46 -18.5 56s-31.166 15 -56.499 15c-49.333 0 -127.666 -3.66699 -234.999 -11v75zM149.998 146
c0 -20.667 4.66699 -34.834 14 -42.501s23 -11.5 41 -11.5s40.167 3.83301 66.5 11.5s47.833 15.167 64.5 22.5l25 11v114l-162 -12c-32.667 -3.33301 -49 -22.666 -49 -57.999v-35zM458.998 0c-34.667 -26.667 -52.001 -52 -52.001 -76c0 -9.33301 4.16699 -18 12.5 -26
s23.166 -12 44.499 -12h1v-70c-8 -2 -17.167 -3 -27.5 -3s-23.666 2.83301 -39.999 8.5s-30.166 15.5 -41.499 29.5c-14.667 20 -22 38 -22 54c0 39.333 25 71 75 95h50z" />
    <glyph glyph-name="Cacute" unicode="&#x106;" horiz-adv-x="574" 
d="M59.5 214c-8.33301 44 -12.499 90.8311 -12.499 140.498s1.5 90.5 4.5 122.5s8 62.333 15 91s16.667 53.334 29 74.001s27.5 38.334 45.5 53.001c36 30 87 45 153 45c89.333 0 173 -10 251 -30v-91l-8 0.5c-5.33301 0.333008 -12.5 0.833008 -21.5 1.5
s-19.5 1.5 -31.5 2.5s-25 1.83301 -39 2.5s-28.333 1.66699 -43 3c-32 1.33301 -60.5 2 -85.5 2s-45.167 -1.83301 -60.5 -5.5s-29.5 -10.834 -42.5 -21.501s-22.833 -26 -29.5 -46c-14 -41.333 -21 -105.833 -21 -193.5s11 -153.167 33 -196.5s61.667 -65 119 -65
c62 0 127.333 2 196 6l34 2v-91c-65.333 -17.333 -143 -26 -233 -26c-56.667 0 -101.334 8.83301 -134.001 26.5s-58.5 43.334 -77.5 77.001s-32.667 72.5 -41 116.5zM289.001 799.998l97 136h112l-126 -136h-83z" />
    <glyph glyph-name="cacute" unicode="&#x107;" horiz-adv-x="496" 
d="M42 266c0 44 2.99902 81.998 8.99902 113.998s13.833 57.833 23.5 77.5s22.167 35.5 37.5 47.5c26.667 20.667 61.667 31 105 31c89.333 0 169 -10 239 -30v-74c-74.667 4 -130.5 6 -167.5 6s-59.5 -0.666992 -67.5 -2s-16.667 -5.16602 -26 -11.499
s-16.333 -15.5 -21 -27.5c-10.667 -29.333 -16 -70.833 -16 -124.5s3.33301 -92.667 10 -117s16.5 -40.666 29.5 -48.999s32.833 -12.5 59.5 -12.5c53.333 0 111.333 2.33301 174 7l32 2v-76c-34.667 -14.667 -70.667 -23.667 -108 -27
c-12 -0.666992 -21 -1.33398 -27 -2.00098s-15.5 -1.16699 -28.5 -1.5s-21.833 -0.666016 -26.5 -0.999023s-14.167 -0.5 -28.5 -0.5h-40.5c-12.667 0 -27.167 2.16699 -43.5 6.5s-32.166 12.5 -47.499 24.5s-28 27.833 -38 47.5s-18 45.667 -24 78s-9 70.5 -9 114.5z
M230.999 596.998l96 137h113l-126 -137h-83z" />
    <glyph glyph-name="Ccircumflex" unicode="&#x108;" horiz-adv-x="574" 
d="M59.5 214c-8.33301 44 -12.499 90.8311 -12.499 140.498s1.5 90.5 4.5 122.5s8 62.333 15 91s16.667 53.334 29 74.001s27.5 38.334 45.5 53.001c36 30 87 45 153 45c89.333 0 173 -10 251 -30v-91l-8 0.5c-5.33301 0.333008 -12.5 0.833008 -21.5 1.5
s-19.5 1.5 -31.5 2.5s-25 1.83301 -39 2.5s-28.333 1.66699 -43 3c-32 1.33301 -60.5 2 -85.5 2s-45.167 -1.83301 -60.5 -5.5s-29.5 -10.834 -42.5 -21.501s-22.833 -26 -29.5 -46c-14 -41.333 -21 -105.833 -21 -193.5s11 -153.167 33 -196.5s61.667 -65 119 -65
c62 0 127.333 2 196 6l34 2v-91c-65.333 -17.333 -143 -26 -233 -26c-56.667 0 -101.334 8.83301 -134.001 26.5s-58.5 43.334 -77.5 77.001s-32.667 72.5 -41 116.5zM179.001 799.998l111 134h92l99 -134h-85l-63 64l-68 -64h-86z" />
    <glyph glyph-name="ccircumflex" unicode="&#x109;" horiz-adv-x="496" 
d="M42 266c0 44 2.99902 81.998 8.99902 113.998s13.833 57.833 23.5 77.5s22.167 35.5 37.5 47.5c26.667 20.667 61.667 31 105 31c89.333 0 169 -10 239 -30v-74c-74.667 4 -130.5 6 -167.5 6s-59.5 -0.666992 -67.5 -2s-16.667 -5.16602 -26 -11.499
s-16.333 -15.5 -21 -27.5c-10.667 -29.333 -16 -70.833 -16 -124.5s3.33301 -92.667 10 -117s16.5 -40.666 29.5 -48.999s32.833 -12.5 59.5 -12.5c53.333 0 111.333 2.33301 174 7l32 2v-76c-34.667 -14.667 -70.667 -23.667 -108 -27
c-12 -0.666992 -21 -1.33398 -27 -2.00098s-15.5 -1.16699 -28.5 -1.5s-21.833 -0.666016 -26.5 -0.999023s-14.167 -0.5 -28.5 -0.5h-40.5c-12.667 0 -27.167 2.16699 -43.5 6.5s-32.166 12.5 -47.499 24.5s-28 27.833 -38 47.5s-18 45.667 -24 78s-9 70.5 -9 114.5z
M122.999 596.998l111 134h92l100 -134h-85l-63 64l-69 -64h-86z" />
    <glyph glyph-name="Cdotaccent" unicode="&#x10a;" horiz-adv-x="574" 
d="M59.5 214c-8.33301 44 -12.499 90.8311 -12.499 140.498s1.5 90.5 4.5 122.5s8 62.333 15 91s16.667 53.334 29 74.001s27.5 38.334 45.5 53.001c36 30 87 45 153 45c89.333 0 173 -10 251 -30v-91l-8 0.5c-5.33301 0.333008 -12.5 0.833008 -21.5 1.5
s-19.5 1.5 -31.5 2.5s-25 1.83301 -39 2.5s-28.333 1.66699 -43 3c-32 1.33301 -60.5 2 -85.5 2s-45.167 -1.83301 -60.5 -5.5s-29.5 -10.834 -42.5 -21.501s-22.833 -26 -29.5 -46c-14 -41.333 -21 -105.833 -21 -193.5s11 -153.167 33 -196.5s61.667 -65 119 -65
c62 0 127.333 2 196 6l34 2v-91c-65.333 -17.333 -143 -26 -233 -26c-56.667 0 -101.334 8.83301 -134.001 26.5s-58.5 43.334 -77.5 77.001s-32.667 72.5 -41 116.5zM278.001 823.998l-0.000976562 68c0 16.667 8 25 24 25h64c7.33301 0 13 -2.33301 17 -7s6 -10.667 6 -18
v-68c0 -15.333 -7.66699 -23 -23 -23h-64c-7.33301 0 -13.166 2.16699 -17.499 6.5s-6.5 9.83301 -6.5 16.5z" />
    <glyph glyph-name="cdotaccent" unicode="&#x10b;" horiz-adv-x="496" 
d="M42 266c0 44 2.99902 81.998 8.99902 113.998s13.833 57.833 23.5 77.5s22.167 35.5 37.5 47.5c26.667 20.667 61.667 31 105 31c89.333 0 169 -10 239 -30v-74c-74.667 4 -130.5 6 -167.5 6s-59.5 -0.666992 -67.5 -2s-16.667 -5.16602 -26 -11.499
s-16.333 -15.5 -21 -27.5c-10.667 -29.333 -16 -70.833 -16 -124.5s3.33301 -92.667 10 -117s16.5 -40.666 29.5 -48.999s32.833 -12.5 59.5 -12.5c53.333 0 111.333 2.33301 174 7l32 2v-76c-34.667 -14.667 -70.667 -23.667 -108 -27
c-12 -0.666992 -21 -1.33398 -27 -2.00098s-15.5 -1.16699 -28.5 -1.5s-21.833 -0.666016 -26.5 -0.999023s-14.167 -0.5 -28.5 -0.5h-40.5c-12.667 0 -27.167 2.16699 -43.5 6.5s-32.166 12.5 -47.499 24.5s-28 27.833 -38 47.5s-18 45.667 -24 78s-9 70.5 -9 114.5z
M231.999 621.998l-0.000976562 68c0 16.667 8 25 24 25h64c7.33301 0 13 -2.33301 17 -7s6 -10.667 6 -18v-68c0 -15.333 -7.66699 -23 -23 -23h-64c-7.33301 0 -13.166 2 -17.499 6s-6.5 9.66699 -6.5 17z" />
    <glyph glyph-name="Ccaron" unicode="&#x10c;" horiz-adv-x="574" 
d="M59.5 214c-8.33301 44 -12.499 90.8311 -12.499 140.498s1.5 90.5 4.5 122.5s8 62.333 15 91s16.667 53.334 29 74.001s27.5 38.334 45.5 53.001c36 30 87 45 153 45c89.333 0 173 -10 251 -30v-91l-8 0.5c-5.33301 0.333008 -12.5 0.833008 -21.5 1.5
s-19.5 1.5 -31.5 2.5s-25 1.83301 -39 2.5s-28.333 1.66699 -43 3c-32 1.33301 -60.5 2 -85.5 2s-45.167 -1.83301 -60.5 -5.5s-29.5 -10.834 -42.5 -21.501s-22.833 -26 -29.5 -46c-14 -41.333 -21 -105.833 -21 -193.5s11 -153.167 33 -196.5s61.667 -65 119 -65
c62 0 127.333 2 196 6l34 2v-91c-65.333 -17.333 -143 -26 -233 -26c-56.667 0 -101.334 8.83301 -134.001 26.5s-58.5 43.334 -77.5 77.001s-32.667 72.5 -41 116.5zM186.001 933.998h85l69 -64l63 64h85l-103 -134h-92z" />
    <glyph glyph-name="ccaron" unicode="&#x10d;" horiz-adv-x="496" 
d="M42 266c0 44 2.99902 81.998 8.99902 113.998s13.833 57.833 23.5 77.5s22.167 35.5 37.5 47.5c26.667 20.667 61.667 31 105 31c89.333 0 169 -10 239 -30v-74c-74.667 4 -130.5 6 -167.5 6s-59.5 -0.666992 -67.5 -2s-16.667 -5.16602 -26 -11.499
s-16.333 -15.5 -21 -27.5c-10.667 -29.333 -16 -70.833 -16 -124.5s3.33301 -92.667 10 -117s16.5 -40.666 29.5 -48.999s32.833 -12.5 59.5 -12.5c53.333 0 111.333 2.33301 174 7l32 2v-76c-34.667 -14.667 -70.667 -23.667 -108 -27
c-12 -0.666992 -21 -1.33398 -27 -2.00098s-15.5 -1.16699 -28.5 -1.5s-21.833 -0.666016 -26.5 -0.999023s-14.167 -0.5 -28.5 -0.5h-40.5c-12.667 0 -27.167 2.16699 -43.5 6.5s-32.166 12.5 -47.499 24.5s-28 27.833 -38 47.5s-18 45.667 -24 78s-9 70.5 -9 114.5z
M118.999 730.998h85l69 -64l63 64h85l-103 -134h-92z" />
    <glyph glyph-name="Dcaron" unicode="&#x10e;" horiz-adv-x="660" 
d="M68 0v732h297c170.667 0 256 -123 256 -369c0 -103.333 -19.667 -188.333 -59 -255c-20 -34 -46.833 -60.5 -80.5 -79.5s-72.5 -28.5 -116.5 -28.5h-297zM184 107h174c34 0 62 11.333 84 34c42 42 63 116.333 63 223c0 126.667 -22.667 206.667 -68 240
c-20.667 14.667 -47 22 -79 22h-174v-519zM167 927h85l70 -64l62 64h85l-102 -133h-92z" />
    <glyph glyph-name="dcaron" unicode="&#x10f;" horiz-adv-x="588" 
d="M42 263c0 110 16.333 185 49 225c27.333 34 69 51 125 51c24 0 52.5 -3.33301 85.5 -10s62.5 -15.667 88.5 -27v283h115v-785h-92l-23 56c-26.667 -21.333 -57.167 -37 -91.5 -47s-61.833 -15 -82.5 -15c-116 0 -174 89.667 -174 269zM158 257
c0 -106.667 26.667 -160.001 80 -160.001s104 12.667 152 38v285c-46 14.667 -96.333 22 -151 22c-18 0 -32.667 -4.33301 -44 -13c-24.667 -19.333 -37 -76.666 -37 -171.999zM643 780.999v-67l-10 -134h-68l-10 134v67h88z" />
    <glyph glyph-name="Dcroat" unicode="&#x110;" horiz-adv-x="660" 
d="M3 342l0.000976562 62h65v327c0 0.666992 99 1 297 1c170.667 0 256 -123 256 -369c0 -103.333 -19.667 -188.333 -59 -255c-19.333 -34 -45.833 -60.5 -79.5 -79.5s-72.834 -28.5 -117.501 -28.5h-297v342h-65zM184.001 107l174 0.000976562
c96.667 0 145 85.667 145 257c0 97.333 -13.333 165.666 -40 204.999c-24.667 36 -59.667 54 -105 54h-174v-219h121v-62h-121v-235z" />
    <glyph glyph-name="dcroat" unicode="&#x111;" horiz-adv-x="560" 
d="M40 263c0 110 16.333 185 49 225c27.333 34 69 51 125 51c24 0 52.5 -3.33301 85.5 -10s62.5 -15.667 88.5 -27v107h-112v61h112v115h115v-115h68v-61h-68v-609h-92l-23 56c-18.667 -14.667 -45 -28.667 -79 -42s-65.667 -20 -95 -20c-116 0 -174 89.667 -174 269z
M156 257c0 -106.667 26.668 -160.001 80.001 -160.001s104 12.667 152 38v285c-46 14.667 -96.333 22 -151 22c-18.667 0 -33.334 -4.33301 -44.001 -13c-24.667 -19.333 -37 -76.666 -37 -171.999z" />
    <glyph glyph-name="Emacron" unicode="&#x112;" horiz-adv-x="567" 
d="M66 136l-0.000976562 452c0 36.667 7.83301 66.334 23.5 89.001s33.334 37.5 53.001 44.5s35.834 10.5 48.501 10.5s66 -1.66699 160 -5s154.667 -7 182 -11v-95h-299c-24.667 0 -40 -6 -46 -18c-4 -9.33301 -6 -22 -6 -38v-145l307 -10v-95l-307 -10v-145
c0.666992 -28 10 -44.333 28 -49c8.66699 -2 20 -3 34 -3h289v-94c-21.333 -2.66699 -101.666 -7.33398 -240.999 -14.001l-69 -3h-18.5c-7 0 -15.833 0.5 -26.5 1.5s-23.334 4.33301 -38.001 10s-27.334 13.167 -38.001 22.5c-24 22.667 -36 57.667 -36 105zM167.999 796
v73h292v-73h-292z" />
    <glyph glyph-name="emacron" unicode="&#x113;" horiz-adv-x="525" 
d="M66 440c8 20 17.666 36.1641 28.999 48.4971s26.333 21.833 45 28.5c32 12 69 18 111 18s71.833 -0.666992 89.5 -2s35.5 -4.16602 53.5 -8.49902s32.333 -10.833 43 -19.5s20.334 -20 29.001 -34c16.667 -25.333 25 -67.666 25 -126.999c0 -86.667 -48 -130 -144 -130
h-189c0 -51.333 8.66699 -84.666 26 -99.999c9.33301 -8.66699 20.166 -14.334 32.499 -17.001s47.833 -4 106.5 -4s111.334 3.66699 158.001 11v-81c-54.667 -18.667 -142.667 -28 -264 -28c-66.667 0 -112.5 20.167 -137.5 60.5s-37.5 105.333 -37.5 195
s8 152.834 24 189.501zM323.999 304.997c34 0 51.001 14.332 51.001 42.999c0 40 -5.5 65.333 -16.5 76s-37.167 16 -78.5 16c-52.667 0 -84.334 -6 -95.001 -18c-14 -15.333 -22 -33.166 -24 -53.499s-3 -41.5 -3 -63.5h166zM127 594.996v74h292v-74h-292z" />
    <glyph glyph-name="Edotaccent" unicode="&#x116;" horiz-adv-x="567" 
d="M66 136l-0.000976562 452c0 36.667 7.83301 66.334 23.5 89.001s33.334 37.5 53.001 44.5s35.834 10.5 48.501 10.5s66 -1.66699 160 -5s154.667 -7 182 -11v-95h-299c-24.667 0 -40 -6 -46 -18c-4 -9.33301 -6 -22 -6 -38v-145l307 -10v-95l-307 -10v-145
c0.666992 -28 10 -44.333 28 -49c8.66699 -2 20 -3 34 -3h289v-94c-21.333 -2.66699 -101.666 -7.33398 -240.999 -14.001l-69 -3h-18.5c-7 0 -15.833 0.5 -26.5 1.5s-23.334 4.33301 -38.001 10s-27.334 13.167 -38.001 22.5c-24 22.667 -36 57.667 -36 105zM267.999 818
l-0.000976562 68c0 16.667 8 25 24 25h64c7.33301 0 13 -2.33301 17 -7s6 -10.667 6 -18v-68c0 -15.333 -7.66699 -23 -23 -23h-64c-7.33301 0 -13.166 2.16699 -17.499 6.5s-6.5 9.83301 -6.5 16.5z" />
    <glyph glyph-name="edotaccent" unicode="&#x117;" horiz-adv-x="525" 
d="M66 440c8 20 17.666 36.1641 28.999 48.4971s26.333 21.833 45 28.5c32 12 69 18 111 18s71.833 -0.666992 89.5 -2s35.5 -4.16602 53.5 -8.49902s32.333 -10.833 43 -19.5s20.334 -20 29.001 -34c16.667 -25.333 25 -67.666 25 -126.999c0 -86.667 -48 -130 -144 -130
h-189c0 -51.333 8.66699 -84.666 26 -99.999c9.33301 -8.66699 20.166 -14.334 32.499 -17.001s47.833 -4 106.5 -4s111.334 3.66699 158.001 11v-81c-54.667 -18.667 -142.667 -28 -264 -28c-66.667 0 -112.5 20.167 -137.5 60.5s-37.5 105.333 -37.5 195
s8 152.834 24 189.501zM323.999 304.997c34 0 51.001 14.332 51.001 42.999c0 40 -5.5 65.333 -16.5 76s-37.167 16 -78.5 16c-52.667 0 -84.334 -6 -95.001 -18c-14 -15.333 -22 -33.166 -24 -53.499s-3 -41.5 -3 -63.5h166zM216 618.996l0.000976562 68
c0 16.667 8 25 24 25h64c7.33301 0 13 -2.33301 17 -7s6 -10.667 6 -18v-68c0 -15.333 -7.66699 -23 -23 -23h-64c-6.66699 0 -12.334 2.16699 -17.001 6.5s-7 9.83301 -7 16.5z" />
    <glyph glyph-name="Eogonek" unicode="&#x118;" horiz-adv-x="567" 
d="M66 136l-0.000976562 452c0 36.667 7.83301 66.334 23.5 89.001s33.334 37.5 53.001 44.5s35.834 10.5 48.501 10.5s66 -1.66699 160 -5s154.667 -7 182 -11v-95h-299c-24.667 0 -40 -6 -46 -18c-4 -9.33301 -6 -22 -6 -38v-145l307 -10v-95l-307 -10v-145
c0.666992 -28 10 -44.333 28 -49c8.66699 -2 20 -3 34 -3h289v-94c-21.333 -2.66699 -101.666 -7.33398 -240.999 -14.001l-69 -3h-18.5c-7 0 -15.833 0.5 -26.5 1.5s-23.334 4.33301 -38.001 10s-27.334 13.167 -38.001 22.5c-24 22.667 -36 57.667 -36 105zM532.999 14
c-34.667 -26.667 -52 -52 -52 -76c0 -9.33301 4.16699 -18 12.5 -26s23.166 -12 44.499 -12h1v-70c-8 -2 -17.167 -3 -27.5 -3s-23.666 2.83301 -39.999 8.5s-29.833 15.5 -40.5 29.5c-15.333 20 -23 38 -23 54c0 39.333 25 71 75 95h50z" />
    <glyph glyph-name="eogonek" unicode="&#x119;" horiz-adv-x="525" 
d="M66 440c8 20 17.666 36.1641 28.999 48.4971s26.333 21.833 45 28.5c32 12 69 18 111 18s71.833 -0.666992 89.5 -2s35.5 -4.16602 53.5 -8.49902s32.333 -10.833 43 -19.5s20.334 -20 29.001 -34c16.667 -25.333 25 -67.666 25 -126.999c0 -86.667 -48 -130 -144 -130
h-189c0 -51.333 8.66699 -84.666 26 -99.999c9.33301 -8.66699 20.166 -14.334 32.499 -17.001s47.833 -4 106.5 -4s111.334 3.66699 158.001 11v-81c-54.667 -18.667 -142.667 -28 -264 -28c-66.667 0 -112.5 20.167 -137.5 60.5s-37.5 105.333 -37.5 195
s8 152.834 24 189.501zM323.999 304.997c34 0 51.001 14.332 51.001 42.999c0 40 -5.5 65.333 -16.5 76s-37.167 16 -78.5 16c-52.667 0 -84.334 -6 -95.001 -18c-14 -15.333 -22 -33.166 -24 -53.499s-3 -41.5 -3 -63.5h166zM481 22.9961
c-34.667 -26.667 -52.001 -52 -52.001 -76c0 -9.33301 4.33301 -18 13 -26s23.334 -12 44.001 -12h2v-71c-8 -1.33301 -17.333 -2 -28 -2s-24 2.83301 -40 8.5s-29.667 15.5 -41 29.5c-15.333 19.333 -23 37.333 -23 54c0 39.333 25.333 71 76 95h49z" />
    <glyph glyph-name="Ecaron" unicode="&#x11a;" horiz-adv-x="567" 
d="M66 136l-0.000976562 452c0 36.667 7.83301 66.334 23.5 89.001s33.334 37.5 53.001 44.5s35.834 10.5 48.501 10.5s66 -1.66699 160 -5s154.667 -7 182 -11v-95h-299c-24.667 0 -40 -6 -46 -18c-4 -9.33301 -6 -22 -6 -38v-145l307 -10v-95l-307 -10v-145
c0.666992 -28 10 -44.333 28 -49c8.66699 -2 20 -3 34 -3h289v-94c-21.333 -2.66699 -101.666 -7.33398 -240.999 -14.001l-69 -3h-18.5c-7 0 -15.833 0.5 -26.5 1.5s-23.334 4.33301 -38.001 10s-27.334 13.167 -38.001 22.5c-24 22.667 -36 57.667 -36 105zM166.999 927
h85l69 -64l63 64h85l-103 -133h-92z" />
    <glyph glyph-name="ecaron" unicode="&#x11b;" horiz-adv-x="525" 
d="M66 440c8 20 17.666 36.1641 28.999 48.4971s26.333 21.833 45 28.5c32 12 69 18 111 18s71.833 -0.666992 89.5 -2s35.5 -4.16602 53.5 -8.49902s32.333 -10.833 43 -19.5s20.334 -20 29.001 -34c16.667 -25.333 25 -67.666 25 -126.999c0 -86.667 -48 -130 -144 -130
h-189c0 -51.333 8.66699 -84.666 26 -99.999c9.33301 -8.66699 20.166 -14.334 32.499 -17.001s47.833 -4 106.5 -4s111.334 3.66699 158.001 11v-81c-54.667 -18.667 -142.667 -28 -264 -28c-66.667 0 -112.5 20.167 -137.5 60.5s-37.5 105.333 -37.5 195
s8 152.834 24 189.501zM323.999 304.997c34 0 51.001 14.332 51.001 42.999c0 40 -5.5 65.333 -16.5 76s-37.167 16 -78.5 16c-52.667 0 -84.334 -6 -95.001 -18c-14 -15.333 -22 -33.166 -24 -53.499s-3 -41.5 -3 -63.5h166zM124 725.996h86l69 -64l63 64h85l-103 -133h-92
z" />
    <glyph glyph-name="Gcircumflex" unicode="&#x11c;" horiz-adv-x="614" 
d="M454 49c-46.667 -36 -106.33 -54.001 -178.997 -54.001s-127.334 22.667 -164.001 68c-32 40.667 -52 102.667 -60 186c-2.66699 34 -4 73.833 -4 119.5s1.66699 85.667 5 120s10.166 68 20.499 101s24.166 59.833 41.499 80.5c38 46.667 94.667 70 170 70
c92.667 0 183 -10 271 -30v-91c-0.666992 0 -6.5 0.5 -17.5 1.5l-42.5 4c-17.333 1.66699 -36 3.16699 -56 4.5c-49.333 3.33301 -94 5 -134 5c-57.333 0 -95.333 -19.667 -114 -59s-28 -109.166 -28 -209.499s9.33301 -168.5 28 -204.5c19.333 -37.333 57 -56 113 -56
c44 0 93.333 15.333 148 46v156h-126v75c44.667 16 102.667 24 174 24c21.333 0 44 -0.666992 68 -2v-404h-84zM183.004 799.999l111 134h92l100 -134h-85l-63 64l-69 -64h-86z" />
    <glyph glyph-name="gcircumflex" unicode="&#x11d;" horiz-adv-x="558" 
d="M52.5 50.5c-8.33301 17 -12.498 35.8311 -12.498 56.498s5.16699 39.5 15.5 56.5s25.5 28.167 45.5 33.5c-20.667 13.333 -35.667 33.5 -45 60.5s-14 55.833 -14 86.5c0 62.667 15.5 109.834 46.5 141.501s75.5 47.5 133.5 47.5h319v-73l-67 -18l5.5 -11
c3 -6 5 -10.167 6 -12.5s2.5 -6.83301 4.5 -13.5s3.66699 -13 5 -19c2 -16.667 3 -33.5 3 -50.5s-1.33301 -33.167 -4 -48.5s-7.83398 -31.666 -15.501 -48.999s-17.834 -32.333 -30.501 -45c-28.667 -29.333 -70.334 -44 -125.001 -44h-135c-27.333 0 -41 -8.66699 -41 -26
c0 -19.333 13.667 -29 41 -29h181c46 0 82 -13 108 -39s39 -63 39 -111v-60c0 -76 -31.333 -124.333 -94 -145c-19.333 -6 -41.666 -9 -66.999 -9h-150c-48.667 0 -88 13 -118 39s-45 64.333 -45 115v74l44 54c-14 8.66699 -25.167 21.5 -33.5 38.5zM201.002 -5.00195
c-14 0 -28.334 1.66699 -43.001 5v-105c0 -27.333 6.5 -45.333 19.5 -54s30.5 -13 52.5 -13h107c24.667 0 41.334 5.66699 50.001 17s13 27.333 13 48v46c0 28.667 -9.66699 46 -29 52c-8 2.66699 -17.667 4 -29 4h-141zM158.001 343.998
c0 -64 25.001 -96.0029 75.001 -96.0029h71c29.333 0 49.666 8.83301 60.999 26.5s17 41.334 17 71.001s-5.83301 51.834 -17.5 66.501s-32.167 22 -61.5 22h-67c-30 0 -50.5 -8.16699 -61.5 -24.5s-16.5 -38.166 -16.5 -65.499zM126.002 596.995l111 133h92l99 -133h-85
l-63 64l-68 -64h-86z" />
    <glyph glyph-name="Gbreve" unicode="&#x11e;" horiz-adv-x="614" 
d="M454 49c-46.667 -36 -106.33 -54.001 -178.997 -54.001s-127.334 22.667 -164.001 68c-32 40.667 -52 102.667 -60 186c-2.66699 34 -4 73.833 -4 119.5s1.66699 85.667 5 120s10.166 68 20.499 101s24.166 59.833 41.499 80.5c38 46.667 94.667 70 170 70
c92.667 0 183 -10 271 -30v-91c-0.666992 0 -6.5 0.5 -17.5 1.5l-42.5 4c-17.333 1.66699 -36 3.16699 -56 4.5c-49.333 3.33301 -94 5 -134 5c-57.333 0 -95.333 -19.667 -114 -59s-28 -109.166 -28 -209.499s9.33301 -168.5 28 -204.5c19.333 -37.333 57 -56 113 -56
c44 0 93.333 15.333 148 46v156h-126v75c44.667 16 102.667 24 174 24c21.333 0 44 -0.666992 68 -2v-404h-84zM215.004 913.999l54 -0.00292969c0 -24 10 -41.667 30 -53c9.33301 -4.66699 21.5 -7 36.5 -7s28 5.33301 39 16s16.5 25.334 16.5 44.001h54
c0 -35.333 -11.333 -63.166 -34 -83.499s-47 -30.5 -73 -30.5s-47.667 4.5 -65 13.5s-31.333 22.333 -42 40s-16 37.834 -16 60.501z" />
    <glyph glyph-name="gbreve" unicode="&#x11f;" horiz-adv-x="558" 
d="M52.5 50.5c-8.33301 17 -12.498 35.8311 -12.498 56.498s5.16699 39.5 15.5 56.5s25.5 28.167 45.5 33.5c-20.667 13.333 -35.667 33.5 -45 60.5s-14 55.833 -14 86.5c0 62.667 15.5 109.834 46.5 141.501s75.5 47.5 133.5 47.5h319v-73l-67 -18l5.5 -11
c3 -6 5 -10.167 6 -12.5s2.5 -6.83301 4.5 -13.5s3.66699 -13 5 -19c2 -16.667 3 -33.5 3 -50.5s-1.33301 -33.167 -4 -48.5s-7.83398 -31.666 -15.501 -48.999s-17.834 -32.333 -30.501 -45c-28.667 -29.333 -70.334 -44 -125.001 -44h-135c-27.333 0 -41 -8.66699 -41 -26
c0 -19.333 13.667 -29 41 -29h181c46 0 82 -13 108 -39s39 -63 39 -111v-60c0 -76 -31.333 -124.333 -94 -145c-19.333 -6 -41.666 -9 -66.999 -9h-150c-48.667 0 -88 13 -118 39s-45 64.333 -45 115v74l44 54c-14 8.66699 -25.167 21.5 -33.5 38.5zM201.002 -5.00195
c-14 0 -28.334 1.66699 -43.001 5v-105c0 -27.333 6.5 -45.333 19.5 -54s30.5 -13 52.5 -13h107c24.667 0 41.334 5.66699 50.001 17s13 27.333 13 48v46c0 28.667 -9.66699 46 -29 52c-8 2.66699 -17.667 4 -29 4h-141zM158.001 343.998
c0 -64 25.001 -96.0029 75.001 -96.0029h71c29.333 0 49.666 8.83301 60.999 26.5s17 41.334 17 71.001s-5.83301 51.834 -17.5 66.501s-32.167 22 -61.5 22h-67c-30 0 -50.5 -8.16699 -61.5 -24.5s-16.5 -38.166 -16.5 -65.499zM162.002 710.995l54 -0.00195312
c0 -18 5.83301 -32.5 17.5 -43.5s26.334 -16.5 44.001 -16.5s32.167 5.33301 43.5 16s17 25.334 17 44.001h54c0 -35.333 -11.333 -63.166 -34 -83.499s-49.834 -30.5 -81.501 -30.5s-58.667 10.5 -81 31.5s-33.5 48.5 -33.5 82.5z" />
    <glyph glyph-name="Gdotaccent" unicode="&#x120;" horiz-adv-x="614" 
d="M454 49c-46.667 -36 -106.33 -54.001 -178.997 -54.001s-127.334 22.667 -164.001 68c-32 40.667 -52 102.667 -60 186c-2.66699 34 -4 73.833 -4 119.5s1.66699 85.667 5 120s10.166 68 20.499 101s24.166 59.833 41.499 80.5c38 46.667 94.667 70 170 70
c92.667 0 183 -10 271 -30v-91c-0.666992 0 -6.5 0.5 -17.5 1.5l-42.5 4c-17.333 1.66699 -36 3.16699 -56 4.5c-49.333 3.33301 -94 5 -134 5c-57.333 0 -95.333 -19.667 -114 -59s-28 -109.166 -28 -209.499s9.33301 -168.5 28 -204.5c19.333 -37.333 57 -56 113 -56
c44 0 93.333 15.333 148 46v156h-126v75c44.667 16 102.667 24 174 24c21.333 0 44 -0.666992 68 -2v-404h-84zM271.004 822.999l-0.000976562 68c0 16.667 8 25 24 25h64c7.33301 0 13 -2.33301 17 -7s6 -10.667 6 -18v-68c0 -15.333 -7.66699 -23 -23 -23h-64
c-7.33301 0 -13.166 2.16699 -17.499 6.5s-6.5 9.83301 -6.5 16.5z" />
    <glyph glyph-name="gdotaccent" unicode="&#x121;" horiz-adv-x="558" 
d="M52.5 50.5c-8.33301 17 -12.498 35.8311 -12.498 56.498s5.16699 39.5 15.5 56.5s25.5 28.167 45.5 33.5c-20.667 13.333 -35.667 33.5 -45 60.5s-14 55.833 -14 86.5c0 62.667 15.5 109.834 46.5 141.501s75.5 47.5 133.5 47.5h319v-73l-67 -18l5.5 -11
c3 -6 5 -10.167 6 -12.5s2.5 -6.83301 4.5 -13.5s3.66699 -13 5 -19c2 -16.667 3 -33.5 3 -50.5s-1.33301 -33.167 -4 -48.5s-7.83398 -31.666 -15.501 -48.999s-17.834 -32.333 -30.501 -45c-28.667 -29.333 -70.334 -44 -125.001 -44h-135c-27.333 0 -41 -8.66699 -41 -26
c0 -19.333 13.667 -29 41 -29h181c46 0 82 -13 108 -39s39 -63 39 -111v-60c0 -76 -31.333 -124.333 -94 -145c-19.333 -6 -41.666 -9 -66.999 -9h-150c-48.667 0 -88 13 -118 39s-45 64.333 -45 115v74l44 54c-14 8.66699 -25.167 21.5 -33.5 38.5zM201.002 -5.00195
c-14 0 -28.334 1.66699 -43.001 5v-105c0 -27.333 6.5 -45.333 19.5 -54s30.5 -13 52.5 -13h107c24.667 0 41.334 5.66699 50.001 17s13 27.333 13 48v46c0 28.667 -9.66699 46 -29 52c-8 2.66699 -17.667 4 -29 4h-141zM158.001 343.998
c0 -64 25.001 -96.0029 75.001 -96.0029h71c29.333 0 49.666 8.83301 60.999 26.5s17 41.334 17 71.001s-5.83301 51.834 -17.5 66.501s-32.167 22 -61.5 22h-67c-30 0 -50.5 -8.16699 -61.5 -24.5s-16.5 -38.166 -16.5 -65.499zM224.002 620.995l-0.000976562 68
c0 16.667 8 25 24 25h64c7.33301 0 13 -2.33301 17 -7s6 -10.667 6 -18v-68c0 -15.333 -7.66699 -23 -23 -23h-64c-7.33301 0 -13.166 2.16699 -17.499 6.5s-6.5 9.83301 -6.5 16.5z" />
    <glyph glyph-name="Gcommaaccent" unicode="&#x122;" horiz-adv-x="614" 
d="M454 49c-46.667 -36 -106.33 -54.001 -178.997 -54.001s-127.334 22.667 -164.001 68c-32 40.667 -52 102.667 -60 186c-2.66699 34 -4 73.833 -4 119.5s1.66699 85.667 5 120s10.166 68 20.499 101s24.166 59.833 41.499 80.5c38 46.667 94.667 70 170 70
c92.667 0 183 -10 271 -30v-91c-0.666992 0 -6.5 0.5 -17.5 1.5l-42.5 4c-17.333 1.66699 -36 3.16699 -56 4.5c-49.333 3.33301 -94 5 -134 5c-57.333 0 -95.333 -19.667 -114 -59s-28 -109.166 -28 -209.499s9.33301 -168.5 28 -204.5c19.333 -37.333 57 -56 113 -56
c44 0 93.333 15.333 148 46v156h-126v75c44.667 16 102.667 24 174 24c21.333 0 44 -0.666992 68 -2v-404h-84zM371.004 -200.001c0 -48.667 -26.667 -72.999 -80 -72.999c-5.33301 0 -10 0.333008 -14 1l-11 2v39c8.66699 -0.666992 15 0.666016 19 3.99902c6 4 9 11 9 21
v16h-10c-14.667 0 -22 7.33301 -22 22v68c0 16 7.33301 24 22 24h65c14.667 0 22 -8 22 -24v-100z" />
    <glyph glyph-name="gcommaaccent" unicode="&#x123;" horiz-adv-x="558" 
d="M220 717c0 48.667 26.333 72.999 79 72.999c5.33301 0 10.333 -0.333008 15 -1l11 -2v-39c-8.66699 0.666992 -15 -0.666016 -19 -3.99902c-6 -4 -9 -10.667 -9 -20v-17h10c14.667 0 22 -7.33301 22 -22v-68c0 -16 -7.33301 -24 -22 -24h-65c-14.667 0 -22 8 -22 24v100z
M40 105.999c0 22.667 5.00195 42.499 15.002 59.499s25.333 27.5 46 31.5c-20.667 13.333 -35.667 33.5 -45 60.5s-14 55.833 -14 86.5c0 62.667 15.5 109.834 46.5 141.501s75.5 47.5 133.5 47.5h319v-73l-67 -18l5.5 -11c3 -6 5 -10.167 6 -12.5s2.5 -6.83301 4.5 -13.5
s3.66699 -13 5 -19c2 -16.667 3 -33.5 3 -50.5s-1.33301 -33.167 -4 -48.5s-7.83398 -31.666 -15.501 -48.999s-17.834 -32.333 -30.501 -45c-28.667 -29.333 -70.334 -44 -125.001 -44h-135c-27.333 0 -41 -9 -41 -27c0 -10.667 3.33301 -17.834 10 -21.501
s17 -6.5 31 -8.5l173 -20c50 -6 88.333 -21 115 -45s40 -60.667 40 -110v-33c0 -76 -31.333 -124.333 -94 -145c-19.333 -6 -41.666 -9 -66.999 -9h-150c-48.667 0 -88 13 -118 39s-45 64.333 -45 115v78l48 53c-33.333 20.667 -50 51 -50 91zM158.002 -105.002
c0 -27.333 6.49902 -45.332 19.499 -53.999s30.167 -13 51.5 -13h108c24.667 0 41.334 5.66699 50.001 17s13 27.333 13 48v23c0 33.333 -23.667 52.666 -71 57.999l-121 16l-50 7v-102zM236.001 437.999c-52 0 -78.001 -32.332 -78.001 -96.999s25 -97 75 -97h71
c28.667 0 48.834 9.5 60.501 28.5s17.5 43.667 17.5 74s-5.83301 53.166 -17.5 68.499s-32.167 23 -61.5 23h-67z" />
    <glyph glyph-name="Hcircumflex" unicode="&#x124;" horiz-adv-x="637" 
d="M68 0v732h116v-324h287v324h116v-732h-116v300h-287v-300h-116zM176 797l111 133h92l99 -133h-84l-64 64l-68 -64h-86z" />
    <glyph glyph-name="hcircumflex" unicode="&#x125;" 
d="M24 0l0.00488281 783.002h116v-311c1.33301 1.33301 8.16602 6.16602 20.499 14.499s24.666 15.833 36.999 22.5s29.666 13.5 51.999 20.5s45.166 10.5 68.499 10.5c55.333 0 96 -16.833 122 -50.5s39 -76.834 39 -129.501v-360h-116v361c0 54 -23.333 81 -70 81
c-30.667 0 -56.334 -3.83301 -77.001 -11.5s-46 -20.5 -76 -38.5v-392h-116zM-67.9951 843.002l111 134h92l99 -134h-85l-63 64l-68 -64h-86z" />
    <glyph glyph-name="Hbar" unicode="&#x126;" horiz-adv-x="676" 
d="M16 516v61h63v155h116v-155h287v155h116v-155h61v-61h-61v-516h-116v300h-287v-300h-116v516h-63zM195 408h287v108h-287v-108z" />
    <glyph glyph-name="hbar" unicode="&#x127;" horiz-adv-x="556" 
d="M60 668v115h118v-115h120v-61h-120v-134c27.333 16 47 27.167 59 33.5s29.833 13.5 53.5 21.5s41.167 12 52.5 12h18.5h4.5c74.667 0 121.667 -36.667 141 -110c5.33301 -20.667 8 -43.667 8 -69v-361h-118v360c-0.666992 28 -6.66699 48.833 -18 62.5
s-29.666 20.5 -54.999 20.5c-44.667 -2 -93.334 -19 -146.001 -51v-392h-118v606h-71v62h71z" />
    <glyph glyph-name="Itilde" unicode="&#x128;" horiz-adv-x="234" 
d="M68 0v732h116v-732h-116zM184 880c22 0 51.6709 12.335 89.0039 37.002l23 -53c-14.667 -14.667 -25.834 -25.334 -33.501 -32.001s-19.334 -14 -35.001 -22s-26.834 -12 -33.501 -12c-24 0 -47.333 5.66699 -70 17s-39.667 17 -51 17c-18 0 -32 -2.33301 -42 -7
s-20 -9.83398 -30 -15.501s-17.667 -9.83398 -23 -12.501l-23 50c21.333 21.333 41.5 38 60.5 50s37.833 17.833 56.5 17.5s39.167 -6.16602 61.5 -17.499s36.166 -17 41.499 -17h9z" />
    <glyph glyph-name="itilde" unicode="&#x129;" horiz-adv-x="217" 
d="M51 0v531h116v-531h-116zM167 679c22 0 51.666 12.335 88.999 37.002l24 -53c-15.333 -14.667 -26.833 -25.334 -34.5 -32.001s-19.167 -14 -34.5 -22s-26.666 -12 -33.999 -12c-24 0 -47.167 5.66699 -69.5 17s-39.5 17 -51.5 17c-18 0 -32 -2.33301 -42 -7
s-20 -9.83398 -30 -15.501s-17.667 -9.83398 -23 -12.501l-23 50c22 21.333 42.333 38 61 50s37.5 17.833 56.5 17.5s39.5 -6.16602 61.5 -17.499s35.667 -17 41 -17h9z" />
    <glyph glyph-name="Imacron" unicode="&#x12a;" horiz-adv-x="234" 
d="M68 0v732h116v-732h-116zM-20 797v73h292v-73h-292z" />
    <glyph glyph-name="imacron" unicode="&#x12b;" horiz-adv-x="217" 
d="M51 0v531h116v-531h-116zM-37 596v74h292v-74h-292z" />
    <glyph glyph-name="Iogonek" unicode="&#x12e;" horiz-adv-x="234" 
d="M68 0v732h116v-732h-116zM156 0c-34.667 -26.667 -52.002 -52 -52.002 -76c0 -9.33301 4.16699 -18 12.5 -26s22.833 -12 43.5 -12h2v-70c-8 -2 -17.167 -3 -27.5 -3s-23.666 2.83301 -39.999 8.5s-30.166 15.5 -41.499 29.5c-14.667 20 -22 38 -22 54
c0 39.333 25 71 75 95h50z" />
    <glyph glyph-name="iogonek" unicode="&#x12f;" horiz-adv-x="216" 
d="M151 714c15.333 0 23.001 -8.66699 23.001 -26v-76c0 -15.333 -7.66699 -23 -23 -23h-85c-6.66699 0 -12.334 2.16699 -17.001 6.5s-7 9.83301 -7 16.5v76c0 17.333 8 26 24 26h85zM49.001 0v531h116v-531h-116zM137.001 0c-34.667 -26.667 -52.002 -52 -52.002 -76
c0 -9.33301 4.16699 -18 12.5 -26s22.833 -12 43.5 -12h2v-70c-8 -2 -17.167 -3 -27.5 -3s-23.666 2.83301 -39.999 8.5s-30.166 15.5 -41.499 29.5c-14.667 20 -22 38 -22 54c0 39.333 25 71 75 95h50z" />
    <glyph glyph-name="Idotaccent" unicode="&#x130;" horiz-adv-x="234" 
d="M68 0v732h116v-732h-116zM70 820l0.000976562 68c0 16.667 8 25 24 25h64c7.33301 0 13 -2.33301 17 -7s6 -10.667 6 -18v-68c0 -15.333 -7.66699 -23 -23 -23h-64c-6.66699 0 -12.334 2.16699 -17.001 6.5s-7 9.83301 -7 16.5z" />
    <glyph glyph-name="dotlessi" unicode="&#x131;" horiz-adv-x="217" 
d="M51 0v531h116v-531h-116z" />
    <glyph glyph-name="Jcircumflex" unicode="&#x134;" horiz-adv-x="357" 
d="M254 18c-24.667 -15.333 -61.168 -22.998 -109.501 -22.998s-86.5 9 -114.5 27l2 89c1.33301 0 6.16602 -0.5 14.499 -1.5s15.833 -2 22.5 -3s15.834 -1.83301 27.501 -2.5s20.5 -0.333984 26.5 0.999023l22 5c8.66699 2 15.167 5.66699 19.5 11s8.83301 11.333 13.5 18
c8.66699 13.333 13 35 13 65v528h116v-567c0 -20.667 -0.833008 -38.334 -2.5 -53.001s-6.66699 -31.5 -15 -50.5s-20.166 -33.5 -35.499 -43.5zM97.999 797.002l111 133h92l99 -133h-85l-63 64l-68 -64h-86z" />
    <glyph glyph-name="jcircumflex" unicode="&#x135;" horiz-adv-x="233" 
d="M-34 597l111 153h92l100 -153h-78l-71 77l-74 -77h-80zM60 -270v801h119v-535v-17c0 -102 -11 -185 -33 -249h-86z" />
    <glyph glyph-name="Kcommaaccent" unicode="&#x136;" horiz-adv-x="615" 
d="M68 0v732h112v-314h68l201 314h137l-234 -366l234 -366h-137l-201 312h-67v-312h-113zM365 -195c0 -48.667 -26.666 -73 -79.999 -73c-5.33301 0 -10 0.333008 -14 1l-11 3v38c17.333 -0.666992 26.666 5.33301 27.999 18v6v17h-10c-14.667 0 -22 7.33301 -22 22v68
c0 16 7.33301 24 22 24h65c14.667 0 22 -8 22 -24v-100z" />
    <glyph glyph-name="kcommaaccent" unicode="&#x137;" horiz-adv-x="536" 
d="M51 0v782h116v-433h33l170 182h150l-213 -229l213 -302h-139l-181 254h-33v-254h-116zM248 -267c-9.33301 0 -18.667 1.00098 -28 3.00098v38c8 -0.666992 14.333 0.666016 19 3.99902c5.33301 4 8 10.667 8 20v17h-9c-15.333 0 -23 7.33301 -23 22v68
c0 16 7.66699 24 23 24h64c14.667 0 22 -8 22 -24v-100c0 -48 -25.333 -72 -76 -72z" />
    <glyph glyph-name="kgreenlandic" unicode="&#x138;" horiz-adv-x="550" 
d="M51 0v531h116v-221h63l163 221h141l-199 -267l181 -264h-138l-151 216h-59l-1 -216h-116z" />
    <glyph glyph-name="Lacute" unicode="&#x139;" horiz-adv-x="546" 
d="M68 136l0.000976562 595.998h116v-571c0 -25.333 7 -40.666 21 -45.999c10 -4 23.667 -6 41 -6h271v-109h-303c-70.667 0 -115.334 22.667 -134.001 68c-8 18.667 -12 41.334 -12 68.001zM84.001 796.998l97 137h112l-126 -137h-83z" />
    <glyph glyph-name="lacute" unicode="&#x13a;" horiz-adv-x="308" 
d="M51 189v594.001h116v-580c0 -37.333 4 -63.333 12 -78s20.667 -24.667 38 -30c45.333 -14 70.333 -21 75 -21v-74h-106c-44 0 -77.5 14.667 -100.5 44s-34.5 77.666 -34.5 144.999zM88 843.001l96 137h113l-126 -137h-83z" />
    <glyph glyph-name="Lcommaaccent" unicode="&#x13b;" horiz-adv-x="546" 
d="M68 136l0.000976562 595.998h116v-571c0 -25.333 7 -40.666 21 -45.999c10 -4 23.667 -6 41 -6h271v-109h-303c-70.667 0 -115.334 22.667 -134.001 68c-8 18.667 -12 41.334 -12 68.001zM354.001 -193.002c0 -48.667 -26.333 -72.999 -79 -72.999
c-5.33301 0 -10.333 0.333008 -15 1l-10 2v39c8 -0.666992 14.333 0.666016 19 3.99902c6 4 9 10.667 9 20v16h-10c-15.333 0 -23 7.66699 -23 23v67c0 16.667 7.66699 25 23 25h64c14.667 0 22 -8.33301 22 -25v-99z" />
    <glyph glyph-name="lcommaaccent" unicode="&#x13c;" horiz-adv-x="308" 
d="M51 189v594.001h116v-580c0 -37.333 4 -63.333 12 -78s20.667 -24.667 38 -30c45.333 -14 70.333 -21 75 -21v-74h-106c-44 0 -77.5 14.667 -100.5 44s-34.5 77.666 -34.5 144.999zM225 -193.999c0 -48 -26.333 -72 -79 -72c-5.33301 0 -10.333 0.333008 -15 1l-10 2v38
c8 0 14.333 1.33301 19 4c5.33301 4.66699 8 11.667 8 21v16h-9c-15.333 0 -23 7.66699 -23 23v67c0 16 7.66699 24 23 24h64c14.667 0 22 -8 22 -24v-100z" />
    <glyph glyph-name="Lcaron" unicode="&#x13d;" horiz-adv-x="546" 
d="M68 136l0.000976562 595.998h116v-571c0 -25.333 7 -40.666 21 -45.999c10 -4 23.667 -6 41 -6h271v-109h-303c-70.667 0 -115.334 22.667 -134.001 68c-8 18.667 -12 41.334 -12 68.001zM251.001 771.998h88v-67l-10 -134h-67l-11 134v67z" />
    <glyph glyph-name="lcaron" unicode="&#x13e;" horiz-adv-x="337" 
d="M51 189v594.002h116v-580c0 -38 3.5 -63.833 10.5 -77.5s20.167 -23.834 39.5 -30.501c45.333 -14 70.333 -21 75 -21v-74h-106c-48 0 -82.5 14.167 -103.5 42.5s-31.5 77.166 -31.5 146.499zM236 781.002h88v-67l-10 -134h-67l-11 134v67z" />
    <glyph glyph-name="Lslash" unicode="&#x141;" horiz-adv-x="565" 
d="M88 732l116.001 -0.00195312v-269l122 52v-67l-122 -53v-234c0 -25.333 7 -40.666 21 -45.999c10 -4 23.667 -6 41 -6h271v-109h-303c-70.667 0 -115.334 22.667 -134.001 68c-8 18.667 -12 41.334 -12 68.001v209l-80 -34v68l80 34v319z" />
    <glyph glyph-name="lslash" unicode="&#x142;" horiz-adv-x="347" 
d="M87 783l116 0.000976562v-276l126 55l-1 -68l-125 -54v-237c0 -37.333 4.16699 -63.333 12.5 -78s20.833 -24.667 37.5 -30c45.333 -14 70.333 -21 75 -21v-74h-105c-44 0 -77.667 14.667 -101 44s-35 77.666 -35 144.999v201l-77 -33v68l77 33v325z" />
    <glyph glyph-name="Nacute" unicode="&#x143;" horiz-adv-x="678" 
d="M68 0v732h118l326 -517v517h116v-732h-116l-327 514v-514h-117zM313 797l97 137h112l-126 -137h-83z" />
    <glyph glyph-name="nacute" unicode="&#x144;" 
d="M390 361c0 54 -23.3311 81.001 -69.998 81.001c-30.667 0 -56.334 -3.83301 -77.001 -11.5s-46 -20.5 -76 -38.5v-392h-116v531h90l26 -59l21.5 14.5c12.333 8.33301 24.666 16 36.999 23s29.5 13.833 51.5 20.5s44.667 10 68 10c55.333 0 96 -16.833 122 -50.5
s39 -76.834 39 -129.501v-360h-116v361zM235.002 600.001l96 136h113l-126 -136h-83z" />
    <glyph glyph-name="Ncommaaccent" unicode="&#x145;" horiz-adv-x="678" 
d="M68 0v732h118l326 -517v517h116v-732h-116l-327 514v-514h-117zM400 -195c0 -48.667 -26.333 -72.999 -79 -72.999c-5.33301 0 -10.333 0.333008 -15 1l-10 3v38c8 -0.666992 14.333 0.666016 19 3.99902c5.33301 4 8 10.667 8 20v17h-9c-15.333 0 -23 7.33301 -23 22v68
c0 16 7.66699 24 23 24h64c14.667 0 22 -8 22 -24v-100z" />
    <glyph glyph-name="ncommaaccent" unicode="&#x146;" 
d="M390 361c0 54 -23.3311 81.001 -69.998 81.001c-30.667 0 -56.334 -3.83301 -77.001 -11.5s-46 -20.5 -76 -38.5v-392h-116v531h90l26 -59l21.5 14.5c12.333 8.33301 24.666 16 36.999 23s29.5 13.833 51.5 20.5s44.667 10 68 10c55.333 0 96 -16.833 122 -50.5
s39 -76.834 39 -129.501v-360h-116v361zM256.002 -266.999c-10 0 -19.667 1.00098 -29 3.00098v38c8 -0.666992 14.333 0.666016 19 3.99902c6 4 9 10.667 9 20v17h-10c-14.667 0 -22 7.33301 -22 22v68c0 16 7.33301 24 22 24h65c14 0 21 -8 21 -24v-100
c0 -48 -25 -72 -75 -72z" />
    <glyph glyph-name="Ncaron" unicode="&#x147;" horiz-adv-x="678" 
d="M68 0v732h118l326 -517v517h116v-732h-116l-327 514v-514h-117zM203 930h86l69 -64l62 64h86l-103 -133h-92z" />
    <glyph glyph-name="ncaron" unicode="&#x148;" 
d="M390 361c0 54 -23.3311 81.001 -69.998 81.001c-30.667 0 -56.334 -3.83301 -77.001 -11.5s-46 -20.5 -76 -38.5v-392h-116v531h90l26 -59l21.5 14.5c12.333 8.33301 24.666 16 36.999 23s29.5 13.833 51.5 20.5s44.667 10 68 10c55.333 0 96 -16.833 122 -50.5
s39 -76.834 39 -129.501v-360h-116v361zM134.002 734.001h86l69 -64l62 64h86l-103 -134h-92z" />
    <glyph glyph-name="Eng" unicode="&#x14a;" horiz-adv-x="677" 
d="M68 0l0.000976562 731.999h118l325 -510v510h116v-809c0 -88.667 -34.667 -144 -104 -166c-30 -10 -64.667 -15 -104 -15c-10 0 -20 0.333008 -30 1v85l23.5 4c11.667 2 20.167 3.5 25.5 4.5s12.666 3 21.999 6s16.333 6.83301 21 11.5s9.66699 10.334 15 17.001
c10 12.667 15 33.667 15 63v66l-326 514l-1 -514h-116z" />
    <glyph glyph-name="eng" unicode="&#x14b;" horiz-adv-x="556" 
d="M390 361c0 54 -23.333 80.999 -70 80.999c-30.667 0 -56.334 -3.83301 -77.001 -11.5s-46 -20.5 -76 -38.5v-392h-116v531h90l26 -59l22.5 14l23 14l22 12.5c9 5 17.167 8.83301 24.5 11.5s15.666 5.33398 24.999 8.00098c17.333 5.33301 39 8 65 8
s49.5 -4.83301 70.5 -14.5s37.833 -22.834 50.5 -39.501c24 -33.333 36 -75.666 36 -126.999v-359l-1 -76c-1.33301 -28.667 -6.5 -54.167 -15.5 -76.5s-19.667 -39.833 -32 -52.5s-27.5 -23.667 -45.5 -33c-26 -13.333 -56.333 -23.333 -91 -30l-34 62
c42.667 19.333 69.334 36.666 80.001 51.999c14.667 20.667 22.334 45.334 23.001 74.001v441z" />
    <glyph glyph-name="Omacron" unicode="&#x14c;" horiz-adv-x="672" 
d="M58 269.5c-2 27.667 -3.00293 61.8311 -3.00293 102.498s2.5 79.834 7.5 117.501s11.833 69.667 20.5 96s20 48.833 34 67.5s28.5 33.334 43.5 44.001s33.167 19 54.5 25c34.667 10 72 15 112 15s69.833 -1 89.5 -3s40.334 -6 62.001 -12s39.834 -14.333 54.501 -25
s28.834 -25.334 42.501 -44.001s24.5 -41 32.5 -67c18 -58 27 -133 27 -225c0 -134 -19 -227 -57 -279c-26 -35.333 -58 -58.666 -96 -69.999c-47.333 -14 -110 -19 -188 -15c-38.667 2 -66.5 6 -83.5 12s-31.833 12.5 -44.5 19.5s-23.667 15.5 -33 25.5
s-18.333 21.667 -27 35s-16 28.833 -22 46.5s-11.333 37.5 -16 59.5s-8 46.833 -10 74.5zM173.497 446.497c-1.66699 -25 -2.50195 -54.8359 -2.50195 -89.5029s1.16699 -65.167 3.5 -91.5s6.33301 -49.333 12 -69s12.5 -35.167 20.5 -46.5s19 -20.666 33 -27.999
c23.333 -11.333 55.5 -17 96.5 -17s71.833 3.16699 92.5 9.5s38.167 18.833 52.5 37.5s24.166 44.5 29.499 77.5s8 69.5 8 109.5s-0.5 70.333 -1.5 91s-2.66699 39.334 -5 56.001s-5 31.5 -8 44.5s-7 24.333 -12 34s-9.83301 18 -14.5 25s-11 12.833 -19 17.5
s-15.5 8.33398 -22.5 11.001s-15.833 5 -26.5 7c-17.333 2 -36.666 3 -57.999 3s-37.166 -0.333008 -47.499 -1s-22 -2.16699 -35 -4.5s-23.167 -6 -30.5 -11s-15.333 -11.833 -24 -20.5s-15.167 -19.5 -19.5 -32.5s-8.66602 -28.667 -12.999 -47s-7.33301 -40 -9 -65z
M199.995 796.994v73h292v-73h-292z" />
    <glyph glyph-name="omacron" unicode="&#x14d;" horiz-adv-x="563" 
d="M54 136.5c-8 32.333 -12.001 78.833 -12.001 139.5s7.83301 111 23.5 151s40.334 68.167 74.001 84.5s81.167 24.5 142.5 24.5c90.667 0 153.167 -20 187.5 -60s51.5 -111.167 51.5 -213.5s-17.167 -172.5 -51.5 -210.5s-96.833 -57 -187.5 -57
c-46 0 -84.167 4.66699 -114.5 14s-54.833 24.833 -73.5 46.5s-32 48.667 -40 81zM160.499 328.5c-1.66699 -19 -2.49902 -41.835 -2.49902 -68.502s1 -49 3 -67s5.5 -33 10.5 -45s10.5 -21.667 16.5 -29s14 -13 24 -17c16.667 -5.33301 37.5 -8 62.5 -8
s43.167 0.833008 54.5 2.5s22.666 5.33398 33.999 11.001s19.666 14.5 24.999 26.5c11.333 26.667 17 61 17 103s-0.833008 72.5 -2.5 91.5s-4.66699 35.333 -9 49s-9.16602 24.334 -14.499 32.001s-13 13.5 -23 17.5c-16 6.66699 -36.667 10.167 -62 10.5
s-43.333 -0.166992 -54 -1.5s-21.167 -4.16602 -31.5 -8.49902s-18.333 -10.333 -24 -18s-10.667 -18.334 -15 -32.001s-7.33301 -30 -9 -49zM136 595.998v74h292v-74h-292z" />
    <glyph glyph-name="Ohungarumlaut" unicode="&#x150;" horiz-adv-x="672" 
d="M58 269.5c-2 27.667 -3.00293 61.8311 -3.00293 102.498s2.5 79.834 7.5 117.501s11.833 69.667 20.5 96s20 48.833 34 67.5s28.5 33.334 43.5 44.001s33.167 19 54.5 25c34.667 10 72 15 112 15s69.833 -1 89.5 -3s40.334 -6 62.001 -12s39.834 -14.333 54.501 -25
s28.834 -25.334 42.501 -44.001s24.5 -41 32.5 -67c18 -58 27 -133 27 -225c0 -134 -19 -227 -57 -279c-26 -35.333 -58 -58.666 -96 -69.999c-47.333 -14 -110 -19 -188 -15c-38.667 2 -66.5 6 -83.5 12s-31.833 12.5 -44.5 19.5s-23.667 15.5 -33 25.5
s-18.333 21.667 -27 35s-16 28.833 -22 46.5s-11.333 37.5 -16 59.5s-8 46.833 -10 74.5zM173.497 446.497c-1.66699 -25 -2.50195 -54.8359 -2.50195 -89.5029s1.16699 -65.167 3.5 -91.5s6.33301 -49.333 12 -69s12.5 -35.167 20.5 -46.5s19 -20.666 33 -27.999
c23.333 -11.333 55.5 -17 96.5 -17s71.833 3.16699 92.5 9.5s38.167 18.833 52.5 37.5s24.166 44.5 29.499 77.5s8 69.5 8 109.5s-0.5 70.333 -1.5 91s-2.66699 39.334 -5 56.001s-5 31.5 -8 44.5s-7 24.333 -12 34s-9.83301 18 -14.5 25s-11 12.833 -19 17.5
s-15.5 8.33398 -22.5 11.001s-15.833 5 -26.5 7c-17.333 2 -36.666 3 -57.999 3s-37.166 -0.333008 -47.499 -1s-22 -2.16699 -35 -4.5s-23.167 -6 -30.5 -11s-15.333 -11.833 -24 -20.5s-15.167 -19.5 -19.5 -32.5s-8.66602 -28.667 -12.999 -47s-7.33301 -40 -9 -65z
M229.995 796.994l97 137h112l-126 -137h-83zM377.995 796.994l97 137h113l-126 -137h-84z" />
    <glyph glyph-name="ohungarumlaut" unicode="&#x151;" horiz-adv-x="563" 
d="M54 136.5c-8 32.333 -12.001 78.833 -12.001 139.5s7.83301 111 23.5 151s40.334 68.167 74.001 84.5s81.167 24.5 142.5 24.5c90.667 0 153.167 -20 187.5 -60s51.5 -111.167 51.5 -213.5s-17.167 -172.5 -51.5 -210.5s-96.833 -57 -187.5 -57
c-46 0 -84.167 4.66699 -114.5 14s-54.833 24.833 -73.5 46.5s-32 48.667 -40 81zM160.499 328.5c-1.66699 -19 -2.49902 -41.835 -2.49902 -68.502s1 -49 3 -67s5.5 -33 10.5 -45s10.5 -21.667 16.5 -29s14 -13 24 -17c16.667 -5.33301 37.5 -8 62.5 -8
s43.167 0.833008 54.5 2.5s22.666 5.33398 33.999 11.001s19.666 14.5 24.999 26.5c11.333 26.667 17 61 17 103s-0.833008 72.5 -2.5 91.5s-4.66699 35.333 -9 49s-9.16602 24.334 -14.499 32.001s-13 13.5 -23 17.5c-16 6.66699 -36.667 10.167 -62 10.5
s-43.333 -0.166992 -54 -1.5s-21.167 -4.16602 -31.5 -8.49902s-18.333 -10.333 -24 -18s-10.667 -18.334 -15 -32.001s-7.33301 -30 -9 -49zM166 595.998l96 136h113l-126 -136h-83zM314 595.998l97 136h112l-126 -136h-83z" />
    <glyph glyph-name="OE" unicode="&#x152;" horiz-adv-x="1025" 
d="M172.5 430.5c-1 -21 -1.49805 -49.165 -1.49805 -84.498s1.83301 -67.5 5.5 -96.5s9 -53.5 16 -73.5s17.833 -35 32.5 -45c26 -17.333 66 -26 120 -26c52.667 0 92 9.33301 118 28c37.333 26.667 56 102.667 56 228c0 66.667 -2.66699 112.667 -8 138
s-10.333 44.666 -15 57.999s-11 24.333 -19 33s-15.833 15.5 -23.5 20.5s-17.834 8.83301 -30.501 11.5c-20 4 -41.333 6 -64 6s-38.334 -0.166992 -47.001 -0.5s-18.5 -1.16602 -29.5 -2.49902s-19.833 -3.33301 -26.5 -6s-14.167 -6.33398 -22.5 -11.001
s-14.833 -10.334 -19.5 -17.001s-9.66699 -15 -15 -25s-9.5 -21.333 -12.5 -34s-5.83301 -27.5 -8.5 -44.5s-4.5 -36 -5.5 -57zM59.502 261.002c-3 30 -4.49805 66.165 -4.49805 108.498s2.5 82.333 7.5 120s11.833 69.667 20.5 96s20 48.833 34 67.5
s28.333 33.334 43 44.001s33 19 55 25c34 10 76.167 15 126.5 15s91.833 -4 124.5 -12s60 -23.667 82 -47c21.333 36 56.666 54 105.999 54c4 0 52.333 -1.66699 145 -5s152.667 -7 180 -11v-95h-292c-24.667 0 -40 -6 -46 -18c-4 -9.33301 -6 -22 -6 -38v-145l301 -10v-95
l-301 -10v-145c0 -25.333 7 -40.666 21 -45.999c10 -4 23.667 -6 41 -6h282v-94c-22.667 -3.33301 -114.334 -8.66602 -275.001 -15.999l-28 -1h-16c-56 0 -94.333 18 -115 54c-22 -21.333 -49 -35.833 -81 -43.5s-65.333 -11.5 -100 -11.5s-60.167 0.5 -76.5 1.5
s-33.5 3 -51.5 6s-33.5 7.33301 -46.5 13s-26.167 13 -39.5 22s-24.5 20 -33.5 33s-17.667 28.667 -26 47s-14.833 39.166 -19.5 62.499s-8.5 50 -11.5 80z" />
    <glyph glyph-name="oe" unicode="&#x153;" horiz-adv-x="886" 
d="M54 136.5c-8 32.333 -12.002 78.8311 -12.002 139.498s7.83301 111 23.5 151s40.334 68.167 74.001 84.5s81.167 24.5 142.5 24.5c84 0 142.667 -18.333 176 -55c21.333 27.333 55 44 101 50c20 2.66699 44.5 4 73.5 4s52.167 -0.666992 69.5 -2s35 -4.16602 53 -8.49902
s32.333 -10.833 43 -19.5s20.667 -20 30 -34c16 -25.333 24 -67.666 24 -126.999c0 -86 -48 -129 -144 -129h-188v-11c0 -42 7.83301 -71 23.5 -87s43.5 -24 83.5 -24c96.667 0 168.334 3.66699 215.001 11v-81c-54.667 -18.667 -142.667 -28 -264 -28
c-58 0 -99 16.667 -123 50c-33.333 -33.333 -91 -50 -173 -50c-46 0 -84.167 4.66699 -114.5 14s-54.833 24.833 -73.5 46.5s-32 48.667 -40 81zM160.498 328.498c-1.66699 -19 -2.49707 -41.834 -2.49707 -68.501s1 -49 3 -67s5.5 -33 10.5 -45s10.5 -21.667 16.5 -29
s14 -13 24 -17c16.667 -5.33301 36.5 -8 59.5 -8s40.167 0.666992 51.5 2s21.5 3.5 30.5 6.5s16.333 7.83301 22 14.5s10.5 13.834 14.5 21.501s7 18.5 9 32.5c2.66699 24 4 58.333 4 103s-3.33301 78.667 -10 102s-18.334 39.5 -35.001 48.5s-37.834 13.5 -63.501 13.5
s-43.834 -0.666992 -54.501 -2s-21.167 -4.16602 -31.5 -8.49902s-18.333 -10.333 -24 -18s-10.667 -18.334 -15 -32.001s-7.33301 -30 -9 -49zM736.001 347.997c0 40 -5.5 65.333 -16.5 76s-33.167 16 -66.5 16s-56.666 -1.33301 -69.999 -4
c-32.667 -5.33301 -52.334 -24.333 -59.001 -57c-2.66699 -14 -4 -28 -4 -42v-32h165c34 0 51 14.333 51 43z" />
    <glyph glyph-name="Racute" unicode="&#x154;" horiz-adv-x="602" 
d="M54 0l-0.000976562 731.999h318c125.333 0 188 -75 188 -225c0 -94.667 -21 -157 -63 -187c-14 -10 -24.167 -16.167 -30.5 -18.5s-15.166 -5.16602 -26.499 -8.49902l144 -293h-130l-133 285l-151 14v-299h-116zM170.999 392.999h192c14 0 25 1.16699 33 3.5
s16 6.83301 24 13.5c15.333 14 23 45.167 23 93.5s-7 80.833 -21 97.5s-33.667 25 -59 25h-192v-233zM257.999 793.999l96 136h113l-126 -136h-83z" />
    <glyph glyph-name="racute" unicode="&#x155;" horiz-adv-x="420" 
d="M51 0l0.000976562 531h94l22 -67c19.333 15.333 35.666 27.333 48.999 36s31 17 53 25s46.667 12 74 12s46.333 -2.33301 57 -7v-113c-17.333 2.66699 -39.833 4 -67.5 4s-50.167 -1.66699 -67.5 -5c-33.333 -7.33301 -66 -25.333 -98 -54v-362h-116zM197.001 597l96 137
h113l-126 -137h-83z" />
    <glyph glyph-name="Rcommaaccent" unicode="&#x156;" horiz-adv-x="602" 
d="M54 0l-0.000976562 731.999h318c125.333 0 188 -75 188 -225c0 -94.667 -21 -157 -63 -187c-14 -10 -24.167 -16.167 -30.5 -18.5s-15.166 -5.16602 -26.499 -8.49902l144 -293h-130l-133 285l-151 14v-299h-116zM170.999 392.999h192c14 0 25 1.16699 33 3.5
s16 6.83301 24 13.5c15.333 14 23 45.167 23 93.5s-7 80.833 -21 97.5s-33.667 25 -59 25h-192v-233zM352.999 -193.001c0 -48 -26.333 -72 -79 -72c-5.33301 0 -10 0.333008 -14 1l-11 2v38c8 0 14.333 1.33301 19 4c6 4.66699 9 11.667 9 21v16h-10
c-14.667 0 -22 7.66699 -22 23v67c0 16 7.33301 24 22 24h65c14 0 21 -8 21 -24v-100z" />
    <glyph glyph-name="rcommaaccent" unicode="&#x157;" horiz-adv-x="420" 
d="M48 0l0.000976562 531h94l22 -67c19.333 15.333 35.666 27.333 48.999 36s31.166 17 53.499 25s47 12 74 12s46.167 -2.33301 57.5 -7v-113c-18 2.66699 -43.667 4 -77 4s-61.666 -4.16699 -84.999 -12.5s-47.333 -23.833 -72 -46.5v-362h-116zM158.001 -195
c0 -48.667 -26.333 -72.999 -79 -72.999c-5.33301 0 -10 0.333008 -14 1l-11 3v38c8 -0.666992 14.333 0.666016 19 3.99902c6 4 9 10.667 9 20v17h-10c-14.667 0 -22 7.33301 -22 22v68c0 16 7.33301 24 22 24h65c14 0 21 -8 21 -24v-100z" />
    <glyph glyph-name="Rcaron" unicode="&#x158;" horiz-adv-x="602" 
d="M54 0l-0.000976562 731.999h318c125.333 0 188 -75 188 -225c0 -94.667 -21 -157 -63 -187c-14 -10 -24.167 -16.167 -30.5 -18.5s-15.166 -5.16602 -26.499 -8.49902l144 -293h-130l-133 285l-151 14v-299h-116zM170.999 392.999h192c14 0 25 1.16699 33 3.5
s16 6.83301 24 13.5c15.333 14 23 45.167 23 93.5s-7 80.833 -21 97.5s-33.667 25 -59 25h-192v-233zM146.999 929.999h86l69 -64l62 64h86l-103 -133h-92z" />
    <glyph glyph-name="rcaron" unicode="&#x159;" horiz-adv-x="420" 
d="M51 0l0.000976562 531h94l22 -67c19.333 15.333 35.666 27.333 48.999 36s31 17 53 25s46.667 12 74 12s46.333 -2.33301 57 -7v-113c-17.333 2.66699 -39.833 4 -67.5 4s-50.167 -1.66699 -67.5 -5c-33.333 -7.33301 -66 -25.333 -98 -54v-362h-116zM74.001 730h86
l69 -64l63 64h85l-103 -133h-92z" />
    <glyph glyph-name="Sacute" unicode="&#x15a;" horiz-adv-x="588" 
d="M55 489l0.00390625 64.001c0 70 19.333 119 58 147c35.333 25.333 86.333 38 153 38c38 0 83.667 -2.83301 137 -8.5s93.666 -11.834 120.999 -18.501v-92c-28 2 -72.333 4.33301 -133 7c-62.667 2 -107 3 -133 3s-47 -4.66699 -63 -14s-24 -32.333 -24 -69v-47
c0 -32.667 6.66699 -54.167 20 -64.5s35.666 -15.5 66.999 -15.5h126c74 0 123.333 -28.667 148 -86c12.667 -28.667 19 -62 19 -100v-56c0 -84.667 -29.667 -139.667 -89 -165c-30.667 -13.333 -68.667 -20 -114 -20c-109.333 0 -199.333 9.33301 -270 28v92
c73.333 -7.33301 137 -11 191 -11s86 0.666992 96 2s21 4.33301 33 9c24.667 9.33301 37 30 37 62v50c0 16.667 -2 30.667 -6 42c-8.66699 24.667 -30.667 37 -66 37h-123c-32.667 0 -60.834 4.33301 -84.501 13s-41.834 19.167 -54.501 31.5s-22.667 27.5 -30 45.5
c-10.667 27.333 -16 59.333 -16 96zM265.004 798.001l97 137h112l-126 -137h-83z" />
    <glyph glyph-name="sacute" unicode="&#x15b;" horiz-adv-x="507" 
d="M34 351v46.0029c0 92.667 46 139 138 139c51.333 0 105 -2 161 -6s94 -9.66699 114 -17v-77h-248c-21.333 0 -34.833 -3.33301 -40.5 -10s-8.5 -18.334 -8.5 -35.001v-32c0 -18.667 3.83301 -30.334 11.5 -35.001s20.167 -7 37.5 -7h138c46 0 80.333 -12.333 103 -37
s34 -57.334 34 -98.001v-52c0 -90 -43.333 -135 -130 -135c-50.667 0 -107.167 2.33301 -169.5 7s-101.833 10.667 -118.5 18v76h259c28.667 0 43 13.667 43 41v34c0 14 -3.16699 24.5 -9.5 31.5s-17.5 10.5 -33.5 10.5h-136c-49.333 0 -85.833 10.5 -109.5 31.5
s-35.5 56.5 -35.5 106.5zM212 599.003l97 137h112l-126 -137h-83z" />
    <glyph glyph-name="Scircumflex" unicode="&#x15c;" horiz-adv-x="588" 
d="M55 489l0.00390625 64.001c0 70 19.333 119 58 147c35.333 25.333 86.333 38 153 38c38 0 83.667 -2.83301 137 -8.5s93.666 -11.834 120.999 -18.501v-92c-28 2 -72.333 4.33301 -133 7c-62.667 2 -107 3 -133 3s-47 -4.66699 -63 -14s-24 -32.333 -24 -69v-47
c0 -32.667 6.66699 -54.167 20 -64.5s35.666 -15.5 66.999 -15.5h126c74 0 123.333 -28.667 148 -86c12.667 -28.667 19 -62 19 -100v-56c0 -84.667 -29.667 -139.667 -89 -165c-30.667 -13.333 -68.667 -20 -114 -20c-109.333 0 -199.333 9.33301 -270 28v92
c73.333 -7.33301 137 -11 191 -11s86 0.666992 96 2s21 4.33301 33 9c24.667 9.33301 37 30 37 62v50c0 16.667 -2 30.667 -6 42c-8.66699 24.667 -30.667 37 -66 37h-123c-32.667 0 -60.834 4.33301 -84.501 13s-41.834 19.167 -54.501 31.5s-22.667 27.5 -30 45.5
c-10.667 27.333 -16 59.333 -16 96zM159.004 798.001l112 134h92l99 -134h-85l-63 64l-69 -64h-86z" />
    <glyph glyph-name="scircumflex" unicode="&#x15d;" horiz-adv-x="507" 
d="M34 351v46.0029c0 92.667 46 139 138 139c51.333 0 105 -2 161 -6s94 -9.66699 114 -17v-77h-248c-21.333 0 -34.833 -3.33301 -40.5 -10s-8.5 -18.334 -8.5 -35.001v-32c0 -18.667 3.83301 -30.334 11.5 -35.001s20.167 -7 37.5 -7h138c46 0 80.333 -12.333 103 -37
s34 -57.334 34 -98.001v-52c0 -90 -43.333 -135 -130 -135c-50.667 0 -107.167 2.33301 -169.5 7s-101.833 10.667 -118.5 18v76h259c28.667 0 43 13.667 43 41v34c0 14 -3.16699 24.5 -9.5 31.5s-17.5 10.5 -33.5 10.5h-136c-49.333 0 -85.833 10.5 -109.5 31.5
s-35.5 56.5 -35.5 106.5zM103 596.003l111 134h92l100 -134h-85l-64 64l-68 -64h-86z" />
    <glyph glyph-name="Scedilla" unicode="&#x15e;" horiz-adv-x="588" 
d="M55 489l0.00390625 64.001c0 70 19.333 119 58 147c35.333 25.333 86.333 38 153 38c38 0 83.667 -2.83301 137 -8.5s93.666 -11.834 120.999 -18.501v-92c-28 2 -72.333 4.33301 -133 7c-62.667 2 -107 3 -133 3s-47 -4.66699 -63 -14s-24 -32.333 -24 -69v-47
c0 -32.667 6.66699 -54.167 20 -64.5s35.666 -15.5 66.999 -15.5h126c74 0 123.333 -28.667 148 -86c12.667 -28.667 19 -62 19 -100v-56c0 -84.667 -29.667 -139.667 -89 -165c-30.667 -13.333 -68.667 -20 -114 -20c-109.333 0 -199.333 9.33301 -270 28v92
c73.333 -7.33301 137 -11 191 -11s86 0.666992 96 2s21 4.33301 33 9c24.667 9.33301 37 30 37 62v50c0 16.667 -2 30.667 -6 42c-8.66699 24.667 -30.667 37 -66 37h-123c-32.667 0 -60.834 4.33301 -84.501 13s-41.834 19.167 -54.501 31.5s-22.667 27.5 -30 45.5
c-10.667 27.333 -16 59.333 -16 96zM274.004 -43.999h84c0 -52 -7.5 -88.333 -22.5 -109s-43.5 -31 -85.5 -31h-54v52l47 15c13.333 5.33301 21.833 13.333 25.5 24s5.5 27 5.5 49z" />
    <glyph glyph-name="scedilla" unicode="&#x15f;" horiz-adv-x="507" 
d="M34 351v46.0029c0 92.667 46 139 138 139c51.333 0 105 -2 161 -6s94 -9.66699 114 -17v-77h-248c-21.333 0 -34.833 -3.33301 -40.5 -10s-8.5 -18.334 -8.5 -35.001v-32c0 -18.667 3.83301 -30.334 11.5 -35.001s20.167 -7 37.5 -7h138c46 0 80.333 -12.333 103 -37
s34 -57.334 34 -98.001v-52c0 -90 -43.333 -135 -130 -135c-50.667 0 -107.167 2.33301 -169.5 7s-101.833 10.667 -118.5 18v76h259c28.667 0 43 13.667 43 41v34c0 14 -3.16699 24.5 -9.5 31.5s-17.5 10.5 -33.5 10.5h-136c-49.333 0 -85.833 10.5 -109.5 31.5
s-35.5 56.5 -35.5 106.5zM185 -37.9971h83.999c0 -52 -7.66699 -88.333 -23 -109s-43.666 -31 -84.999 -31h-54v52l47 15c12.667 5.33301 21 13.333 25 24s6 27 6 49z" />
    <glyph glyph-name="Scaron" unicode="&#x160;" horiz-adv-x="588" 
d="M55 489l0.00390625 64.001c0 70 19.333 119 58 147c35.333 25.333 86.333 38 153 38c38 0 83.667 -2.83301 137 -8.5s93.666 -11.834 120.999 -18.501v-92c-28 2 -72.333 4.33301 -133 7c-62.667 2 -107 3 -133 3s-47 -4.66699 -63 -14s-24 -32.333 -24 -69v-47
c0 -32.667 6.66699 -54.167 20 -64.5s35.666 -15.5 66.999 -15.5h126c74 0 123.333 -28.667 148 -86c12.667 -28.667 19 -62 19 -100v-56c0 -84.667 -29.667 -139.667 -89 -165c-30.667 -13.333 -68.667 -20 -114 -20c-109.333 0 -199.333 9.33301 -270 28v92
c73.333 -7.33301 137 -11 191 -11s86 0.666992 96 2s21 4.33301 33 9c24.667 9.33301 37 30 37 62v50c0 16.667 -2 30.667 -6 42c-8.66699 24.667 -30.667 37 -66 37h-123c-32.667 0 -60.834 4.33301 -84.501 13s-41.834 19.167 -54.501 31.5s-22.667 27.5 -30 45.5
c-10.667 27.333 -16 59.333 -16 96zM157.004 932.001h85l70 -64l62 64h85l-102 -134h-92z" />
    <glyph glyph-name="scaron" unicode="&#x161;" horiz-adv-x="507" 
d="M34 351v46.0029c0 92.667 46 139 138 139c51.333 0 105 -2 161 -6s94 -9.66699 114 -17v-77h-248c-21.333 0 -34.833 -3.33301 -40.5 -10s-8.5 -18.334 -8.5 -35.001v-32c0 -18.667 3.83301 -30.334 11.5 -35.001s20.167 -7 37.5 -7h138c46 0 80.333 -12.333 103 -37
s34 -57.334 34 -98.001v-52c0 -90 -43.333 -135 -130 -135c-50.667 0 -107.167 2.33301 -169.5 7s-101.833 10.667 -118.5 18v76h259c28.667 0 43 13.667 43 41v34c0 14 -3.16699 24.5 -9.5 31.5s-17.5 10.5 -33.5 10.5h-136c-49.333 0 -85.833 10.5 -109.5 31.5
s-35.5 56.5 -35.5 106.5zM107 733.003h86l69 -64l62 64h86l-103 -134h-92z" />
    <glyph glyph-name="Tcommaaccent" unicode="&#x162;" horiz-adv-x="588" 
d="M36 623v109h529v-109h-209v-623h-116v623h-204zM202 -45h84.998c0 -52 -7.66699 -88.167 -23 -108.5s-43.666 -30.5 -84.999 -30.5h-55v51l48 15c12.667 6 20.834 14.333 24.501 25s5.5 26.667 5.5 48z" />
    <glyph glyph-name="tcommaaccent" unicode="&#x163;" horiz-adv-x="380" 
d="M17 437v70l90 25l22 148h94v-148h132v-95h-132v-233c0 -37.333 4.16699 -63.5 12.5 -78.5s20.833 -25.167 37.5 -30.5c45.333 -14 70.333 -21 75 -21v-74h-110c-87.333 -0 -131 63.333 -131 190v247h-90zM148 -46h83.998c0 -52 -7.66699 -88.333 -23 -109
s-43.666 -31 -84.999 -31h-54v52l47 15c16.667 7.33301 26.334 20.333 29.001 39c1.33301 8 2 19.333 2 34z" />
    <glyph glyph-name="Tcaron" unicode="&#x164;" horiz-adv-x="588" 
d="M36 623v109h529v-109h-209v-623h-116v623h-204zM143 930h86l69 -64l62 64h86l-103 -133h-92z" />
    <glyph glyph-name="tcaron" unicode="&#x165;" horiz-adv-x="397" 
d="M223 680v-148h132v-95h-132v-233c0 -37.333 4.16699 -63.5 12.5 -78.5s20.833 -25.167 37.5 -30.5c45.333 -14 70.333 -21 75 -21v-74h-110c-87.333 -0 -131 63.333 -131 190v247h-90v70l90 25l22 148h94zM369 800v-67l-10 -134h-67l-11 134v67h88z" />
    <glyph glyph-name="Tbar" unicode="&#x166;" horiz-adv-x="582" 
d="M27 623v109h529v-109h-210v-186h106v-61h-106v-376h-116v376h-106v61h106v186h-203z" />
    <glyph glyph-name="tbar" unicode="&#x167;" horiz-adv-x="372" 
d="M17 437v70.002l90 25l22 148h94v-148h132v-95h-132v-115h91v-61h-91v-57c0.666992 -52.667 7.66699 -84.334 21 -95.001c6 -4.66699 23.333 -11.334 52 -20.001s44 -13 46 -13v-76h-103c-46 0 -79.5 14.5 -100.5 43.5s-31.5 77.833 -31.5 146.5v71h-74v61h74v115h-90z
" />
    <glyph glyph-name="Utilde" unicode="&#x168;" horiz-adv-x="669" 
d="M346 -5h-14.002c-79.333 0 -132 8.33301 -158 25c-12 8 -25.833 19.833 -41.5 35.5s-27.5 34.834 -35.5 57.501c-19.333 56 -29 125 -29 207v412h116v-412c0 -68 6 -116.333 18 -145c6.66699 -16 13.834 -28.667 21.501 -38s18.5 -16.333 32.5 -21
c21.333 -8 47 -12 77 -12s52 1.33301 66 4s28.167 8.16699 42.5 16.5s25.5 20.166 33.5 35.499c18 34.667 27 88 27 160v412h117v-412c0 -82.667 -8.66699 -145 -26 -187c-9.33301 -22 -18.666 -41.167 -27.999 -57.5s-21.833 -29.333 -37.5 -39s-29.5 -17.5 -41.5 -23.5
s-27.667 -10.333 -47 -13c-28.667 -3.33301 -59.667 -5 -93 -5zM400.998 876c22 0 51.666 12.667 88.999 38l24 -53c-15.333 -14.667 -26.833 -25.334 -34.5 -32.001s-19.167 -14.167 -34.5 -22.5s-26.666 -12.5 -33.999 -12.5c-24 0 -47.167 5.83301 -69.5 17.5
s-39.5 17.5 -51.5 17.5c-18 0 -32 -2.5 -42 -7.5l-30 -15.5l-23 -12l-23 50c22 21.333 42.333 37.833 61 49.5s37.5 17.334 56.5 17.001s39.5 -6 61.5 -17s35.667 -16.667 41 -17s8.33301 -0.5 9 -0.5z" />
    <glyph glyph-name="utilde" unicode="&#x169;" 
d="M42 172v359h116v-361c0 -27.333 6.33301 -47.5 19 -60.5s32 -19.5 58 -19.5s49.333 3.66699 70 11s46 20.333 76 39v391h116v-531h-90l-26 58c-5.33301 -2.66699 -14 -7.83398 -26 -15.501s-21 -13.167 -27 -16.5s-14.667 -7.66602 -26 -12.999s-21.333 -9.33301 -30 -12
c-22.667 -6.66699 -45.667 -10 -69 -10c-55.333 0 -96 16.833 -122 50.5s-39 77.167 -39 130.5zM328 679c22 0 51.6689 12.335 89.002 37.002l24 -53c-15.333 -14.667 -26.833 -25.334 -34.5 -32.001s-19.334 -14 -35.001 -22s-26.834 -12 -33.501 -12
c-24 0 -47.333 5.66699 -70 17s-39.667 17 -51 17c-18 0 -32 -2.33301 -42 -7s-20 -9.83398 -30 -15.501s-17.667 -9.83398 -23 -12.501l-23 50c22 21.333 42.333 38 61 50s37.5 17.833 56.5 17.5s39.5 -6.16602 61.5 -17.499s35.667 -17 41 -17h9z" />
    <glyph glyph-name="Umacron" unicode="&#x16a;" horiz-adv-x="669" 
d="M346 -5h-14.002c-79.333 0 -132 8.33301 -158 25c-12 8 -25.833 19.833 -41.5 35.5s-27.5 34.834 -35.5 57.501c-19.333 56 -29 125 -29 207v412h116v-412c0 -68 6 -116.333 18 -145c6.66699 -16 13.834 -28.667 21.501 -38s18.5 -16.333 32.5 -21
c21.333 -8 47 -12 77 -12s52 1.33301 66 4s28.167 8.16699 42.5 16.5s25.5 20.166 33.5 35.499c18 34.667 27 88 27 160v412h117v-412c0 -82.667 -8.66699 -145 -26 -187c-9.33301 -22 -18.666 -41.167 -27.999 -57.5s-21.833 -29.333 -37.5 -39s-29.5 -17.5 -41.5 -23.5
s-27.667 -10.333 -47 -13c-28.667 -3.33301 -59.667 -5 -93 -5zM196.998 797v73h292v-73h-292z" />
    <glyph glyph-name="umacron" unicode="&#x16b;" 
d="M42 172v359h116v-361c0 -27.333 6.33301 -47.5 19 -60.5s32 -19.5 58 -19.5s49.333 3.66699 70 11s46 20.333 76 39v391h116v-531h-90l-26 58c-5.33301 -2.66699 -14 -7.83398 -26 -15.501s-21 -13.167 -27 -16.5s-14.667 -7.66602 -26 -12.999s-21.333 -9.33301 -30 -12
c-22.667 -6.66699 -45.667 -10 -69 -10c-55.333 0 -96 16.833 -122 50.5s-39 77.167 -39 130.5zM124 596v74h292v-74h-292z" />
    <glyph glyph-name="Ubreve" unicode="&#x16c;" horiz-adv-x="669" 
d="M346 -5h-14.002c-79.333 0 -132 8.33301 -158 25c-12 8 -25.833 19.833 -41.5 35.5s-27.5 34.834 -35.5 57.501c-19.333 56 -29 125 -29 207v412h116v-412c0 -68 6 -116.333 18 -145c6.66699 -16 13.834 -28.667 21.501 -38s18.5 -16.333 32.5 -21
c21.333 -8 47 -12 77 -12s52 1.33301 66 4s28.167 8.16699 42.5 16.5s25.5 20.166 33.5 35.499c18 34.667 27 88 27 160v412h117v-412c0 -82.667 -8.66699 -145 -26 -187c-9.33301 -22 -18.666 -41.167 -27.999 -57.5s-21.833 -29.333 -37.5 -39s-29.5 -17.5 -41.5 -23.5
s-27.667 -10.333 -47 -13c-28.667 -3.33301 -59.667 -5 -93 -5zM227.998 911l53.999 -0.000976562c0 -24 10 -41.667 30 -53c9.33301 -4.66699 21.5 -7 36.5 -7s28 5.33301 39 16s16.5 25.334 16.5 44.001h54c0 -23.333 -5.33301 -44 -16 -62
c-22 -34.667 -55.333 -52 -100 -52c-31.333 0 -58.166 10.5 -80.499 31.5s-33.5 48.5 -33.5 82.5z" />
    <glyph glyph-name="ubreve" unicode="&#x16d;" 
d="M42 172v359h116v-361c0 -27.333 6.33301 -47.5 19 -60.5s32 -19.5 58 -19.5s49.333 3.66699 70 11s46 20.333 76 39v391h116v-531h-90l-26 58c-5.33301 -2.66699 -14 -7.83398 -26 -15.501s-21 -13.167 -27 -16.5s-14.667 -7.66602 -26 -12.999s-21.333 -9.33301 -30 -12
c-22.667 -6.66699 -45.667 -10 -69 -10c-55.333 0 -96 16.833 -122 50.5s-39 77.167 -39 130.5zM160 710l54.001 -0.00292969c0 -17.333 5.83301 -31.666 17.5 -42.999s26.5 -17 44.5 -17s32.5 5.33301 43.5 16s16.5 25.334 16.5 44.001h54
c0 -35.333 -11.333 -63.166 -34 -83.499s-49.834 -30.5 -81.501 -30.5s-58.667 10.5 -81 31.5s-33.5 48.5 -33.5 82.5z" />
    <glyph glyph-name="Uring" unicode="&#x16e;" horiz-adv-x="669" 
d="M346 -5h-14.002c-79.333 0 -132 8.33301 -158 25c-12 8 -25.833 19.833 -41.5 35.5s-27.5 34.834 -35.5 57.501c-19.333 56 -29 125 -29 207v412h116v-412c0 -68 6 -116.333 18 -145c6.66699 -16 13.834 -28.667 21.501 -38s18.5 -16.333 32.5 -21
c21.333 -8 47 -12 77 -12s52 1.33301 66 4s28.167 8.16699 42.5 16.5s25.5 20.166 33.5 35.499c18 34.667 27 88 27 160v412h117v-412c0 -82.667 -8.66699 -145 -26 -187c-9.33301 -22 -18.666 -41.167 -27.999 -57.5s-21.833 -29.333 -37.5 -39s-29.5 -17.5 -41.5 -23.5
s-27.667 -10.333 -47 -13c-28.667 -3.33301 -59.667 -5 -93 -5zM255.498 950.5c9 15.667 21.332 28.167 36.999 37.5s35.167 14 58.5 14s44.833 -10 64.5 -30s29.5 -44.333 29.5 -73s-9.83301 -52.834 -29.5 -72.501s-43.5 -29.5 -71.5 -29.5
c-39.333 0 -68.666 16.667 -87.999 50c-9.33301 16 -14 33.333 -14 52s4.5 35.834 13.5 51.501zM295.997 899c0 -13.333 4.66699 -24.502 14 -33.502s20.5 -13.5 33.5 -13.5s24 4.5 33 13.5s13.5 18.5 13.5 28.5s-1.16699 17.833 -3.5 23.5s-5.5 10.834 -9.5 15.501
c-9.33301 9.33301 -20.5 14 -33.5 14s-24.167 -4.66699 -33.5 -14s-14 -20.666 -14 -33.999z" />
    <glyph glyph-name="uring" unicode="&#x16f;" 
d="M42 172v359h116v-361c0 -27.333 6.33301 -47.5 19 -60.5s32 -19.5 58 -19.5s49.333 3.66699 70 11s46 20.333 76 39v391h116v-531h-90l-26 58c-5.33301 -2.66699 -14 -7.83398 -26 -15.501s-21 -13.167 -27 -16.5s-14.667 -7.66602 -26 -12.999s-21.333 -9.33301 -30 -12
c-22.667 -6.66699 -45.667 -10 -69 -10c-55.333 0 -96 16.833 -122 50.5s-39 77.167 -39 130.5zM176.5 658c-5.66699 12.667 -8.49902 27.1689 -8.49902 43.502s4.66699 32.333 14 48s21.833 28.167 37.5 37.5s32.667 14 51 14s35.166 -4.66699 50.499 -14
s27.5 -21.833 36.5 -37.5s13.5 -32.834 13.5 -51.501s-4.5 -35.834 -13.5 -51.501s-21.167 -28 -36.5 -37s-31 -13.5 -47 -13.5s-30.333 2.66699 -43 8s-23.5 12.5 -32.5 21.5s-16.333 19.833 -22 32.5zM229.001 722.002c-4 -7.33301 -6 -16.5 -6 -27.5s4.66699 -21 14 -30
s20.5 -13.5 33.5 -13.5s24 4.5 33 13.5s13.5 20.167 13.5 33.5s-4.5 24.666 -13.5 33.999s-19 14 -30 14s-20.167 -2.16699 -27.5 -6.5s-13 -10.166 -17 -17.499z" />
    <glyph glyph-name="Uhungarumlaut" unicode="&#x170;" horiz-adv-x="669" 
d="M346 -5h-14.002c-79.333 0 -132 8.33301 -158 25c-12 8 -25.833 19.833 -41.5 35.5s-27.5 34.834 -35.5 57.501c-19.333 56 -29 125 -29 207v412h116v-412c0 -68 6 -116.333 18 -145c6.66699 -16 13.834 -28.667 21.501 -38s18.5 -16.333 32.5 -21
c21.333 -8 47 -12 77 -12s52 1.33301 66 4s28.167 8.16699 42.5 16.5s25.5 20.166 33.5 35.499c18 34.667 27 88 27 160v412h117v-412c0 -82.667 -8.66699 -145 -26 -187c-9.33301 -22 -18.666 -41.167 -27.999 -57.5s-21.833 -29.333 -37.5 -39s-29.5 -17.5 -41.5 -23.5
s-27.667 -10.333 -47 -13c-28.667 -3.33301 -59.667 -5 -93 -5zM227.998 797l96 137h113l-126 -137h-83zM375.998 797l96 137h113l-126 -137h-83z" />
    <glyph glyph-name="uhungarumlaut" unicode="&#x171;" 
d="M42 172v359h116v-361c0 -27.333 6.33301 -47.5 19 -60.5s32 -19.5 58 -19.5s49.333 3.66699 70 11s46 20.333 76 39v391h116v-531h-90l-26 58c-5.33301 -2.66699 -14 -7.83398 -26 -15.501s-21 -13.167 -27 -16.5s-14.667 -7.66602 -26 -12.999s-21.333 -9.33301 -30 -12
c-22.667 -6.66699 -45.667 -10 -69 -10c-55.333 0 -96 16.833 -122 50.5s-39 77.167 -39 130.5zM154 596l97 136h112l-126 -136h-83zM302 596l97 136h112l-126 -136h-83z" />
    <glyph glyph-name="Uogonek" unicode="&#x172;" horiz-adv-x="669" 
d="M346 -5h-14.002c-79.333 0 -132 8.33301 -158 25c-12 8 -25.833 19.833 -41.5 35.5s-27.5 34.834 -35.5 57.501c-19.333 56 -29 125 -29 207v412h116v-412c0 -68 6 -116.333 18 -145c6.66699 -16 13.834 -28.667 21.501 -38s18.5 -16.333 32.5 -21
c21.333 -8 47 -12 77 -12s52 1.33301 66 4s28.167 8.16699 42.5 16.5s25.5 20.166 33.5 35.499c18 34.667 27 88 27 160v412h117v-412c0 -82.667 -8.66699 -145 -26 -187c-9.33301 -22 -18.666 -41.167 -27.999 -57.5s-21.833 -29.333 -37.5 -39s-29.5 -17.5 -41.5 -23.5
s-27.667 -10.333 -47 -13c-28.667 -3.33301 -59.667 -5 -93 -5zM367.998 -3c-34.667 -26.667 -52.002 -51.667 -52.002 -75c0 -10 4.33301 -19 13 -27s23.334 -12 44.001 -12h1v-70c-8 -2 -17.167 -3 -27.5 -3s-23.666 2.83301 -39.999 8.5s-29.833 15.834 -40.5 30.501
c-15.333 19.333 -23 37.333 -23 54c0 39.333 25 70.666 75 93.999h50z" />
    <glyph glyph-name="uogonek" unicode="&#x173;" 
d="M42 172v359h116v-361c0 -27.333 6.33301 -47.5 19 -60.5s32 -19.5 58 -19.5s49.333 3.66699 70 11s46 20.333 76 39v391h116v-531h-90l-26 58c-5.33301 -2.66699 -14 -7.83398 -26 -15.501s-21 -13.167 -27 -16.5s-14.667 -7.66602 -26 -12.999s-21.333 -9.33301 -30 -12
c-22.667 -6.66699 -45.667 -10 -69 -10c-55.333 0 -96 16.833 -122 50.5s-39 77.167 -39 130.5zM478 -1c-34.667 -26.667 -52.001 -52 -52.001 -76c0 -9.33301 4.33301 -18 13 -26s23.334 -12 44.001 -12h2v-70c-8.66699 -2 -18.167 -3 -28.5 -3s-23.5 2.83301 -39.5 8.5
s-29.667 15.5 -41 29.5c-15.333 20 -23 38 -23 54c0 39.333 25.333 71 76 95h49z" />
    <glyph glyph-name="Wcircumflex" unicode="&#x174;" horiz-adv-x="981" 
d="M38 732h124l181 -565l149 565h126l-57 -205l122 -364l154 569h124l-212 -732h-130l-112 327l-99 -327h-130zM357 794l111 133h92l100 -133h-85l-63 64l-69 -64h-86z" />
    <glyph glyph-name="wcircumflex" unicode="&#x175;" horiz-adv-x="817" 
d="M17 531h125l124 -387l111 387h118l-43 -153l98 -234l126 387h125l-183 -531h-127l-93 217l-70 -217h-131zM265 593l111 133h92l99 -133h-85l-63 64l-68 -64h-86z" />
    <glyph glyph-name="Ycircumflex" unicode="&#x176;" horiz-adv-x="647" 
d="M381 0h-116v239l-227 493h126l160 -363l176 363h126l-245 -493v-239zM174 794l111 133h92l100 -133h-85l-64 64l-68 -64h-86z" />
    <glyph glyph-name="ycircumflex" unicode="&#x177;" horiz-adv-x="569" 
d="M18 531l123 0.000976562l105 -387c4 -14.667 9.33301 -24.334 16 -29.001s12.167 -7.66699 16.5 -9s8 -2 11 -2s6.16699 0.166992 9.5 0.5l5 0.5l123 426h123l-202 -699l-74 -102h-80l82 270c-72.667 0 -121 42 -145 126zM133 596.001l111 134h92l99 -134h-85l-63 64
l-68 -64h-86z" />
    <glyph glyph-name="Ydieresis" unicode="&#x178;" horiz-adv-x="647" 
d="M381 0h-116v239l-227 493h126l160 -363l176 363h126l-245 -493v-239zM149 853c0 15.333 5.5 28.333 16.5 39s24.167 16 39.5 16s28.333 -5.33301 39 -16s16 -23.667 16 -39s-5.33301 -28.5 -16 -39.5s-23.667 -16.5 -39 -16.5s-28.5 5.5 -39.5 16.5
s-16.5 24.167 -16.5 39.5zM404 853c0 15.333 5.5 28.333 16.5 39s24.167 16 39.5 16s28.333 -5.33301 39 -16s16 -23.667 16 -39s-5.33301 -28.5 -16 -39.5s-23.667 -16.5 -39 -16.5s-28.5 5.5 -39.5 16.5s-16.5 24.167 -16.5 39.5z" />
    <glyph glyph-name="Zacute" unicode="&#x179;" horiz-adv-x="559" 
d="M30 0v109l357 514h-357v109h500v-109l-347 -514h347v-109h-500zM238 797l97 137h112l-126 -137h-83z" />
    <glyph glyph-name="zacute" unicode="&#x17a;" horiz-adv-x="467" 
d="M25 429v102h417v-102l-248 -326h248v-102h-402v101l257 327h-272zM192 596l97 136h112l-126 -136h-83z" />
    <glyph glyph-name="Zdotaccent" unicode="&#x17b;" horiz-adv-x="559" 
d="M30 0v109l357 514h-357v109h500v-109l-347 -514h347v-109h-500zM224 820l0.000976562 68c0 16.667 8 25 24 25h64c7.33301 0 13 -2.33301 17 -7s6 -10.667 6 -18v-68c0 -15.333 -7.66699 -23 -23 -23h-64c-6.66699 0 -12.334 2.16699 -17.001 6.5s-7 9.83301 -7 16.5z
" />
    <glyph glyph-name="zdotaccent" unicode="&#x17c;" horiz-adv-x="467" 
d="M25 429v102h417v-102l-248 -326h248v-102h-402v101l257 327h-272zM178 619l0.000976562 68c0 16.667 8 25 24 25h64c7.33301 0 13 -2.33301 17 -7s6 -10.667 6 -18v-68c0 -15.333 -7.66699 -23 -23 -23h-64c-6.66699 0 -12.334 2.16699 -17.001 6.5s-7 9.83301 -7 16.5z
" />
    <glyph glyph-name="Zcaron" unicode="&#x17d;" horiz-adv-x="559" 
d="M30 0v109l357 514h-357v109h500v-109l-347 -514h347v-109h-500zM128 930h86l69 -64l63 64h85l-103 -133h-92z" />
    <glyph glyph-name="zcaron" unicode="&#x17e;" horiz-adv-x="467" 
d="M25 429v102h417v-102l-248 -326h248v-102h-402v101l257 327h-272zM83 730h85l70 -64l62 64h85l-102 -134h-92z" />
    <glyph glyph-name="florin" unicode="&#x192;" horiz-adv-x="592" 
d="M101 -106c44.667 0 76.001 46.334 94.001 139.001c3.33301 15.333 6.66602 33.666 9.99902 54.999l46 295h-93l16 96h92l5 27c30.667 196 96 294 196 294c36.667 0 70 -7 100 -21c5.33301 -2.66699 8.33301 -4 9 -4l-11 -73h-71c-22.667 0 -40.667 -10.333 -54 -31
c-14.667 -21.333 -24.667 -43 -30 -65c-8.66699 -32 -15.667 -65.333 -21 -100l-5 -28h125l-16 -95h-124l-46 -295c-16 -99.333 -36 -169.333 -60 -210c-22 -36.667 -48 -60.667 -78 -72c-17.333 -6.66699 -36.833 -10 -58.5 -10s-43.667 3 -66 9s-36.833 11.333 -43.5 16
l11 73h73z" />
    <glyph glyph-name="circumflex" unicode="&#x2c6;" horiz-adv-x="387" 
d="M42 531l111 133h92l100 -133h-85l-64 64l-68 -64h-86z" />
    <glyph glyph-name="caron" unicode="&#x2c7;" horiz-adv-x="387" 
d="M42 664h86l69 -64l62 64h86l-103 -133h-92z" />
    <glyph glyph-name="breve" unicode="&#x2d8;" horiz-adv-x="313" 
d="M42 644l54.001 -0.00292969c0 -17.333 5.83301 -31.666 17.5 -42.999s26.5 -17 44.5 -17s32.5 5.33301 43.5 16s16.5 25.334 16.5 44.001h54c0 -35.333 -11.333 -63.166 -34 -83.499s-49.834 -30.5 -81.501 -30.5s-58.667 10.5 -81 31.5s-33.5 48.5 -33.5 82.5z" />
    <glyph glyph-name="dotaccent" unicode="&#x2d9;" horiz-adv-x="195" 
d="M42 549l0.000976562 68c0 16.667 8 25 24 25h64c7.33301 0 13 -2.33301 17 -7s6 -10.667 6 -18v-68c0 -15.333 -7.66699 -23 -23 -23h-64c-6.66699 0 -12.334 2.16699 -17.001 6.5s-7 9.83301 -7 16.5z" />
    <glyph glyph-name="ring" unicode="&#x2da;" horiz-adv-x="287" 
d="M42 632c0 18.667 4.66699 35.834 14 51.501s21.833 28.167 37.5 37.5s32.667 14 51 14s35.166 -4.66699 50.499 -14s27.5 -21.833 36.5 -37.5s13.5 -32.834 13.5 -51.501s-4.5 -35.834 -13.5 -51.501s-21.167 -28 -36.5 -37s-32.166 -13.5 -50.499 -13.5
s-35.333 4.5 -51 13.5s-28.167 21.333 -37.5 37s-14 32.834 -14 51.501zM97 632c0 -13.333 4.66504 -24.501 13.998 -33.501s20.5 -13.5 33.5 -13.5s24 4.5 33 13.5s13.5 19 13.5 30s-2 20.167 -6 27.5c-9.33301 16 -21.666 24 -36.999 24s-27.666 -4.66699 -36.999 -14
s-14 -20.666 -14 -33.999z" />
    <glyph glyph-name="ogonek" unicode="&#x2db;" horiz-adv-x="214" 
d="M166 0c-34.667 -26.667 -52.001 -52 -52.001 -76c0 -9.33301 4.33301 -18 13 -26s23.334 -12 44.001 -12h2v-71c-8.66699 -1.33301 -18.167 -2 -28.5 -2s-23.5 2.83301 -39.5 8.5s-29.667 15.5 -41 29.5c-15.333 19.333 -23 37.333 -23 54c0 39.333 25.333 71 76 95h49z
" />
    <glyph glyph-name="tilde" unicode="&#x2dc;" horiz-adv-x="426" 
d="M271 614c22.667 0 52.332 12.333 88.999 37l24 -53c-36 -34.667 -63.667 -55 -83 -61c-9.33301 -3.33301 -16.666 -5 -21.999 -5h-19c-10.667 0.666992 -27.5 6.5 -50.5 17.5s-37 16.5 -42 16.5h-13.5c-4 0 -9.5 -0.666992 -16.5 -2s-13.5 -3.33301 -19.5 -6
s-11.333 -5.16699 -16 -7.5s-10.667 -5.5 -18 -9.5l-19 -10l-23 50c46 45.333 86 68 120 68c17.333 -0.666992 37 -6.66699 59 -18s35.667 -17 41 -17h9z" />
    <glyph glyph-name="hungarumlaut" unicode="&#x2dd;" horiz-adv-x="393" 
d="M17 531l96 137h113l-126 -137h-83zM165 531l97 137h112l-126 -137h-83z" />
    <glyph glyph-name="uni0338" unicode="&#x338;" horiz-adv-x="635" 
d="M59 172l-0.00195312 384c0 56.667 16.333 100.167 49 130.5s76.334 45.5 131.001 45.5h164c60.667 0 104.667 -16 132 -48s41 -73.333 41 -124v-388c0 -57.333 -15.167 -100.333 -45.5 -129s-72.833 -43 -127.5 -43h-164c-55.333 -0 -99.166 14.333 -131.499 43
s-48.5 71.667 -48.5 129zM174.998 229c0 -22.667 2.33398 -37.667 7.00098 -45l222 436c-5.33301 2 -12.333 3 -21 3h-127c-28.667 0 -49.334 -7.66699 -62.001 -23s-19 -33.333 -19 -54v-317zM258.999 109h120.999c53.333 0 80 25.667 80 77v323
c0 26 -3.66699 43.667 -11 53l-228 -446c10.667 -4.66699 23.334 -7 38.001 -7z" />
    <glyph glyph-name="Omega" unicode="&#x3a9;" horiz-adv-x="769" 
d="M64 487c6 30.667 16.667 61.665 32 92.998s35 58.5 59 81.5s55.833 41.667 95.5 56s84 21.5 133 21.5s92.333 -6.5 130 -19.5s68.667 -30.333 93 -52s44.166 -47.834 59.499 -78.501c28.667 -56 43 -120.167 43 -192.5s-7.16699 -129.666 -21.5 -171.999
s-43.5 -81.166 -87.5 -116.499l114 -10v-98h-242v110c61.333 44 98.333 94.333 111 151c6.66699 32 10 73.333 10 124c0 163.333 -69.333 245 -208 245c-142.667 0 -214 -83.333 -214 -250c0 -79.333 9.66699 -135.333 29 -168c20.667 -33.333 52.334 -67.333 95.001 -102
v-110h-234v100l119 10c-62.667 40.667 -101 92.667 -115 156c-6.66699 33.333 -10 70.833 -10 112.5s3 77.834 9 108.501z" />
    <glyph glyph-name="pi" unicode="&#x3c0;" horiz-adv-x="642" 
d="M17 422l-0.000976562 109h560v-109h-104v-242c0 -33.333 5.33301 -56 16 -68s28.334 -18 53.001 -18h83v-68c-30 -20.667 -69.5 -31 -118.5 -31s-86.167 14.333 -111.5 43s-38 74.667 -38 138v246h-145v-422h-116v422h-79z" />
    <glyph glyph-name="uni1E02" unicode="&#x1e02;" horiz-adv-x="601" 
d="M68 0v732h294c100.667 0 164 -40.667 190 -122c7.33301 -22 11 -49.167 11 -81.5s-8 -63.333 -24 -93s-40.333 -48.167 -73 -55.5c29.333 -6 54.333 -23.833 75 -53.5s31 -68.167 31 -115.5c0 -140.667 -69.333 -211 -208 -211h-296zM184 106h177
c63.333 0 95 36.667 95 110c0 33.333 -7.83301 61 -23.5 83s-39.5 33 -71.5 33h-177v-226zM184 434h172.998c30 0 52.667 8.33301 68 25s23 37.5 23 62.5s-2.66699 44.167 -8 57.5s-12.666 23 -21.999 29c-17.333 12 -37.666 18 -60.999 18h-173v-192zM252.998 817
l-0.000976562 68c0 16.667 8 25 24 25h64c7.33301 0 13 -2.33301 17 -7s6 -10.667 6 -18v-68c0 -15.333 -7.66699 -23 -23 -23h-64c-7.33301 0 -13.166 2.16699 -17.499 6.5s-6.5 9.83301 -6.5 16.5z" />
    <glyph glyph-name="uni1E03" unicode="&#x1e03;" horiz-adv-x="555" 
d="M47 0v785.002h115v-283c26 11.333 55.5 20.333 88.5 27s62.833 10 89.5 10s50.5 -4.83301 71.5 -14.5s37.833 -22.334 50.5 -38.001s22.667 -35.834 30 -60.501c12 -40.667 18 -95 18 -163c0 -179.333 -58 -269 -174 -269c-29.333 0 -61 6.66699 -95 20
s-60 27.333 -78 42l-23 -56h-93zM313 97.002c27.333 0 47.667 13.334 61 40.001s20 66.667 20 120s-3.33301 93.166 -10 119.499s-15.5 43.833 -26.5 52.5s-25.833 13 -44.5 13c-54 0 -104 -7.33301 -150 -22v-285c48 -25.333 98 -38 150 -38zM51.001 874.003
l-0.000976562 68c0 16.667 8 25 24 25h64c7.33301 0 13 -2.33301 17 -7s6 -10.667 6 -18v-68c0 -15.333 -7.66699 -23 -23 -23h-64c-7.33301 0 -13.166 2 -17.499 6s-6.5 9.66699 -6.5 17z" />
    <glyph glyph-name="uni1E0A" unicode="&#x1e0a;" horiz-adv-x="660" 
d="M68 0v732h297c170.667 0 256 -123 256 -369c0 -103.333 -19.667 -188.333 -59 -255c-20 -34 -46.833 -60.5 -80.5 -79.5s-72.5 -28.5 -116.5 -28.5h-297zM184 107h174c34 0 62 11.333 84 34c42 42 63 116.333 63 223c0 126.667 -22.667 206.667 -68 240
c-20.667 14.667 -47 22 -79 22h-174v-519zM261 823l-0.000976562 68c0 16.667 8 25 24 25h64c7.33301 0 13 -2.33301 17 -7s6 -10.667 6 -18v-68c0 -15.333 -7.66699 -23 -23 -23h-64c-7.33301 0 -13.166 2.16699 -17.499 6.5s-6.5 9.83301 -6.5 16.5z" />
    <glyph glyph-name="uni1E0B" unicode="&#x1e0b;" horiz-adv-x="555" 
d="M42 263c0 110 16.335 185 49.002 225c27.333 34 69 51 125 51c34 0 67.167 -4.16699 99.5 -12.5s57.166 -16.5 74.499 -24.5v283h115v-785h-92l-23 56c-18.667 -14.667 -44.834 -28.667 -78.501 -42s-65.5 -20 -95.5 -20c-116 0 -174 89.667 -174 269zM168.002 376.5
c-6.66699 -26.333 -10 -61.333 -10 -105s3.16699 -78.167 9.5 -103.5s15.333 -43.5 27 -54.5s26.5 -16.5 44.5 -16.5c52.667 0 103 12.667 151 38v285c-46 14.667 -96.333 22 -151 22c-18 0 -32.667 -4.33301 -44 -13s-20.333 -26.167 -27 -52.5zM391.002 869
l-0.000976562 68c0 16.667 8 25 24 25h64c6.66699 0 12.167 -2.33301 16.5 -7s6.5 -10.667 6.5 -18v-68c0 -15.333 -7.66699 -23 -23 -23h-64c-7.33301 0 -13.166 2 -17.499 6s-6.5 9.66699 -6.5 17z" />
    <glyph glyph-name="uni1E1E" unicode="&#x1e1e;" horiz-adv-x="567" 
d="M66 0v587c0 51.333 13.833 88.333 41.5 111s60.5 34 98.5 34c2.66699 0 51 -1.66699 145 -5s154.667 -7 182 -11v-95h-299c-24.667 0 -40 -6 -46 -18c-4 -9.33301 -6 -22 -6 -38v-145l307 -10v-95l-307 -10v-305h-116zM260 817l-0.000976562 68c0 16.667 8 25 24 25h64
c6.66699 0 12.167 -2.33301 16.5 -7s6.5 -10.667 6.5 -18v-68c0 -15.333 -7.66699 -23 -23 -23h-64c-7.33301 0 -13.166 2.16699 -17.499 6.5s-6.5 9.83301 -6.5 16.5z" />
    <glyph glyph-name="uni1E1F" unicode="&#x1e1f;" horiz-adv-x="402" 
d="M17 436v77.999l88 17v99c0 104 48 156 144 156c47.333 0 93 -8 137 -24v-71l-106 1c-20.667 0.666992 -36 -3.66602 -46 -12.999c-7.33301 -6 -11.333 -15.833 -12 -29.5s-1 -27.167 -1 -40.5v-78h131v-95h-131v-436h-116v436h-88zM194 882.999l0.000976562 68
c0 16.667 8 25 24 25h64c7.33301 0 13 -2.33301 17 -7s6 -10.667 6 -18v-68c0 -15.333 -7.66699 -23 -23 -23h-64c-6.66699 0 -12.334 2 -17.001 6s-7 9.66699 -7 17z" />
    <glyph glyph-name="uni1E40" unicode="&#x1e40;" horiz-adv-x="830" 
d="M47 0l58 732h161l148 -540l146 540h160l64 -732h-114l-47 528l-144 -528h-127l-148 528l-42 -528h-115zM357 820l0.000976562 68c0 16.667 8 25 24 25h64c7.33301 0 13 -2.33301 17 -7s6 -10.667 6 -18v-68c0 -15.333 -7.66699 -23 -23 -23h-64
c-6.66699 0 -12.334 2.16699 -17.001 6.5s-7 9.83301 -7 16.5z" />
    <glyph glyph-name="uni1E41" unicode="&#x1e41;" horiz-adv-x="883" 
d="M502 393l-0.000976562 -35v-358h-116v358c0 26 -6.5 46.167 -19.5 60.5s-32.167 21.5 -57.5 21.5s-47.833 -3.66699 -67.5 -11s-44.5 -20.333 -74.5 -39v-390h-116v531h90l26 -60c1.33301 1.33301 6.83301 5.16602 16.5 11.499l17.5 11.5c2 1.33301 7.33301 4.5 16 9.5
s14.667 8.33301 18 10s9 4.33398 17 8.00098s14.667 6 20 7s12 2.5 20 4.5c12.667 3.33301 27.334 5 44.001 5s31 -1 43 -3s23.333 -5 34 -9s20.334 -9 29.001 -15c17.333 -12 30.666 -27 39.999 -45c62.667 48 129 72 199 72c52.667 0 92.667 -16.5 120 -49.5
s41 -76.833 41 -131.5v-357h-116v358c0 26 -6.33301 46.167 -19 60.5s-32.667 21.5 -60 21.5c-54.667 0 -103 -15.667 -145 -47zM419.999 621l-0.000976562 68c0 16.667 8 25 24 25h64c7.33301 0 13 -2.33301 17 -7s6 -10.667 6 -18v-68c0 -15.333 -7.66699 -23 -23 -23h-64
c-7.33301 0 -13.166 2.16699 -17.499 6.5s-6.5 9.83301 -6.5 16.5z" />
    <glyph glyph-name="uni1E56" unicode="&#x1e56;" horiz-adv-x="594" 
d="M54 0l0.000976562 732.002h310c57.333 0 100.333 -13 129 -39c42.667 -38.667 64 -99.334 64 -182.001c0 -41.333 -4.33301 -77.166 -13 -107.499s-19.167 -53.333 -31.5 -69s-27.833 -27.834 -46.5 -36.501s-34.5 -13.834 -47.5 -15.501s-24.167 -2.5 -33.5 -2.5
s-18.333 0.166992 -27 0.5s-28.334 1.83301 -59.001 4.5c-81.333 8 -124.333 13 -129 15v-300h-116zM170.001 386.002h187.001c26.667 0 47.167 8.66699 61.5 26s21.5 50 21.5 98c-0.666992 48.667 -10.334 81 -29.001 97c-15.333 12.667 -33.333 19 -54 19h-187v-240z
M231.002 825.002l-0.000976562 68c0 16.667 8 25 24 25h64c7.33301 0 13 -2.5 17 -7.5s6 -10.833 6 -17.5v-68c0 -15.333 -7.66699 -23 -23 -23h-64c-7.33301 0 -13.166 2 -17.499 6s-6.5 9.66699 -6.5 17z" />
    <glyph glyph-name="uni1E57" unicode="&#x1e57;" horiz-adv-x="555" 
d="M51 -270v800.999h92l23 -55c18 14 44.167 27.667 78.5 41s66.166 20 95.499 20c116 0 174 -89.667 174 -269c0 -106 -16.333 -180 -49 -222c-28 -36 -69.667 -54 -125 -54c-24 0 -52.667 3.33301 -86 10s-62.666 15.334 -87.999 26.001v-298h-115zM317 88.999
c18.667 0 33.333 4.33301 44 13c24.667 19.333 37 73.333 37 162c0 79.333 -12.333 130.333 -37 153c-11.333 11.333 -26 17 -44 17c-52.667 0 -103 -12.667 -151 -38v-285c46 -14.667 96.333 -22 151 -22zM237.999 627.999l-0.000976562 68c0 16.667 8 25 24 25h64
c7.33301 0 13 -2.33301 17 -7s6 -10.667 6 -18v-68c0 -15.333 -7.66699 -23 -23 -23h-64c-7.33301 0 -13.166 2 -17.499 6s-6.5 9.66699 -6.5 17z" />
    <glyph glyph-name="uni1E60" unicode="&#x1e60;" horiz-adv-x="588" 
d="M55 489l0.00390625 64.001c0 70 19.333 119 58 147c35.333 25.333 86.333 38 153 38c38 0 83.667 -2.83301 137 -8.5s93.666 -11.834 120.999 -18.501v-92c-28 2 -72.333 4.33301 -133 7c-62.667 2 -107 3 -133 3s-47 -4.66699 -63 -14s-24 -32.333 -24 -69v-47
c0 -32.667 6.66699 -54.167 20 -64.5s35.666 -15.5 66.999 -15.5h126c74 0 123.333 -28.667 148 -86c12.667 -28.667 19 -62 19 -100v-56c0 -84.667 -29.667 -139.667 -89 -165c-30.667 -13.333 -68.667 -20 -114 -20c-109.333 0 -199.333 9.33301 -270 28v92
c73.333 -7.33301 137 -11 191 -11s86 0.666992 96 2s21 4.33301 33 9c24.667 9.33301 37 30 37 62v50c0 16.667 -2 30.667 -6 42c-8.66699 24.667 -30.667 37 -66 37h-123c-32.667 0 -60.834 4.33301 -84.501 13s-41.834 19.167 -54.501 31.5s-22.667 27.5 -30 45.5
c-10.667 27.333 -16 59.333 -16 96zM242.004 828.001l-0.000976562 68c0 16.667 8 25 24 25h64c6.66699 0 12 -2.33301 16 -7s6 -10.667 6 -18v-68c0 -15.333 -7.33301 -23 -22 -23h-64c-7.33301 0 -13.166 2 -17.499 6s-6.5 9.66699 -6.5 17z" />
    <glyph glyph-name="uni1E61" unicode="&#x1e61;" horiz-adv-x="507" 
d="M34 351v46.0029c0 92.667 46 139 138 139c51.333 0 105 -2 161 -6s94 -9.66699 114 -17v-77h-248c-21.333 0 -34.833 -3.33301 -40.5 -10s-8.5 -18.334 -8.5 -35.001v-32c0 -18.667 3.83301 -30.334 11.5 -35.001s20.167 -7 37.5 -7h138c46 0 80.333 -12.333 103 -37
s34 -57.334 34 -98.001v-52c0 -90 -43.333 -135 -130 -135c-50.667 0 -107.167 2.33301 -169.5 7s-101.833 10.667 -118.5 18v76h259c28.667 0 43 13.667 43 41v34c0 14 -3.16699 24.5 -9.5 31.5s-17.5 10.5 -33.5 10.5h-136c-49.333 0 -85.833 10.5 -109.5 31.5
s-35.5 56.5 -35.5 106.5zM212 627.003l0.000976562 68c0 16.667 8 25 24 25h64c7.33301 0 13 -2.33301 17 -7s6 -10.667 6 -18v-68c0 -15.333 -7.66699 -23 -23 -23h-64c-6.66699 0 -12.334 2 -17.001 6s-7 9.66699 -7 17z" />
    <glyph glyph-name="uni1E6A" unicode="&#x1e6a;" horiz-adv-x="588" 
d="M36 623v109h529v-109h-209v-623h-116v623h-204zM239 820l-0.000976562 68c0 16.667 8 25 24 25h64c7.33301 0 13 -2.33301 17 -7s6 -10.667 6 -18v-68c0 -15.333 -7.66699 -23 -23 -23h-64c-7.33301 0 -13.166 2.16699 -17.499 6.5s-6.5 9.83301 -6.5 16.5z" />
    <glyph glyph-name="uni1E6B" unicode="&#x1e6b;" horiz-adv-x="380" 
d="M17 437v70l90 25l22 148h94v-148h132v-95h-132v-233c0 -37.333 4.16699 -63.5 12.5 -78.5s20.833 -25.167 37.5 -30.5c45.333 -14 70.333 -21 75 -21v-74h-110c-87.333 -0 -131 63.333 -131 190v247h-90zM115 764l0.000976562 68c0 16.667 8 25 24 25h64
c7.33301 0 13 -2.33301 17 -7s6 -10.667 6 -18v-68c0 -15.333 -7.66699 -23 -23 -23h-64c-6.66699 0 -12.334 2 -17.001 6s-7 9.66699 -7 17z" />
    <glyph glyph-name="Wgrave" unicode="&#x1e80;" horiz-adv-x="981" 
d="M38 732h124l181 -565l149 565h126l-57 -205l122 -364l154 569h124l-212 -732h-130l-112 327l-99 -327h-130zM338 930h113l96 -136h-83z" />
    <glyph glyph-name="wgrave" unicode="&#x1e81;" horiz-adv-x="817" 
d="M17 531h125l124 -387l111 387h118l-43 -153l98 -234l126 387h125l-183 -531h-127l-93 217l-70 -217h-131zM245 729h113l96 -136h-83z" />
    <glyph glyph-name="Wacute" unicode="&#x1e82;" horiz-adv-x="981" 
d="M38 732h124l181 -565l149 565h126l-57 -205l122 -364l154 569h124l-212 -732h-130l-112 327l-99 -327h-130zM465 794l96 136h113l-126 -136h-83z" />
    <glyph glyph-name="wacute" unicode="&#x1e83;" horiz-adv-x="817" 
d="M17 531h125l124 -387l111 387h118l-43 -153l98 -234l126 387h125l-183 -531h-127l-93 217l-70 -217h-131zM372 593l96 136h113l-126 -136h-83z" />
    <glyph glyph-name="Wdieresis" unicode="&#x1e84;" horiz-adv-x="981" 
d="M38 732h124l181 -565l149 565h126l-57 -205l122 -364l154 569h124l-212 -732h-130l-112 327l-99 -327h-130zM320 850c0 15.333 5.49902 28.333 16.499 39s24.333 16 40 16s28.834 -5.33301 39.501 -16s16 -23.667 16 -39s-5.5 -28.5 -16.5 -39.5
s-24.167 -16.5 -39.5 -16.5s-28.5 5.5 -39.5 16.5s-16.5 24.167 -16.5 39.5zM591.499 810.5c-11 11 -16.502 22.832 -16.502 35.499s2.66699 23.334 8 32.001c10.667 18 25.334 27 44.001 27s33.334 -5.33301 44.001 -16s16 -23.667 16 -39s-5.5 -28.5 -16.5 -39.5
s-24.167 -16.5 -39.5 -16.5s-28.5 5.5 -39.5 16.5z" />
    <glyph glyph-name="wdieresis" unicode="&#x1e85;" horiz-adv-x="817" 
d="M17 531h125l124 -387l111 387h118l-43 -153l98 -234l126 387h125l-183 -531h-127l-93 217l-70 -217h-131zM230 649c0 15.333 5.5 28.333 16.5 39s24.167 16 39.5 16s28.5 -5.33301 39.5 -16s16.5 -23.667 16.5 -39s-5.5 -28.5 -16.5 -39.5s-24.167 -16.5 -39.5 -16.5
s-28.5 5.5 -39.5 16.5s-16.5 24.167 -16.5 39.5zM501.5 609.5c-11 11 -16.5 22.834 -16.5 35.501s2.66699 23.334 8 32.001c10.667 18 25.167 27 43.5 27s33 -5.33301 44 -16s16.5 -22.334 16.5 -35.001s-2.66699 -23.334 -8 -32.001c-10.667 -18.667 -25.167 -28 -43.5 -28
s-33 5.5 -44 16.5z" />
    <glyph glyph-name="Ygrave" unicode="&#x1ef2;" horiz-adv-x="647" 
d="M381 0h-116v239l-227 493h126l160 -363l176 363h126l-245 -493v-239zM164 934h113l97 -137h-84z" />
    <glyph glyph-name="ygrave" unicode="&#x1ef3;" horiz-adv-x="569" 
d="M18 531l123 0.000976562l105 -387c4 -14.667 9.33301 -24.334 16 -29.001s12.167 -7.66699 16.5 -9s8 -2 11 -2s6.16699 0.166992 9.5 0.5l5 0.5l123 426h123l-202 -699l-74 -102h-80l82 270c-72.667 0 -121 42 -145 126zM123 732.001h112l97 -136h-83z" />
    <glyph glyph-name="endash" unicode="&#x2013;" horiz-adv-x="513" 
d="M20 236v103h473v-103h-473z" />
    <glyph glyph-name="emdash" unicode="&#x2014;" horiz-adv-x="736" 
d="M20 238v103h696v-103h-696z" />
    <glyph glyph-name="quoteleft" unicode="&#x2018;" horiz-adv-x="263" 
d="M68 531l0.000976562 120c0 21.333 4.16699 39 12.5 53s18.5 23.333 30.5 28c18 7.33301 32.667 11 44 11s18.666 -0.333008 21.999 -1l13 -2v-48c-10 0 -17.667 -2 -23 -6c-6.66699 -6 -10 -15 -10 -27v-23h11c18 0 27 -9 27 -27v-78c0 -19.333 -9 -29 -27 -29h-75
c-16.667 0 -25 9.66699 -25 29z" />
    <glyph glyph-name="quoteright" unicode="&#x2019;" horiz-adv-x="263" 
d="M68 636v78.001c0 19.333 9 29 27 29h75c16.667 0 25 -9.66699 25 -29v-121c0 -20.667 -4.16699 -38 -12.5 -52s-18.5 -23.333 -30.5 -28c-18.667 -7.33301 -33.5 -11 -44.5 -11h-21.5l-13 2v48h2c20.667 0 31 11.333 31 34v23h-11c-8 0 -14.5 2.16699 -19.5 6.5
s-7.5 11.166 -7.5 20.499z" />
    <glyph glyph-name="quotesinglbase" unicode="&#x201a;" horiz-adv-x="263" 
d="M68 26l-0.000976562 78.999c0 19.333 9 29 27 29h75c16.667 0 25 -9.66699 25 -29v-121c0 -21.333 -4.16699 -39 -12.5 -53s-18.5 -23.333 -30.5 -28c-18 -7.33301 -32.667 -11 -44 -11s-18.666 0.333008 -21.999 1l-13 2v48h2c20.667 0 31 11.333 31 34v22h-11
c-8 0 -14.5 2.33301 -19.5 7s-7.5 11.334 -7.5 20.001z" />
    <glyph glyph-name="quotedblleft" unicode="&#x201c;" horiz-adv-x="422" 
d="M234 530v121c0 21.333 4.16699 38.833 12.5 52.5s18.5 22.834 30.5 27.501c18.667 7.33301 33.5 11 44.5 11s18.5 -0.333008 22.5 -1l12 -2v-48h-1c-21.333 0 -32 -11 -32 -33v-22h12c8 0 14.333 -2.33301 19 -7s7 -11.334 7 -20.001v-79c0 -19.333 -8.66699 -29 -26 -29
h-75c-17.333 0 -26 9.66699 -26 29zM62 530l0.000976562 121c0 21.333 4.16699 38.833 12.5 52.5s18.5 22.834 30.5 27.501c18 7.33301 32.667 11 44 11s18.666 -0.333008 21.999 -1l13 -2v-48c-10 0.666992 -17.667 -1.33301 -23 -6c-6.66699 -6 -10 -15 -10 -27v-22h11
c8 0 14.5 -2.33301 19.5 -7s7.5 -11.334 7.5 -20.001v-79c0 -19.333 -9 -29 -27 -29h-75c-16.667 0 -25 9.66699 -25 29z" />
    <glyph glyph-name="quotedblright" unicode="&#x201d;" horiz-adv-x="422" 
d="M88 608c-17.333 0 -26 9 -26 27v78c0 19.333 8.66699 29 26 29h75c17.333 0 26 -9.66699 26 -29v-120c0 -21.333 -4.16699 -39 -12.5 -53s-18.5 -23.333 -30.5 -28c-18.667 -7.33301 -33.5 -11 -44.5 -11s-18.5 0.333008 -22.5 1l-12 2v47h1c21.333 0 32 11.333 32 34v23
h-12zM234 635v77.999c0 19.333 9 29 27 29h75c16.667 0 25 -9.66699 25 -29v-120c0 -21.333 -4.16699 -39 -12.5 -53s-18.5 -23.333 -30.5 -28c-18.667 -7.33301 -33.5 -11 -44.5 -11s-18.167 0.333008 -21.5 1l-12 2v47h1c21.333 0 32 11.333 32 34v23h-12
c-8 0 -14.5 2.33301 -19.5 7s-7.5 11.334 -7.5 20.001z" />
    <glyph glyph-name="quotedblbase" unicode="&#x201e;" horiz-adv-x="422" 
d="M88 -1c-17.333 0 -26 9 -26 27v79c0 19.333 8.66699 29 26 29h75c17.333 0 26 -9.66699 26 -29v-121c0 -21.333 -4.16699 -39 -12.5 -53s-18.5 -23.333 -30.5 -28c-18.667 -7.33301 -33.5 -11 -44.5 -11s-18.5 0.333008 -22.5 1l-12 2v48h1c21.333 0 32 11.333 32 34v22
h-12zM234 26v78.999c0 19.333 9 29 27 29h75c16.667 0 25 -9.66699 25 -29v-121c0 -21.333 -4.16699 -39 -12.5 -53s-18.5 -23.333 -30.5 -28c-18 -7.33301 -32.5 -11 -43.5 -11s-18.5 0.333008 -22.5 1l-12 2v48h1c21.333 0 32 11.333 32 34v22h-12
c-8 0 -14.5 2.33301 -19.5 7s-7.5 11.334 -7.5 20.001z" />
    <glyph glyph-name="dagger" unicode="&#x2020;" horiz-adv-x="419" 
d="M17 466v91l133 11l10 202h101l10 -202l132 -11v-91l-132 -12l-11 -526h-101l-9 526z" />
    <glyph glyph-name="daggerdbl" unicode="&#x2021;" horiz-adv-x="436" 
d="M17 156v91l135 13l-2 194l-133 12v91l133 11l10 202h101l10 -202l132 -11v-91l-132 -12l-3 -194l135 -13v-91l-139 -12l-4 -216h-101l-4 215z" />
    <glyph glyph-name="bullet" unicode="&#x2022;" horiz-adv-x="310" 
d="M72 329v104c0 23.333 11 35 33 35h99c23.333 0 35 -11.667 35 -35v-104c0 -21.333 -11.667 -32 -35 -32h-99c-10 0 -18 2.83301 -24 8.5s-9 13.5 -9 23.5z" />
    <glyph glyph-name="ellipsis" unicode="&#x2026;" horiz-adv-x="810" 
d="M254 23l-0.000976562 78c0 16.667 8 25 24 25h74c16.667 0 25 -8.33301 25 -25v-78c0 -15.333 -8.33301 -23 -25 -23h-74c-7.33301 0 -13.166 2.16699 -17.499 6.5s-6.5 9.83301 -6.5 16.5zM335.999 23c0 -6.66699 2.16797 -12.167 6.50098 -16.5
s10.166 -6.5 17.499 -6.5h74c16.667 0 25 7.66699 25 23v78c0 16.667 -8.33301 25 -25 25h-74c-16 0 -24 -8.33301 -24 -25v-78zM417 23l0.000976562 78c0 16.667 8 25 24 25h74c16.667 0 25 -8.33301 25 -25v-78c0 -15.333 -8.33301 -23 -25 -23h-74
c-6.66699 0 -12.334 2.16699 -17.001 6.5s-7 9.83301 -7 16.5z" />
    <glyph glyph-name="perthousand" unicode="&#x2030;" horiz-adv-x="1379" 
d="M36 478l-0.000976562 125.999c0 44 9.83301 76.333 29.5 97s53.834 31 102.501 31h101c48 0 81.833 -10.333 101.5 -31s29.5 -53 29.5 -97v-126c0 -66.667 -23.333 -107 -70 -121c-16.667 -5.33301 -37.667 -8 -63 -8h-101c-47.333 0 -80.833 10.333 -100.5 31
s-29.5 53.334 -29.5 98.001zM121.999 487.999c0 -20 3.66797 -33.833 11.001 -41.5s21.333 -11.5 42 -11.5h83c24 0 39.333 3.83301 46 11.5s10 21.5 10 41.5v105c0 21.333 -3.83301 35.5 -11.5 42.5s-21.834 10.5 -42.501 10.5h-83c-28 0 -45 -7 -51 -21
c-2.66699 -7.33301 -4 -18 -4 -32v-105zM215 -0.000976562l443 732h90l-441 -732h-92zM560 130.999v126.001c0 44 9.83301 76.333 29.5 97s53.834 31 102.501 31h102c62 0 101.333 -19 118 -57c8 -18 12 -41.667 12 -71v-126c0 -44.667 -9.83301 -77.334 -29.5 -98.001
s-53.834 -31 -102.501 -31h-102c-47.333 0 -80.833 10.5 -100.5 31.5s-29.5 53.5 -29.5 97.5zM646 141c0 -20 3.66699 -33.833 11 -41.5s21.333 -11.5 42 -11.5h84c23.333 0 38.333 3.83301 45 11.5s10 21.5 10 41.5v105c0 21.333 -3.83301 35.5 -11.5 42.5
s-21.5 10.5 -41.5 10.5h-84c-28 0 -44.667 -6.66699 -50 -20c-3.33301 -7.33301 -5 -18.333 -5 -33v-105zM981 131v126.001c0 29.333 3.66699 53 11 71c16.667 38 57 57 121 57h101c47.333 0 81 -10.333 101 -31s30 -53 30 -97v-126c0 -44.667 -10 -77.334 -30 -98.001
s-54.333 -31 -103 -31h-101c-62 0 -101.333 19 -118 57c-8 18.667 -12 42.667 -12 72zM1067 141.001c0 -20 3.66699 -33.833 11 -41.5s21.333 -11.5 42 -11.5h83c24.667 0 39.334 3.33301 44.001 10c8 10 12 24.333 12 43v105c0 21.333 -3.83301 35.5 -11.5 42.5
s-21.834 10.5 -42.501 10.5h-83c-22.667 0 -37.5 -3.5 -44.5 -10.5s-10.5 -21.167 -10.5 -42.5v-105z" />
    <glyph glyph-name="guilsinglleft" unicode="&#x2039;" horiz-adv-x="356" 
d="M42 354l206 203l68 -67l-139 -136l143 -140l-67 -68z" />
    <glyph glyph-name="guilsinglright" unicode="&#x203a;" horiz-adv-x="356" 
d="M42 214l143 140l-139 136l68 67l206 -203l-211 -208z" />
    <glyph glyph-name="fraction" unicode="&#x2044;" horiz-adv-x="289" 
d="M-76 0l354 745h88l-354 -745h-88z" />
    <glyph glyph-name="zerosuperior" unicode="&#x2070;" horiz-adv-x="465" 
d="M176 867h118c80.667 0 121 -39 121 -117v-246c0 -42.667 -10.5 -72.667 -31.5 -90s-50.833 -26 -89.5 -26h-118c-40 0 -70.833 8.5 -92.5 25.5s-32.5 47.167 -32.5 90.5v244c0 79.333 41.667 119 125 119zM143 520c0 -18.667 3.66895 -30.999 11.002 -36.999
s20.666 -9 39.999 -9h81c19.333 0 32.333 3.16699 39 9.5s10 18.166 10 35.499v216c0 16.667 -3.33301 28.5 -10 35.5s-19.334 10.5 -38.001 10.5h-84c-22 0 -36 -5 -42 -15c-4.66699 -8 -7 -18.333 -7 -31v-215z" />
    <glyph glyph-name="foursuperior" unicode="&#x2074;" horiz-adv-x="425" 
d="M269 583v109l26 49h66v-158h52v-73l-52 -10v-111h-92v105h-233l-22 38l184 335h96l-156 -284h131z" />
    <glyph glyph-name="fivesuperior" unicode="&#x2075;" horiz-adv-x="417" 
d="M137 674c16 13.333 48.665 19.998 97.998 19.998c14.667 0 26.334 -0.666992 35.001 -2c38.667 -1.33301 67.334 -13.166 86.001 -35.499s28 -52.166 28 -89.499v-64c0 -40.667 -11.333 -70.667 -34 -90s-51.5 -29 -86.5 -29h-76.5c-42 1.33301 -88.667 6.33301 -140 15
v73h198c18 0 30.333 4 37 12s10 19 10 33v42c0 24 -6.33301 39 -19 45c-6.66699 2.66699 -15 4 -25 4h-85c-26 0 -39 -13.333 -39 -40h-77l15 299h304v-86h-223z" />
    <glyph glyph-name="sixsuperior" unicode="&#x2076;" horiz-adv-x="439" 
d="M146.5 867.5c7 1.66699 16.666 3.16504 28.999 4.49805s34.833 2 67.5 2s81 -5 145 -15v-72h-186c-38.667 0 -59.667 -30 -63 -90c-0.666992 -8.66699 -1 -19.667 -1 -33c49.333 10 97.833 15 145.5 15s79.834 -10 96.501 -30s25 -47 25 -81v-69
c0 -37.333 -10.5 -65.166 -31.5 -83.499s-49.5 -27.5 -85.5 -27.5h-105c-54.667 0 -92 24 -112 72c-16.667 39.333 -25 97.333 -25 174c0 92.667 13 156.334 39 191.001c12 16.667 23.5 27.5 34.5 32.5s20 8.33301 27 10zM137.999 595.998
c0 -81.333 20.668 -122 62.001 -122h73c22 0 35 8.33301 39 25c0.666992 4.66699 1 10 1 16v43c0 15.333 -2.83301 25.5 -8.5 30.5s-15.834 7.5 -30.501 7.5h-136z" />
    <glyph glyph-name="sevensuperior" unicode="&#x2077;" horiz-adv-x="386" 
d="M13 782v86h336l24 -41l-183 -439h-100l164 394h-241z" />
    <glyph glyph-name="eightsuperior" unicode="&#x2078;" horiz-adv-x="464" 
d="M56 714l0.00195312 41.002c0 42.667 11.167 72.667 33.5 90s52.833 26 91.5 26h111c39.333 0 68.666 -9 87.999 -27s29 -47.667 29 -89v-36c1.33301 -27.333 -6.33398 -48 -23.001 -62c-7.33301 -6.66699 -16.666 -11 -27.999 -13
c25.333 -4.66699 41.666 -26.334 48.999 -65.001c1.33301 -8.66699 2 -17 2 -25v-56c0 -42.667 -10.333 -71.834 -31 -87.501s-48.667 -23.5 -84 -23.5h-117c-52 0 -86 12 -102 36c-12.667 20 -19 44.333 -19 73v50c0 20.667 5 37.167 15 49.5s23.333 20.5 40 24.5
c-36.667 14 -55 45.333 -55 94zM147.002 508.002c0 -13.333 3.16602 -22.833 9.49902 -28.5s17.833 -8.5 34.5 -8.5h85c14.667 0 25.334 2.83301 32.001 8.5s10 15.167 10 28.5v40c0 28.667 -13.667 43 -41 43h-87c-14.667 0 -25.5 -3.33301 -32.5 -10
s-10.5 -17.667 -10.5 -33v-40zM147.001 715.002c0 -28.667 14.333 -43 43 -43h84c18.667 0 30.667 3.83301 36 11.5s8 18.167 8 31.5v26c0 24 -7 38.667 -21 44c-6 2 -14.667 3 -26 3h-75c-18.667 0 -31.5 -3.16699 -38.5 -9.5s-10.5 -18.833 -10.5 -37.5v-26z" />
    <glyph glyph-name="ninesuperior" unicode="&#x2079;" horiz-adv-x="439" 
d="M38 692l0.000976562 69c0 38 10.5 66.167 31.5 84.5s49.5 27.5 85.5 27.5h105c54 0 91.333 -24 112 -72c16 -40 24 -98.667 24 -176c0 -133.333 -28.333 -210.333 -85 -231c-20.667 -8 -55 -12 -103 -12s-99 5.33301 -153 16v72h185c38.667 0 60 30.667 64 92
c0.666992 8.66699 1 19.667 1 33c-49.333 -10 -97.833 -15 -145.5 -15s-79.834 10 -96.501 30s-25 47.333 -25 82zM129.001 702c0 -15.333 3 -25.501 9 -30.501s16.333 -7.5 31 -7.5h136c0 82 -20 123 -60 123h-75c-14.667 0 -25.167 -3.16699 -31.5 -9.5
s-9.5 -17.166 -9.5 -32.499v-43z" />
    <glyph glyph-name="zeroinferior" unicode="&#x2080;" horiz-adv-x="465" 
d="M176 279h118c80.667 0 121 -38.667 121 -116v-247c0 -42.667 -10.5 -72.667 -31.5 -90s-50.833 -26 -89.5 -26h-118c-40 0 -70.833 8.5 -92.5 25.5s-32.5 47.167 -32.5 90.5v245c0 78.667 41.667 118 125 118zM143 -68c0 -18 3.66895 -30.167 11.002 -36.5
s20.666 -9.5 39.999 -9.5h81c19.333 0 32.333 3.33301 39 10s10 18.667 10 36v215c0 16.667 -3.33301 28.5 -10 35.5s-19.334 10.5 -38.001 10.5h-84c-30 0 -46 -10.667 -48 -32c-0.666992 -3.33301 -1 -8 -1 -14v-215z" />
    <glyph glyph-name="oneinferior" unicode="&#x2081;" horiz-adv-x="270" 
d="M216 280v-479h-92v392l-110 -27v60l111 54h91z" />
    <glyph glyph-name="twoinferior" unicode="&#x2082;" horiz-adv-x="397" 
d="M27 201c-0.666992 0 -0.99707 6.66602 -0.99707 19.999v32l1 16c75.333 12 138.666 18 189.999 18s88.333 -12.833 111 -38.5s34 -60.167 34 -103.5c0 -21.333 -5.33301 -43.833 -16 -67.5s-22.334 -44 -35.001 -61s-29.334 -35.833 -50.001 -56.5
c-24.667 -24.667 -52 -49 -82 -73h183v-86h-332v81c2.66699 2.66699 10.667 8.83398 24 18.501l31.5 23l34 25.5c15 11.333 27.167 21.166 36.5 29.499l33.5 30.5c13 12 23.667 23 32 33s16.5 20.667 24.5 32c15.333 22 23 43.833 23 65.5s-5.66699 37.334 -17 47.001
s-31.333 14.5 -60 14.5h-165z" />
    <glyph glyph-name="threeinferior" unicode="&#x2083;" horiz-adv-x="409" 
d="M190 -204c-71.333 0 -125 6.33008 -161 18.9971l1 67h168c26.667 0 45 3.5 55 10.5s15 19.5 15 37.5v16c0 34.667 -22 52.334 -66 53.001l-132 5v72l132 8c23.333 0.666992 40.333 4.83398 51 12.501s16 19.834 16 36.501v16c0 31.333 -22.333 47 -67 47h-177v66
c36.667 13.333 90 20 160 20h55c22.667 0 43.667 -5.33301 63 -16c37.333 -21.333 56 -56 56 -104v-31c0 -48 -18 -78.667 -54 -92c36 -16 54 -48.333 54 -97v-25c0 -80.667 -43.333 -121 -130 -121h-39z" />
    <glyph glyph-name="fourinferior" unicode="&#x2084;" horiz-adv-x="427" 
d="M272 -4v109l25 49h66v-158h52v-73l-52 -10v-112h-91v106h-236l-22 38l184 334h98l-154 -283h130z" />
    <glyph glyph-name="fiveinferior" unicode="&#x2085;" horiz-adv-x="418" 
d="M138 87c15.333 12.667 47.998 19 97.998 19c14.667 0 26.334 -0.666992 35.001 -2c38.667 -1.33301 67.334 -13 86.001 -35s28 -51.667 28 -89v-64c0 -59.333 -24.667 -97 -74 -113c-14.667 -4.66699 -35 -7 -61 -7s-46.667 0.333008 -62 1
c-42.667 0.666992 -89.667 5.66699 -141 15v72h199c18 0 30.5 4 37.5 12s10.5 19 10.5 33v42c0 24.667 -6.66699 39.667 -20 45c-6 3.33301 -14.333 5 -25 5h-85c-26 0 -39 -12 -39 -36h-78l15 294h306v-86h-224z" />
    <glyph glyph-name="sixinferior" unicode="&#x2086;" horiz-adv-x="439" 
d="M146.5 280c7 2 17.667 3.66699 32 5s39.166 2 74.499 2s80.333 -5.33301 135 -16v-71h-186c-38.667 0 -59.667 -30.333 -63 -91c-0.666992 -8.66699 -1 -19.334 -1 -32.001c49.333 10 97.833 15 145.5 15s79.834 -10 96.501 -30s25 -47 25 -81v-69
c0 -38 -10.5 -66 -31.5 -84s-49.5 -27 -85.5 -27h-105c-54.667 0 -92 23.667 -112 71c-16.667 39.333 -25 97.333 -25 174c0 92.667 13 156.334 39 191.001c12 17.333 23.5 28.333 34.5 33s20 8 27 10zM138 8c0 -80.667 20.668 -121 62.001 -121h72
c22.667 0 36 8.33301 40 25c0.666992 4.66699 1 10 1 16v43c0 14.667 -2.83301 24.5 -8.5 29.5s-15.834 7.5 -30.501 7.5h-136z" />
    <glyph glyph-name="seveninferior" unicode="&#x2087;" horiz-adv-x="386" 
d="M13 194v86h336l24 -40l-183 -439h-100l164 393h-241z" />
    </font>
</defs>
</svg>
